<?xml version="1.0" standalone="no"?>
<!DOCTYPE svg PUBLIC "-//W3C//DTD SVG 20010904//EN"
 "http://www.w3.org/TR/2001/REC-SVG-20010904/DTD/svg10.dtd">
<svg version="1.0" xmlns="http://www.w3.org/2000/svg"
 width="600.000000pt" height="400.000000pt" viewBox="0 0 600.000000 400.000000"
 preserveAspectRatio="xMidYMid meet">

<g transform="translate(0.000000,400.000000) scale(0.100000,-0.100000)"
fill="#000000" stroke="none">
<path d="M0 2000 l0 -2000 3000 0 3000 0 0 2000 0 2000 -959 0 c-758 0 -960
-3 -964 -12 -4 -10 -6 -10 -6 0 -1 9 -415 12 -2036 12 l-2035 0 0 -2000z
m3297 1848 c-3 -8 -6 -5 -6 6 -1 11 2 17 5 13 3 -3 4 -12 1 -19z m-335 -51 c9
-4 8 -6 -4 -6 -19 -1 -48 35 -48 59 0 8 9 1 19 -16 11 -18 25 -34 33 -37z
m-167 17 c-20 -49 -19 -76 6 -108 29 -37 90 -66 163 -76 l61 -9 -60 3 c-143 5
-230 100 -180 196 22 42 28 37 10 -6z m1271 -72 c-8 -15 -24 -36 -37 -47 -17
-15 -15 -9 10 28 35 52 49 62 27 19z m-1235 1 c13 -16 12 -17 -3 -4 -17 13
-22 21 -14 21 2 0 10 -8 17 -17z m119 -13 c0 -5 -4 -10 -10 -10 -5 0 -10 5
-10 10 0 6 5 10 10 10 6 0 10 -4 10 -10z m1197 -40 c-4 -17 -2 -30 3 -30 6 0
-38 -46 -97 -103 -182 -175 -252 -237 -263 -237 -6 0 3 20 21 45 18 25 38 45
44 45 23 0 190 167 213 212 20 41 67 98 80 98 2 0 2 -13 -1 -30z m-1807 2 c0
-18 -198 -74 -219 -62 -20 11 -14 14 107 45 103 26 112 28 112 17z m445 -56
c-13 -87 18 -101 245 -115 l135 -8 -135 -2 c-74 -2 -154 -5 -177 -7 -31 -4
-47 0 -63 13 -37 31 -42 50 -29 108 15 66 33 74 24 11z m2255 4 c0 -20 -5 -30
-15 -30 -17 0 -18 4 -9 38 9 32 24 27 24 -8z m-1977 -17 c-7 -2 -19 -2 -25 0
-7 3 -2 5 12 5 14 0 19 -2 13 -5z m-718 -33 c3 -5 1 -10 -4 -10 -6 0 -11 5
-11 10 0 6 2 10 4 10 3 0 8 -4 11 -10z m640 -30 c3 -5 1 -10 -4 -10 -6 0 -11
5 -11 10 0 6 2 10 4 10 3 0 8 -4 11 -10z m614 -34 c36 -3 70 -11 75 -17 8 -9
-1 -10 -34 -4 -25 3 -124 6 -220 5 -183 -1 -224 11 -67 20 101 5 149 5 246 -4z
m-372 -12 c-3 -3 -12 -4 -19 -1 -8 3 -5 6 6 6 11 1 17 -2 13 -5z m-637 -24 c0
-5 -4 -10 -10 -10 -5 0 -10 5 -10 10 0 6 5 10 10 10 6 0 10 -4 10 -10z m1135
-108 c3 -18 16 -39 28 -47 19 -13 20 -17 7 -25 -8 -5 -19 -8 -25 -7 -10 4 -37
93 -49 159 -6 32 -5 32 13 -8 10 -22 22 -55 26 -72z m-395 -312 c0 -5 -5 -10
-11 -10 -5 0 -7 5 -4 10 3 6 8 10 11 10 2 0 4 -4 4 -10z m67 -212 c-3 -8 -6
-5 -6 6 -1 11 2 17 5 13 3 -3 4 -12 1 -19z m603 -344 c-47 -14 -78 -18 -67 -8
8 8 66 22 92 22 11 1 0 -6 -25 -14z m-90 -24 c-8 -5 -19 -10 -25 -10 -5 0 -3
5 5 10 8 5 20 10 25 10 6 0 3 -5 -5 -10z m288 -97 c-10 -2 -26 -2 -35 0 -10 3
-2 5 17 5 19 0 27 -2 18 -5z m-1698 -292 c14 -11 59 -47 100 -80 41 -33 199
-154 350 -268 151 -115 276 -212 278 -217 2 -5 -43 -28 -100 -51 -57 -23 -142
-59 -190 -79 -102 -44 -541 -263 -614 -306 l-51 -30 -44 37 c-92 80 -294 258
-299 263 -3 3 -43 39 -90 80 -47 41 -110 98 -140 126 -30 28 -81 73 -112 100
-31 27 -57 53 -57 57 -1 6 84 50 225 116 71 33 297 126 384 158 135 50 313
111 325 112 6 1 22 -8 35 -18z m-825 -713 c406 -706 403 -702 381 -711 -11 -4
-26 -5 -33 -3 -7 3 -13 2 -13 -3 0 -5 -15 -11 -32 -14 -63 -9 -193 -39 -203
-47 -5 -4 -30 -11 -55 -14 -33 -5 -41 -4 -30 3 11 8 11 11 2 11 -7 0 -15 -7
-19 -16 -4 -12 -14 -14 -42 -9 -28 4 -32 3 -21 -5 12 -9 11 -10 -6 -6 -11 4
-42 1 -70 -5 -47 -10 -322 -21 -296 -12 18 7 -16 32 -42 33 -19 0 -19 -1 -2
-13 16 -12 16 -13 -3 -13 -11 0 -17 4 -15 8 3 4 -4 8 -16 8 -12 0 -18 -4 -15
-10 4 -6 -1 -7 -12 -3 -15 6 -13 9 12 20 l30 14 -30 -6 c-28 -5 -29 -4 -11 10
11 8 28 16 38 16 25 2 32 3 43 10 11 7 169 57 220 69 17 4 66 18 110 30 109
30 261 66 312 75 24 4 45 10 47 14 3 4 -17 45 -44 91 -28 46 -50 85 -50 87 0
2 -36 66 -79 141 -44 75 -95 166 -114 202 -35 64 -36 65 -74 62 -50 -4 -394
-81 -608 -137 -275 -71 -285 -74 -295 -80 -6 -3 -10 -1 -10 4 0 6 -5 11 -11
11 -5 0 -7 -4 -4 -10 3 -5 2 -10 -4 -10 -5 0 -12 6 -14 13 -3 7 -6 5 -6 -5 -1
-21 -13 -23 -42 -5 -17 10 -23 10 -26 0 -5 -15 -23 -17 -23 -4 0 15 41 24 53
12 15 -15 27 -14 21 3 -6 16 119 58 144 49 9 -4 13 -2 9 4 -5 9 243 80 448
129 56 13 419 89 447 93 3 1 27 -36 53 -81z m-1078 -270 c-3 -8 -6 -5 -6 6 -1
11 2 17 5 13 3 -3 4 -12 1 -19z m-30 -3 c0 -8 -5 -12 -10 -8 -5 3 -6 -4 -3
-18 6 -21 5 -22 -4 -6 -9 14 -9 22 0 33 15 18 17 18 17 -1z m23 -110 c0 -5 -5
-3 -10 5 -5 8 -10 20 -10 25 0 6 5 3 10 -5 5 -8 10 -19 10 -25z m3079 19 l163
-6 -6 -147 c-4 -80 -12 -172 -17 -203 -5 -31 -7 -68 -4 -81 4 -15 1 -28 -10
-37 -13 -10 -13 -15 -3 -21 10 -7 9 -9 -4 -9 -12 0 -18 -8 -18 -22 0 -19 2
-20 10 -8 5 8 10 10 10 4 0 -14 -25 -36 -32 -29 -2 3 -5 -8 -5 -25 0 -28 1
-29 14 -10 15 21 33 27 33 10 0 -5 -7 -10 -15 -10 -11 0 -15 -11 -16 -37 0
-30 -2 -34 -9 -18 -6 16 -9 10 -12 -25 -4 -39 -5 -37 -7 20 -2 47 -5 59 -11
45 -13 -30 -11 222 3 403 7 85 9 156 5 158 -12 8 -776 6 -918 -2 -147 -8 -134
3 -145 -119 -4 -38 -8 -77 -10 -85 -4 -12 -22 -134 -72 -474 l-6 -39 54 7 c84
10 558 17 524 7 l-30 -9 35 -2 35 -2 -27 -10 c-16 -5 -28 -15 -28 -22 0 -21
-44 -66 -65 -67 -11 -1 -2 -5 20 -9 l40 -7 -47 -2 c-27 0 -48 -5 -48 -10 0 -5
-62 -11 -137 -14 -76 -3 -163 -10 -193 -16 -128 -23 -220 -37 -220 -33 0 3 22
161 49 351 27 190 58 403 68 474 l17 127 66 1 c36 1 173 4 305 8 252 6 394 5
664 -5z m-3012 -46 c-3 -8 -6 -5 -6 6 -1 11 2 17 5 13 3 -3 4 -12 1 -19z m-45
-10 c-2 -10 -6 -18 -7 -18 -1 0 -5 8 -7 18 -3 11 0 19 7 19 7 0 10 -8 7 -19z
m498 -378 c0 -5 -4 -10 -10 -10 -5 0 -10 5 -10 10 0 6 5 10 10 10 6 0 10 -4
10 -10z m303 -47 c-7 -2 -19 -2 -25 0 -7 3 -2 5 12 5 14 0 19 -2 13 -5z m1830
-270 c-7 -2 -21 -2 -30 0 -10 3 -4 5 12 5 17 0 24 -2 18 -5z m30 -20 c-7 -2
-19 -2 -25 0 -7 3 -2 5 12 5 14 0 19 -2 13 -5z m-33 -33 c0 -5 -2 -10 -4 -10
-3 0 -8 5 -11 10 -3 6 -1 10 4 10 6 0 11 -4 11 -10z m157 -42 c-3 -8 -6 -5 -6
6 -1 11 2 17 5 13 3 -3 4 -12 1 -19z m-93 -17 c-2 -3 -12 3 -22 13 -16 17 -16
18 5 5 12 -7 20 -15 17 -18z m66 25 c0 -2 -8 -10 -17 -17 -16 -13 -17 -12 -4
4 13 16 21 21 21 13z m-502 -83 c-10 -2 -26 -2 -35 0 -10 3 -2 5 17 5 19 0 27
-2 18 -5z"/>
<path d="M2340 2021 c-111 -40 -381 -145 -415 -161 -11 -5 -65 -30 -120 -55
-182 -85 -170 -78 -151 -89 9 -6 49 -41 89 -79 39 -37 80 -70 89 -73 10 -3 18
-9 18 -14 0 -17 44 -51 58 -45 9 3 12 0 9 -9 -4 -10 4 -19 23 -28 16 -7 27
-16 24 -20 -5 -8 28 -42 126 -128 41 -35 78 -69 82 -74 4 -6 31 3 65 21 240
127 365 185 598 280 88 36 166 68 173 72 13 7 -77 83 -193 161 -45 31 -219
165 -270 208 -27 23 -94 72 -97 71 -2 0 -50 -17 -108 -38z m-425 -251 c17 -11
26 -20 20 -20 -5 0 -23 9 -40 20 -16 11 -25 20 -20 20 6 0 24 -9 40 -20z
m-150 -40 c-3 -5 -12 -10 -18 -10 -7 0 -6 4 3 10 19 12 23 12 15 0z m232 4
c-3 -3 -12 -4 -19 -1 -8 3 -5 6 6 6 11 1 17 -2 13 -5z m-172 -54 c3 -5 2 -10
-4 -10 -5 0 -13 5 -16 10 -3 6 -2 10 4 10 5 0 13 -4 16 -10z m45 -10 c-8 -5
-19 -10 -25 -10 -5 0 -3 5 5 10 8 5 20 10 25 10 6 0 3 -5 -5 -10z m-83 -6 c-3
-3 -12 -4 -19 -1 -8 3 -5 6 6 6 11 1 17 -2 13 -5z m133 -14 c0 -5 -5 -10 -11
-10 -5 0 -7 5 -4 10 3 6 8 10 11 10 2 0 4 -4 4 -10z m100 -29 c0 -5 -10 -12
-22 -15 -22 -6 -23 -7 -4 -21 26 -20 15 -28 -12 -9 -31 21 -17 45 31 53 4 0 7
-3 7 -8z m-80 -33 c0 -4 -7 -8 -15 -8 -8 0 -15 4 -15 8 0 5 7 9 15 9 8 0 15
-4 15 -9z m100 -7 c0 -5 3 -16 6 -25 4 -11 0 -16 -14 -16 -15 0 -18 5 -14 25
4 23 22 36 22 16z m22 -13 c-7 -7 -12 -8 -12 -2 0 6 3 14 7 17 3 4 9 5 12 2 2
-3 -1 -11 -7 -17z m-62 -28 c0 -5 -2 -10 -4 -10 -3 0 -8 5 -11 10 -3 6 -1 10
4 10 6 0 11 -4 11 -10z m-62 -41 c-3 -8 -7 -3 -11 10 -4 17 -3 21 5 13 5 -5 8
-16 6 -23z"/>
<path d="M2993 1588 c-53 -20 -74 -46 -30 -34 43 10 97 36 97 46 0 13 -4 12
-67 -12z"/>
<path d="M3051 1574 c-11 -8 -21 -13 -21 -10 0 3 -15 -1 -34 -9 -20 -8 -48
-12 -64 -9 -19 4 -43 -1 -69 -15 -22 -11 -43 -18 -45 -15 -3 2 -11 -3 -19 -12
-13 -16 -11 -17 16 -10 17 4 42 13 56 20 23 11 28 11 38 -5 10 -18 13 -18 48
-3 21 9 50 23 64 30 14 7 30 10 34 6 5 -4 5 2 1 13 -6 15 -4 17 5 8 12 -12 39
-7 39 7 0 16 -28 18 -49 4z"/>
<path d="M2868 1503 c-10 -2 -18 -9 -18 -14 0 -5 -8 -9 -18 -9 -22 0 -72 -22
-72 -32 0 -13 24 -22 28 -10 2 7 14 12 26 12 12 0 31 8 42 18 11 10 25 17 32
14 7 -2 10 2 6 12 -3 9 -7 15 -8 15 0 -1 -9 -3 -18 -6z"/>
<path d="M1909 796 c-6 -6 -69 -18 -101 -20 -26 -1 -36 -15 -23 -28 9 -9 139
28 143 41 3 10 -10 16 -19 7z"/>
<path d="M1905 759 c-16 -5 -41 -11 -55 -14 -14 -2 -38 -7 -54 -11 -18 -4 -26
-3 -22 4 15 25 -8 24 -139 -7 -48 -12 -45 -34 3 -26 25 5 33 3 23 -3 -7 -5
-28 -9 -47 -8 -18 1 -32 -3 -31 -8 1 -6 -7 -10 -18 -11 -11 0 -20 -7 -20 -15
0 -8 7 -13 15 -12 8 2 29 6 45 8 56 7 70 12 67 25 -3 10 0 10 12 -1 14 -11 16
-9 16 9 0 12 -4 19 -10 16 -5 -3 -10 0 -10 7 0 8 9 14 20 14 11 0 20 -6 20
-13 0 -21 21 -25 68 -13 26 7 52 16 57 20 6 3 20 5 33 4 14 -1 22 4 22 15 0
10 3 12 8 5 10 -15 42 -14 42 2 0 19 -12 22 -45 13z m-150 -29 c3 -5 1 -10 -4
-10 -6 0 -11 5 -11 10 0 6 2 10 4 10 3 0 8 -4 11 -10z"/>
<path d="M2918 133 c23 -2 61 -2 85 0 23 2 4 4 -43 4 -47 0 -66 -2 -42 -4z"/>
</g>
</svg>
