<?xml version="1.0" standalone="no"?>
<!DOCTYPE svg PUBLIC "-//W3C//DTD SVG 20010904//EN"
 "http://www.w3.org/TR/2001/REC-SVG-20010904/DTD/svg10.dtd">
<svg version="1.0" xmlns="http://www.w3.org/2000/svg"
 width="990.000000pt" height="660.000000pt" viewBox="0 0 990.000000 660.000000"
 preserveAspectRatio="xMidYMid meet">

<g transform="translate(0.000000,660.000000) scale(0.100000,-0.100000)"
fill="#000000" stroke="none">
<path d="M0 3300 l0 -3300 2095 0 2095 0 0 28 c1 23 2 25 11 9 5 -9 7 -22 4
-27 -4 -7 962 -10 2844 -10 l2851 0 0 3300 0 3300 -4950 0 -4950 0 0 -3300z
m3850 2965 c0 -8 -7 -15 -16 -15 -14 0 -14 3 -4 15 7 8 14 15 16 15 2 0 4 -7
4 -15z m-31 -107 c-7 -12 -15 -47 -19 -78 l-7 -55 -2 58 c0 31 5 66 11 77 17
27 32 25 17 -2z m581 -49 c13 -9 12 -10 -2 -5 -10 3 -20 1 -23 -4 -7 -11 29
-32 39 -23 3 3 6 1 6 -5 0 -24 -20 -20 -50 10 -25 24 -34 28 -40 18 -5 -8 -6
-18 -4 -22 6 -10 -39 -28 -71 -28 -21 0 -35 17 -35 41 0 5 11 9 24 9 14 0 28
5 31 10 8 13 106 13 125 -1z m1282 -11 c3 -7 1 -58 -3 -113 -22 -281 -41 -576
-38 -579 2 -1 56 1 119 5 63 5 225 15 360 24 135 9 304 21 375 25 259 18 323
14 495 -30 85 -22 162 -42 170 -43 8 -2 24 -8 35 -15 15 -8 16 -12 5 -13 -25
-2 -45 2 -51 13 -3 5 -30 13 -60 18 -30 5 -92 18 -139 30 -100 24 -242 28
-406 12 -61 -7 -176 -14 -255 -18 -168 -6 -220 -10 -309 -18 -117 -11 -174
-16 -255 -22 -44 -4 -83 -9 -87 -13 -3 -3 -11 -55 -17 -115 -6 -60 -14 -112
-17 -115 -10 -9 25 473 61 842 4 40 2 67 -8 87 -11 20 -12 31 -4 39 14 14 24
14 29 -1z m-1573 -24 c44 -18 58 -39 39 -63 -32 -40 -42 -71 -45 -146 -8 -178
-24 -463 -39 -684 -15 -218 -15 -236 0 -263 10 -15 14 -28 10 -28 -3 0 -1 -7
6 -15 10 -12 9 -15 -8 -15 -47 0 -68 -30 -41 -57 12 -12 -40 -18 -286 -33 -93
-6 -273 -19 -400 -30 -126 -11 -306 -24 -400 -30 -93 -6 -197 -13 -230 -15
-33 -3 -134 -10 -225 -16 -254 -16 -281 -19 -333 -30 -27 -6 -51 -18 -54 -26
-3 -8 -12 -12 -19 -9 -8 3 -14 -1 -14 -9 0 -9 10 -15 24 -15 14 0 27 -4 30 -9
9 -13 -22 -34 -40 -27 -9 3 -21 3 -27 -1 -7 -4 -28 -8 -47 -9 -33 -1 -36 1
-34 27 2 25 0 27 -16 16 -10 -6 -17 -14 -14 -18 2 -4 0 -10 -5 -13 -5 -3 -15
8 -23 25 -12 23 -17 27 -21 15 -4 -9 -4 -24 -1 -33 5 -17 5 -17 -6 0 -6 9 -18
17 -25 17 -8 0 -15 7 -15 15 0 9 -6 12 -17 8 -12 -5 -15 -2 -10 10 8 21 3 21
-18 1 -14 -15 -18 -13 -46 13 -23 24 -37 29 -67 27 -45 -2 -64 11 -56 41 7 27
-25 83 -36 64 -5 -8 -13 -3 -25 15 -18 28 -35 34 -35 13 0 -7 -13 -23 -30 -37
-19 -15 -30 -34 -30 -50 0 -14 -4 -31 -8 -37 -9 -15 -33 22 -51 80 -15 46 -35
50 -26 5 4 -18 12 -40 18 -48 7 -8 2 -7 -10 3 -12 11 -27 16 -32 12 -12 -7
-41 17 -41 34 0 6 -7 11 -15 11 -20 0 -19 -17 2 -29 16 -8 14 -13 -19 -46 -44
-44 -56 -88 -58 -210 -2 -140 -10 -295 -18 -368 -6 -44 -5 -70 2 -77 15 -15
16 -332 2 -342 -8 -6 -8 -10 0 -15 11 -9 12 -58 1 -70 -11 -10 -8 -62 3 -84 6
-11 7 -25 3 -32 -4 -6 -8 -47 -8 -89 0 -58 3 -78 13 -78 7 0 11 -4 8 -9 -3 -4
-1 -23 4 -41 9 -30 -6 -110 -20 -110 -7 0 -4 -101 4 -127 4 -12 3 -24 -2 -27
-5 -3 -7 -21 -6 -40 2 -20 0 -36 -5 -36 -7 0 -6 -79 4 -190 3 -30 6 -75 7
-100 1 -25 6 -48 10 -51 5 -3 2 -19 -6 -35 -8 -16 -17 -65 -21 -109 -4 -44
-10 -84 -14 -90 -4 -5 -6 -21 -4 -35 1 -14 5 -85 7 -157 4 -117 3 -134 -12
-143 -10 -5 -12 -10 -4 -10 6 0 12 -8 12 -18 0 -10 5 -23 12 -30 9 -9 9 -12
-1 -12 -16 0 -41 61 -41 100 0 18 -5 29 -12 27 -7 -1 -14 9 -16 22 -2 14 -11
35 -19 47 -12 19 -13 50 -8 176 3 84 8 187 12 228 3 41 7 300 8 575 1 275 8
590 15 700 6 110 10 234 9 275 -6 138 -3 655 4 691 11 52 48 89 90 89 49 0 97
-19 97 -38 0 -10 7 -26 15 -36 17 -22 21 -15 28 52 8 63 31 85 85 79 40 -4 44
-3 60 28 16 30 81 88 142 126 78 48 200 72 430 84 118 6 349 19 945 55 187 11
414 25 505 30 91 5 177 10 191 10 21 0 28 6 34 28 7 27 7 27 18 5 5 -13 16
-23 24 -23 7 0 13 -9 13 -21 0 -15 5 -19 15 -15 10 3 15 -1 15 -13 0 -10 16
-29 35 -42 19 -13 35 -32 35 -41 0 -10 5 -18 10 -18 6 0 10 5 10 10 0 6 7 10
15 10 16 0 28 36 23 71 -2 18 -10 25 -30 27 -16 2 -28 7 -28 12 0 11 27 20 44
14 19 -7 27 51 32 226 2 80 11 210 20 290 9 80 16 175 15 213 -2 61 3 87 14
87 3 0 22 -7 44 -16z m-319 -134 l-7 -65 -1 52 c-2 43 6 91 12 81 1 -2 -1 -32
-4 -68z m-15 -238 c-4 -73 -9 -131 -12 -128 -3 2 -1 71 3 153 4 81 10 139 12
129 2 -11 1 -80 -3 -154z m955 38 c0 -5 -5 -10 -11 -10 -5 0 -7 5 -4 10 3 6 8
10 11 10 2 0 4 -4 4 -10z m827 -37 c-3 -10 -5 -2 -5 17 0 19 2 27 5 18 2 -10
2 -26 0 -35z m-4627 -52 c0 -6 -4 -13 -10 -16 -5 -3 -10 1 -10 9 0 9 5 16 10
16 6 0 10 -4 10 -9z m4601 -285 c-12 -134 -21 -252 -21 -260 0 -10 -9 -16 -22
-16 -18 0 -20 2 -8 10 24 15 7 19 -39 9 -24 -5 -46 -7 -49 -4 -3 3 2 5 11 5 9
0 17 5 17 10 0 6 -21 11 -47 12 -27 0 -52 2 -58 3 -35 5 -83 19 -99 28 -19 9
-18 11 9 33 l30 23 -38 39 c-20 21 -37 41 -37 44 0 16 61 -13 95 -46 33 -33
35 -37 21 -52 -9 -8 -16 -21 -16 -27 1 -7 9 -2 19 11 19 22 61 31 61 13 0 -5
16 -15 35 -22 32 -12 39 -20 36 -41 0 -4 9 -4 22 1 12 4 27 6 34 4 7 -3 13 21
18 74 13 149 15 138 -25 137 -99 -3 -359 -6 -383 -5 -27 1 -27 2 -13 29 9 17
11 33 6 43 -5 8 -5 21 0 29 7 12 10 12 16 -3 3 -9 4 -27 0 -40 -9 -39 4 -48
64 -38 30 5 119 12 198 16 116 6 144 11 151 24 5 9 12 66 17 126 4 61 9 102
11 93 3 -10 -5 -128 -16 -262z m-1772 66 c-1 -100 -8 -130 -28 -118 -15 10
-14 46 4 96 8 23 15 60 15 81 0 22 2 39 5 39 2 0 4 -44 4 -98z m1259 16 c-6
-18 -75 -20 -82 -2 -4 11 5 14 40 14 32 0 44 -4 42 -12z m-271 -34 c-3 -3 -12
-4 -19 -1 -8 3 -5 6 6 6 11 1 17 -2 13 -5z m-906 -44 c-5 -27 -8 -31 -14 -17
-4 10 -1 26 5 37 16 25 18 22 9 -20z m3464 -56 c93 -60 127 -93 119 -116 -3
-10 -1 -18 5 -18 6 0 11 5 11 12 0 9 3 9 11 1 8 -8 -6 -31 -50 -84 -67 -79
-74 -107 -10 -41 22 23 45 42 50 42 22 0 -2 -50 -41 -89 -22 -22 -40 -48 -40
-59 0 -28 -50 -40 -67 -16 -18 25 -16 37 8 52 36 23 7 35 -82 33 -46 -1 -101
-4 -123 -6 -23 -2 -102 -9 -176 -15 -74 -7 -146 -13 -160 -15 -14 -2 -82 -6
-150 -10 -69 -3 -188 -13 -265 -20 -77 -8 -208 -17 -290 -21 -229 -10 -356 13
-166 31 42 4 90 8 106 10 73 9 137 14 230 20 55 3 132 10 170 14 39 5 108 9
155 10 46 2 87 4 90 6 4 2 53 7 111 10 57 3 124 8 149 11 87 10 136 13 227 15
65 1 102 6 122 18 32 17 141 118 141 129 0 4 -8 12 -17 18 -35 22 -154 124
-146 124 5 0 40 -21 78 -46z m-2311 -26 c-3 -5 -14 2 -25 16 -27 34 -24 44 6
16 13 -12 22 -27 19 -32z m1850 17 c15 -8 32 -13 37 -10 8 6 29 -26 29 -44 0
-6 -10 -11 -21 -11 -18 0 -20 -2 -8 -16 11 -14 8 -15 -37 -13 -56 3 -125 24
-136 42 -13 20 -9 47 8 47 9 0 12 -5 8 -12 -4 -7 3 -3 15 10 25 26 64 28 105
7z m96 -36 c0 -11 -4 -17 -10 -14 -5 3 -10 13 -10 21 0 8 5 14 10 14 6 0 10
-9 10 -21z m-3032 -18 c3 -8 -1 -12 -9 -9 -7 2 -15 10 -17 17 -3 8 1 12 9 9 7
-2 15 -10 17 -17z m1112 -6 c7 -9 10 -19 6 -22 -8 -9 -38 9 -44 25 -5 17 23
15 38 -3z m1976 4 c7 -12 -12 -29 -34 -29 -10 0 -10 4 0 20 14 23 24 25 34 9z
m-3056 -14 c7 -9 8 -15 2 -15 -5 0 -12 7 -16 15 -3 8 -4 15 -2 15 2 0 9 -7 16
-15z m1230 11 c0 -2 -7 -6 -15 -10 -8 -3 -15 -1 -15 4 0 6 7 10 15 10 8 0 15
-2 15 -4z m-60 -16 c0 -5 -5 -10 -11 -10 -5 0 -7 5 -4 10 3 6 8 10 11 10 2 0
4 -4 4 -10z m-786 -35 c3 -8 1 -15 -3 -15 -5 0 -11 7 -15 15 -3 8 -1 15 3 15
5 0 11 -7 15 -15z m110 0 c-4 -8 -8 -15 -10 -15 -2 0 -4 7 -4 15 0 8 4 15 10
15 5 0 7 -7 4 -15z m-164 -10 c-7 -8 -17 -12 -23 -8 -6 4 -3 9 9 14 27 11 28
11 14 -6z m560 5 c5 0 15 -7 24 -15 28 -28 120 -85 137 -85 10 0 19 6 22 13 3
9 7 9 20 -2 22 -18 22 -41 0 -42 -10 0 -108 -8 -218 -18 l-200 -17 -26 23
c-22 20 -30 22 -53 13 -15 -5 -29 -10 -32 -10 -9 0 -74 72 -74 81 0 6 16 17
35 25 42 17 205 20 205 3 0 -6 -7 -9 -15 -5 -8 3 -15 1 -15 -4 0 -6 19 -10 43
-10 25 0 37 4 29 8 -9 6 -6 12 11 21 12 7 30 13 40 15 9 1 20 5 24 9 4 4 13 5
21 2 7 -3 17 -5 22 -5z m-400 -112 c0 -10 -4 -18 -10 -18 -5 0 -10 15 -10 33
0 24 3 28 10 17 5 -8 10 -23 10 -32z m-220 -24 c0 -2 -7 -4 -15 -4 -8 0 -15 4
-15 10 0 5 7 7 15 4 8 -4 15 -8 15 -10z m-2617 -1 c-7 -2 -13 -11 -13 -18 0
-17 -31 -28 -43 -16 -9 9 37 41 58 40 6 0 4 -3 -2 -6z m3602 -30 c-11 -3 -23
-8 -27 -12 -5 -4 -25 -5 -45 -2 -35 4 -36 5 -13 12 14 4 43 7 65 7 22 0 31 -2
20 -5z m415 -69 c0 -8 -4 -12 -10 -9 -5 3 -10 10 -10 16 0 5 5 9 10 9 6 0 10
-7 10 -16z m1206 -25 c3 -6 1 -16 -5 -22 -8 -8 -11 -8 -11 1 0 7 -8 12 -17 12
-15 0 -16 2 -3 10 20 13 27 12 36 -1z m-2593 -206 c-7 -2 -19 -2 -25 0 -7 3
-2 5 12 5 14 0 19 -2 13 -5z m-2680 -45 c-6 -7 -23 -46 -38 -86 -32 -83 -43
-88 -22 -11 8 30 15 67 16 83 0 16 6 35 13 43 10 12 13 12 26 -1 11 -11 12
-19 5 -28z m2485 25 c-10 -2 -26 -2 -35 0 -10 3 -2 5 17 5 19 0 27 -2 18 -5z
m2742 -80 c3 -3 -9 1 -26 10 -17 9 -37 23 -44 33 -12 14 55 -27 70 -43z
m-3840 -3 c0 -5 -2 -10 -4 -10 -3 0 -8 5 -11 10 -3 6 -1 10 4 10 6 0 11 -4 11
-10z m-291 -21 c-16 -10 -23 -4 -14 10 3 6 11 8 17 5 6 -4 5 -9 -3 -15z m4771
-9 c0 -5 -10 -15 -22 -21 -23 -12 -23 -12 -4 10 21 23 26 26 26 11z m-5650
-15 c0 -8 -4 -15 -10 -15 -5 0 -7 7 -4 15 4 8 8 15 10 15 2 0 4 -7 4 -15z
m4395 -125 c126 -98 476 -337 570 -390 33 -18 79 -49 101 -69 54 -47 125 -98
147 -107 9 -3 31 -19 48 -35 17 -16 36 -26 45 -22 9 3 32 -13 62 -45 64 -67
283 -232 367 -275 57 -29 64 -36 46 -42 -11 -3 -21 -11 -21 -16 0 -5 -12 -6
-27 -3 -22 5 -26 4 -16 -6 6 -7 26 -16 45 -20 31 -7 31 -8 6 -9 -19 -1 -26 -5
-22 -15 3 -8 13 -12 22 -10 15 5 15 4 0 -9 -10 -8 -15 -17 -12 -20 3 -3 3 -11
-1 -17 -5 -8 -10 -8 -20 0 -16 13 -58 4 -50 -11 3 -5 -7 -1 -24 9 -33 18 -35
30 -2 13 14 -8 22 -8 26 0 8 12 -43 69 -59 66 -16 -3 -11 64 5 74 18 10 -36
69 -63 69 -23 0 -23 -12 3 -61 22 -45 20 -62 -10 -78 -44 -24 -102 61 -116
171 -6 47 -8 49 -118 131 -62 46 -175 130 -251 188 -76 57 -148 111 -160 119
-12 8 -60 46 -107 85 -48 38 -97 77 -109 85 -13 8 -46 34 -74 57 -28 24 -78
63 -111 88 -233 173 -307 230 -312 239 -8 12 104 -66 192 -134z m-4002 115
c-3 -9 -8 -14 -10 -11 -3 3 -2 9 2 15 9 16 15 13 8 -4z m4853 -171 c58 -53
107 -95 110 -92 5 6 -10 23 -48 55 -13 11 -36 34 -53 53 -66 75 73 -48 270
-239 137 -134 265 -254 345 -325 143 -127 347 -322 405 -387 l30 -34 -30 25
c-51 43 -143 127 -335 310 -102 97 -225 214 -275 260 -49 46 -114 107 -143
135 -29 27 -58 51 -65 53 -13 4 64 -72 269 -263 71 -66 178 -168 239 -226 60
-58 165 -157 232 -219 111 -102 173 -173 161 -186 -4 -3 -160 145 -397 378
-29 29 -58 52 -63 50 -5 -1 -7 2 -3 8 3 5 1 10 -5 10 -7 0 -50 37 -96 83 -45
45 -138 134 -205 197 -112 105 -301 285 -353 336 -44 43 -107 114 -100 114 3
0 53 -43 110 -96z m-5648 -173 c-29 -73 -55 -125 -56 -116 -2 9 13 56 34 103
20 48 43 102 51 121 8 18 16 31 19 29 2 -3 -20 -64 -48 -137z m4782 -1 c0 -5
-5 -10 -11 -10 -5 0 -7 5 -4 10 3 6 8 10 11 10 2 0 4 -4 4 -10z m61 -159 c-2
-109 -11 -131 -51 -131 -12 1 -11 3 3 11 9 5 17 15 17 20 0 6 -4 7 -10 4 -5
-3 -10 -2 -10 4 0 5 5 13 10 16 6 3 10 48 10 98 1 89 1 91 16 63 10 -17 16
-51 15 -85z m-2613 65 c6 -29 -7 -59 -40 -96 l-31 -35 23 39 c16 27 23 52 21
79 -1 28 2 38 11 35 7 -3 15 -13 16 -22z m-901 -23 c-3 -10 -5 -4 -5 12 0 17
2 24 5 18 2 -7 2 -21 0 -30z m1860 -69 c-3 -3 -12 -4 -19 -1 -8 3 -5 6 6 6 11
1 17 -2 13 -5z m50 0 c-3 -3 -12 -4 -19 -1 -8 3 -5 6 6 6 11 1 17 -2 13 -5z
m-930 -48 c-8 -25 -26 -15 -25 15 1 29 2 30 15 13 7 -10 12 -23 10 -28z m658
34 c-3 -5 -12 -10 -20 -10 -8 0 -17 5 -20 10 -4 6 5 10 20 10 15 0 24 -4 20
-10z m-260 -10 c-3 -5 -10 -10 -16 -10 -5 0 -9 5 -9 10 0 6 7 10 16 10 8 0 12
-4 9 -10z m60 0 c-27 -12 -35 -12 -35 0 0 6 12 10 28 9 24 0 25 -1 7 -9z m113
3 c-10 -2 -26 -2 -35 0 -10 3 -2 5 17 5 19 0 27 -2 18 -5z m-390 -16 c-16 -13
-17 -33 -3 -102 5 -22 1 -36 -14 -54 -21 -25 -29 -57 -11 -46 6 3 10 12 10 19
0 7 10 21 23 32 12 10 19 15 15 10 -5 -5 1 -15 12 -23 13 -9 22 -31 26 -63 7
-54 10 -57 33 -36 17 14 93 40 151 51 19 3 30 3 24 -2 -13 -9 -25 -53 -15 -53
8 0 6 -168 -3 -196 -5 -18 -2 -22 24 -28 17 -3 29 -10 26 -15 -3 -4 3 -16 13
-25 10 -10 21 -13 22 -9 2 5 27 23 56 41 61 39 82 61 57 58 -9 0 -19 5 -22 13
-3 9 1 11 17 6 12 -4 21 -2 21 4 0 6 5 11 12 11 9 0 9 -3 0 -12 -13 -13 2 -48
21 -48 7 0 13 -8 14 -17 0 -10 4 -36 7 -58 4 -22 8 -47 9 -55 1 -8 7 -24 14
-35 6 -11 14 -49 18 -85 4 -36 9 -68 11 -72 3 -4 35 7 72 25 40 18 86 32 114
33 43 2 46 1 36 -15 -9 -14 -8 -30 3 -67 7 -27 13 -52 11 -56 -1 -4 8 -14 21
-22 24 -16 137 -21 137 -6 0 5 10 15 23 21 21 12 21 11 5 -8 -18 -19 -17 -19
15 -15 17 3 26 7 20 9 -17 6 -16 20 2 27 8 3 14 2 14 -2 -3 -20 2 -33 11 -27
6 3 10 2 10 -3 0 -6 9 -8 20 -5 20 5 28 23 10 23 -5 0 -10 7 -10 16 0 9 -5 12
-12 8 -7 -4 -8 -3 -4 4 10 17 26 15 26 -3 0 -8 6 -15 14 -15 8 0 16 7 20 15 3
8 10 15 17 15 6 0 9 -7 5 -15 -4 -12 0 -14 19 -9 20 5 27 1 36 -20 15 -33 25
-33 33 -1 4 15 13 25 24 25 10 0 13 -3 6 -8 -12 -8 -14 -55 -2 -63 5 -3 10
-15 13 -27 3 -16 0 -19 -12 -15 -11 4 -14 2 -9 -5 8 -14 56 -16 56 -3 0 5 9 7
20 4 41 -11 18 -21 -52 -22 -40 -1 -87 -4 -105 -7 -27 -5 -36 -1 -60 26 -16
18 -35 31 -42 29 -9 -3 -3 -15 16 -34 16 -17 44 -49 62 -73 19 -24 38 -41 45
-39 20 7 93 -113 81 -133 -8 -13 -71 -13 -96 0 -29 16 -23 30 12 30 24 0 30 3
25 16 -3 9 -6 23 -6 31 0 11 -7 14 -25 11 -14 -3 -28 -1 -31 3 -3 5 -14 9 -26
9 -15 0 -19 -5 -15 -17 14 -50 18 -48 -95 -51 -70 -2 -108 1 -108 8 0 5 -7 10
-15 10 -8 0 -15 4 -15 9 0 4 11 6 25 3 14 -2 25 -9 25 -15 0 -12 14 0 16 14 1
5 2 14 3 19 0 6 8 10 16 10 16 0 36 39 28 53 -2 4 7 7 21 7 29 0 30 3 16 31
-7 13 -7 19 0 19 5 0 10 6 10 13 0 8 -17 12 -48 12 -34 1 -58 8 -80 24 -30 21
-31 23 -15 39 16 16 11 17 -68 20 -89 4 -309 -16 -309 -27 0 -4 5 -12 11 -18
7 -7 6 -12 -6 -17 -9 -3 -14 -2 -10 3 3 5 -8 12 -25 16 -16 4 -30 10 -30 14 0
4 35 13 78 21 75 13 96 16 155 19 32 1 48 29 25 42 -9 5 -14 18 -11 31 2 13
-2 32 -11 43 -13 18 -16 19 -33 4 -10 -9 -43 -29 -73 -44 -48 -24 -60 -27 -93
-18 -44 12 -44 13 -51 -67 -3 -30 -5 -56 -6 -57 0 -1 -7 0 -15 3 -17 7 -21
-21 -5 -31 6 -3 10 -15 10 -26 0 -12 24 -44 54 -74 35 -33 51 -56 45 -62 -12
-12 -1 -43 15 -43 6 0 12 -10 13 -21 1 -12 10 -30 20 -41 15 -16 26 -19 62
-14 57 8 50 1 -25 -23 -61 -21 -74 -17 -74 22 0 9 -7 17 -16 17 -13 0 -14 3
-5 14 9 11 9 16 -2 23 -7 4 -26 32 -42 60 -32 61 -65 95 -72 76 -3 -7 -9 -13
-14 -13 -15 0 2 29 19 32 11 2 1 13 -30 33 -53 33 -51 43 13 75 43 22 49 35
49 98 0 26 7 81 16 122 9 44 13 93 9 120 -3 25 -6 62 -7 83 -1 22 -7 41 -14
44 -7 2 -38 -16 -69 -42 l-57 -46 -69 5 -68 6 -6 -38 c-11 -64 -15 -60 -11 13
2 39 11 95 21 125 23 73 24 101 3 111 -10 5 -26 13 -35 18 -24 11 -18 26 9 26
25 0 42 18 51 53 6 26 -9 28 -37 7 -11 -8 -30 -15 -42 -15 -15 0 -24 -8 -28
-26 -6 -24 -10 -25 -46 -19 -26 4 -40 3 -40 -4 0 -9 -65 -9 -90 0 -3 1 -8 1
-12 0 -13 -2 -9 42 7 95 20 66 19 74 -8 74 -50 0 -73 48 -31 64 9 3 12 1 9 -4
-3 -6 -2 -10 4 -10 19 0 29 33 17 54 -6 12 -12 22 -13 24 -2 4 -56 -30 -63
-40 -21 -29 -139 -38 -164 -12 -17 16 -22 74 -7 74 5 0 7 -8 4 -19 -6 -24 33
-35 59 -17 11 8 28 12 39 9 10 -3 45 4 77 15 69 25 87 29 132 31 30 0 33 -1
18 -12z m109 7 c-3 -3 -12 -4 -19 -1 -8 3 -5 6 6 6 11 1 17 -2 13 -5z m70 0
c-3 -3 -12 -4 -19 -1 -8 3 -5 6 6 6 11 1 17 -2 13 -5z m3311 -27 c40 -23 252
-228 246 -239 -7 -12 38 -61 119 -129 32 -27 52 -49 45 -49 -7 0 -49 34 -93
75 -74 68 -125 96 -112 61 12 -31 -117 48 -234 143 -54 44 -61 61 -34 91 7 8
16 25 19 38 8 25 12 26 44 9z m-1245 -54 c-7 -2 -19 -2 -25 0 -7 3 -2 5 12 5
14 0 19 -2 13 -5z m182 -27 c14 -25 16 -44 11 -82 -4 -27 -9 -72 -13 -100 -5
-47 -8 -52 -29 -50 -26 1 -34 16 -9 16 18 0 19 12 3 28 -10 10 -10 15 -1 20
14 9 16 128 3 153 -10 18 -4 49 9 49 5 0 16 -15 26 -34z m-1920 -36 c3 -5 1
-10 -4 -10 -6 0 -11 5 -11 10 0 6 2 10 4 10 3 0 8 -4 11 -10z m1215 -10 c11
-7 6 -10 -20 -10 -26 0 -31 3 -20 10 8 5 17 10 20 10 3 0 12 -5 20 -10z
m-1507 -20 c-5 -20 -15 -25 -26 -13 -8 7 11 33 23 33 5 0 6 -9 3 -20z m307 0
c0 -5 -2 -10 -4 -10 -3 0 -8 5 -11 10 -3 6 -1 10 4 10 6 0 11 -4 11 -10z m252
1 c-7 -4 -12 -14 -10 -21 2 -7 -4 -15 -12 -17 -12 -4 -12 -3 -1 5 10 7 10 11
1 17 -9 6 -9 10 1 16 8 5 19 9 24 9 6 0 4 -4 -3 -9z m858 -1 c-8 -5 -19 -10
-25 -10 -5 0 -3 5 5 10 8 5 20 10 25 10 6 0 3 -5 -5 -10z m-46 -15 c-4 -8 -7
-15 -9 -15 -2 0 -5 7 -9 15 -3 9 0 15 9 15 9 0 12 -6 9 -15z m-704 -15 c-8 -5
-19 -10 -25 -10 -5 0 -3 5 5 10 8 5 20 10 25 10 6 0 3 -5 -5 -10z m-270 -15
c0 -1 -39 -2 -87 -2 l-88 0 75 6 c67 5 100 4 100 -4z m110 5 c-18 -12 -43 -13
-36 -2 2 4 15 8 28 9 18 2 19 0 8 -7z m875 -28 c-3 -3 -11 0 -18 7 -9 10 -8
11 6 5 10 -3 15 -9 12 -12z m5 -21 c0 -6 -5 -13 -10 -16 -6 -4 -8 -10 -5 -15
3 -5 2 -11 -3 -14 -4 -2 -9 9 -10 25 -2 20 2 29 13 29 8 0 15 -4 15 -9z m1890
-36 c13 -14 21 -25 18 -25 -13 0 -68 33 -68 41 0 17 27 9 50 -16z m-915 -15
c-3 -5 -16 -10 -28 -10 -18 0 -19 2 -7 10 20 13 43 13 35 0z m-643 -38 c-3
-24 -1 -33 7 -28 6 4 11 3 11 -3 0 -6 -9 -15 -20 -21 -16 -9 -20 -8 -20 5 0 8
-4 15 -10 15 -5 0 -10 5 -10 10 0 6 7 10 16 10 12 0 15 7 12 23 -3 13 0 24 7
24 6 0 9 -14 7 -35z m575 -31 c-8 -10 -8 -16 4 -25 8 -6 22 -24 32 -39 17 -26
17 -31 4 -45 -8 -10 -22 -39 -30 -67 -9 -29 -20 -49 -27 -47 -7 1 -17 -2 -24
-7 -13 -11 -116 -31 -158 -31 -19 0 -28 5 -28 17 0 9 3 14 6 10 3 -3 26 3 50
13 24 11 48 20 52 20 4 1 6 10 5 20 -2 12 7 22 29 29 39 14 47 14 28 0 -12 -8
-11 -10 5 -7 11 2 20 8 20 13 -1 6 -4 43 -9 83 -6 52 -5 77 4 87 6 8 9 18 6
24 -3 5 0 11 6 14 19 6 39 -44 25 -62z m-1507 38 c0 -5 -4 -9 -8 -9 -5 0 -9 7
-9 15 0 8 4 12 9 9 4 -3 8 -9 8 -15z m27 -1 c-3 -8 -6 -5 -6 6 -1 11 2 17 5
13 3 -3 4 -12 1 -19z m843 7 c0 -8 -4 -15 -10 -15 -5 0 -10 7 -10 15 0 8 5 15
10 15 6 0 10 -7 10 -15z m-705 -5 c-3 -5 -10 -10 -16 -10 -5 0 -9 5 -9 10 0 6
7 10 16 10 8 0 12 -4 9 -10z m-100 -40 c-11 -18 -22 -11 -19 13 4 33 4 33 15
14 5 -9 7 -22 4 -27z m-970 20 c3 -5 1 -10 -4 -10 -6 0 -11 5 -11 10 0 6 2 10
4 10 3 0 8 -4 11 -10z m397 -33 c-2 -5 -10 0 -18 10 -20 26 -17 36 4 16 11
-10 17 -22 14 -26z m477 34 c8 -5 9 -11 3 -15 -5 -3 -15 1 -22 9 -14 16 -3 20
19 6z m2806 -11 c3 -5 2 -10 -4 -10 -5 0 -13 5 -16 10 -3 6 -2 10 4 10 5 0 13
-4 16 -10z m-3861 -37 c-7 -39 -14 -42 -14 -5 0 18 4 32 9 32 5 0 7 -12 5 -27z
m1326 17 c0 -5 -4 -10 -10 -10 -5 0 -10 5 -10 10 0 6 5 10 10 10 6 0 10 -4 10
-10z m-227 -14 c16 -12 16 -14 2 -20 -11 -4 -14 -13 -10 -26 5 -15 2 -20 -12
-19 -10 0 -13 3 -6 6 10 3 9 12 -2 39 -15 37 -5 45 28 20z m1007 5 c0 -6 -9
-9 -20 -8 -11 1 -20 5 -20 9 0 4 9 8 20 8 11 0 20 -4 20 -9z m1724 -6 c53 -16
86 -40 86 -62 0 -18 -5 -17 -36 12 -15 14 -44 28 -64 31 -22 4 -37 12 -37 20
0 8 1 14 1 14 1 0 23 -7 50 -15z m-2834 -48 c0 -5 -5 -7 -11 -5 -7 2 -13 17
-15 33 l-3 30 14 -25 c8 -14 14 -29 15 -33z m-399 20 c-10 -9 -11 -8 -5 6 3
10 9 15 12 12 3 -3 0 -11 -7 -18z m3104 3 c-3 -5 -13 -10 -21 -10 -8 0 -12 5
-9 10 3 6 13 10 21 10 8 0 12 -4 9 -10z m-2815 -4 c0 -3 -4 -8 -10 -11 -5 -3
-10 -1 -10 4 0 6 5 11 10 11 6 0 10 -2 10 -4z m420 -16 c0 -5 -5 -10 -11 -10
-5 0 -7 5 -4 10 3 6 8 10 11 10 2 0 4 -4 4 -10z m67 4 c-3 -3 -12 -4 -19 -1
-8 3 -5 6 6 6 11 1 17 -2 13 -5z m1068 -14 c-3 -5 -13 -10 -21 -10 -8 0 -12 5
-9 10 3 6 13 10 21 10 8 0 12 -4 9 -10z m60 -3 c17 -13 17 -14 -4 -20 -15 -3
-24 1 -31 14 -13 23 6 26 35 6z m1566 -24 c13 -16 12 -17 -3 -4 -10 7 -18 15
-18 17 0 8 8 3 21 -13z m-1624 -15 c-3 -8 -6 -5 -6 6 -1 11 2 17 5 13 3 -3 4
-12 1 -19z m-138 -27 c7 -5 10 -14 6 -20 -5 -9 -11 -7 -21 6 -13 17 -13 17
-14 -5 0 -13 -4 -20 -10 -17 -7 4 -7 13 0 26 12 21 18 23 39 10z m-2322 -48
c-3 -10 -5 -4 -5 12 0 17 2 24 5 18 2 -7 2 -21 0 -30z m2254 27 c16 0 10 -26
-10 -44 -19 -17 -20 -17 -24 11 -4 27 -4 27 -6 -4 -1 -25 -5 -31 -16 -27 -13
5 -13 9 -3 22 10 12 10 16 1 19 -7 3 -13 9 -13 14 0 6 4 8 9 4 5 -3 13 0 16 6
4 5 14 8 22 5 8 -3 19 -6 24 -6z m183 3 c-5 -5 -11 -11 -14 -14 -3 -4 -11 -1
-18 7 -11 12 -8 14 14 14 15 0 23 -3 18 -7z m-334 -13 c0 -5 -2 -10 -4 -10 -3
0 -8 5 -11 10 -3 6 -1 10 4 10 6 0 11 -4 11 -10z m350 -10 c0 -5 -5 -10 -11
-10 -5 0 -7 5 -4 10 3 6 8 10 11 10 2 0 4 -4 4 -10z m320 -15 c0 -21 -5 -25
-29 -25 -36 0 -49 16 -21 25 11 3 20 11 20 16 0 5 7 9 15 9 9 0 15 -9 15 -25z
m-606 -1 c3 -8 2 -12 -4 -9 -6 3 -10 10 -10 16 0 14 7 11 14 -7z m-28 -6 c3
-5 -4 -19 -17 -31 -17 -16 -21 -17 -17 -5 4 10 1 19 -8 22 -8 3 -14 9 -14 14
0 13 49 12 56 0z m-1322 -4 c9 -3 16 -11 16 -16 0 -6 -7 -7 -16 -4 -11 4 -18
-1 -21 -14 -6 -24 -10 -24 -28 -7 -16 17 -3 43 15 32 9 -5 11 -4 6 3 -8 13 4
15 28 6z m1176 -20 c0 -8 -4 -14 -9 -14 -6 0 -9 9 -8 19 1 22 17 18 17 -5z
m-97 4 c-28 -13 -29 -25 -4 -33 13 -4 17 -12 13 -31 l-5 -25 -23 35 c-29 43
-29 44 -1 56 31 12 47 11 20 -2z m35 -5 c-2 -12 6 -19 27 -23 29 -6 29 -6 6
-14 -28 -10 -55 12 -45 37 8 22 16 22 12 0z m758 -25 c8 -36 13 -42 29 -38 33
7 263 6 271 -2 13 -14 -2 -19 -75 -25 -39 -3 -74 -10 -77 -14 -3 -5 -22 -6
-43 -3 -20 3 -56 1 -80 -6 -40 -11 -42 -12 -27 -29 9 -10 16 -24 16 -31 0 -10
-4 -9 -13 3 -13 19 -104 47 -150 47 -17 0 -26 4 -22 11 4 6 13 8 21 5 7 -3 40
4 72 15 l59 20 -5 44 c-6 58 12 59 24 3z m-399 -9 c-23 -3 -55 -9 -72 -13
l-30 -7 27 16 c15 8 41 17 58 19 17 2 34 6 37 10 4 3 10 1 15 -6 5 -10 -4 -15
-35 -19z m68 21 c3 -5 1 -10 -4 -10 -6 0 -11 5 -11 10 0 6 2 10 4 10 3 0 8 -4
11 -10z m2034 -45 c0 -5 -6 1 -14 15 -8 14 -14 30 -14 35 0 6 6 -1 14 -15 8
-14 14 -29 14 -35z m-3452 27 c16 -9 29 -22 30 -29 2 -6 -13 -2 -32 10 -19 12
-34 25 -35 30 0 11 7 9 37 -11z m1088 8 c-3 -5 -12 -10 -18 -10 -7 0 -6 4 3
10 19 12 23 12 15 0z m-392 -36 c-3 -8 1 -14 11 -14 9 0 16 5 16 10 0 6 11 8
25 4 14 -3 25 -2 25 4 0 6 9 8 20 5 12 -3 22 1 26 11 8 21 30 20 53 -3 13 -13
27 -18 42 -14 16 4 20 2 17 -8 -2 -7 -20 -14 -39 -16 -124 -8 -200 -9 -203 -4
-2 3 -6 19 -10 35 -6 26 -5 28 8 17 8 -7 12 -19 9 -27z m428 4 c-27 -11 -32
-9 -19 11 8 14 14 16 24 7 9 -9 8 -12 -5 -18z m89 11 c0 -12 -47 -11 -55 1 -3
6 1 7 9 4 9 -3 16 -1 16 5 0 6 7 8 15 5 8 -4 15 -10 15 -15z m-546 -33 c-3 -9
-14 -16 -24 -16 -10 0 -32 -3 -50 -7 -29 -5 -33 -4 -26 12 4 11 2 22 -6 27 -9
5 -6 8 9 8 15 0 21 -5 17 -14 -8 -20 12 -29 28 -13 7 8 19 12 27 9 10 -3 12 0
8 11 -3 8 -3 18 1 21 10 10 23 -21 16 -38z m1946 34 c-8 -5 -19 -10 -25 -10
-5 0 -3 5 5 10 8 5 20 10 25 10 6 0 3 -5 -5 -10z m-2654 -38 c-15 -15 -15 -15
-4 10 7 15 15 23 17 17 2 -6 -4 -18 -13 -27z m2609 28 c-3 -5 -10 -10 -16 -10
-5 0 -9 5 -9 10 0 6 7 10 16 10 8 0 12 -4 9 -10z m-3242 -47 c-7 -50 -13 -55
-13 -11 0 29 6 48 16 48 1 0 0 -17 -3 -37z m-2028 17 c-3 -5 -18 -10 -33 -9
l-27 1 25 8 c35 11 42 11 35 0z m1755 -21 c0 -11 -4 -17 -10 -14 -5 3 -10 15
-10 26 0 11 5 17 10 14 6 -3 10 -15 10 -26z m1460 10 c0 -6 -4 -7 -10 -4 -5 3
-10 11 -10 16 0 6 5 7 10 4 6 -3 10 -11 10 -16z m3126 -161 c42 -40 70 -75 70
-87 0 -29 -12 -26 -20 3 -3 13 -58 75 -121 137 -63 63 -115 118 -115 123 0 6
26 -17 58 -49 32 -33 90 -90 128 -127z m-1031 128 c18 -9 46 -16 61 -16 40 0
18 -17 -33 -25 -34 -5 -43 -4 -43 8 0 8 -9 21 -21 28 -15 10 -18 19 -12 34 6
17 8 17 11 3 2 -9 18 -23 37 -32z m-185 24 c0 -5 -4 -10 -9 -10 -6 0 -13 5
-16 10 -3 6 1 10 9 10 9 0 16 -4 16 -10z m103 -24 c4 -10 0 -12 -14 -9 -22 6
-26 23 -5 23 8 0 16 -6 19 -14z m-693 -5 c0 -5 -13 -11 -30 -13 -30 -5 -41 6
-17 15 20 9 47 8 47 -2z m187 -13 c-3 -8 -6 -5 -6 6 -1 11 2 17 5 13 3 -3 4
-12 1 -19z m-2980 -45 c-3 -10 -5 -4 -5 12 0 17 2 24 5 18 2 -7 2 -21 0 -30z
m2612 24 c6 -8 8 -17 4 -20 -10 -11 -55 -8 -48 2 3 6 -3 14 -12 20 -15 9 -13
10 13 11 17 0 37 -6 43 -13z m611 9 c0 -2 -9 -6 -20 -9 -11 -3 -18 -1 -14 4 5
9 34 13 34 5z m-2942 -67 c-2 -33 -6 -63 -11 -66 -4 -2 -5 22 -3 54 6 76 5 73
11 73 3 0 5 -27 3 -61z m2246 46 c16 -12 17 -15 4 -15 -8 0 -21 7 -28 15 -16
19 -1 19 24 0z m466 -10 c0 -12 -29 -3 -34 10 -4 13 -2 14 14 5 11 -6 20 -13
20 -15z m287 -7 c-3 -7 -5 -2 -5 12 0 14 2 19 5 13 2 -7 2 -19 0 -25z m88 2
c3 -5 -1 -10 -9 -10 -9 0 -16 5 -16 10 0 6 4 10 9 10 6 0 13 -4 16 -10z m-478
-6 c-3 -3 -12 -4 -19 -1 -8 3 -5 6 6 6 11 1 17 -2 13 -5z m63 -9 c11 -13 10
-14 -4 -9 -9 3 -16 10 -16 15 0 13 6 11 20 -6z m85 -14 c-6 -5 -25 10 -25 20
0 5 6 4 14 -3 8 -7 12 -15 11 -17z m295 19 c0 -5 -2 -10 -4 -10 -3 0 -8 5 -11
10 -3 6 -1 10 4 10 6 0 11 -4 11 -10z m-1770 -4 c0 -3 -4 -8 -10 -11 -5 -3
-10 -1 -10 4 0 6 5 11 10 11 6 0 10 -2 10 -4z m863 -7 c12 -7 24 -15 27 -18
14 -16 50 -29 69 -24 21 5 29 -11 11 -22 -6 -4 -8 -10 -5 -15 3 -4 -2 -11 -10
-14 -12 -4 -13 -2 -5 13 8 16 6 19 -14 17 -13 0 -23 -7 -22 -16 1 -16 -39 -28
-99 -27 -25 0 -31 1 -15 4 13 3 31 13 40 22 8 10 23 20 33 24 21 8 23 27 1 27
-23 0 -55 20 -49 31 8 12 12 11 38 -2z m-2423 -15 c0 -8 -5 -12 -10 -9 -6 4
-8 11 -5 16 9 14 15 11 15 -7z m1476 4 c4 -7 3 -8 -4 -4 -7 4 -12 1 -12 -7 0
-15 34 -31 59 -27 9 1 12 -4 7 -15 -4 -11 4 -27 26 -46 31 -30 31 -30 4 -18
-18 9 -30 9 -34 3 -11 -17 -42 -24 -60 -15 -9 5 -25 12 -34 15 -10 3 -18 11
-18 17 0 9 4 9 14 0 11 -9 16 -9 21 0 9 13 -15 31 -32 24 -7 -2 -13 -3 -13 -1
0 3 -3 11 -6 19 -4 10 2 15 21 15 18 0 30 -9 41 -29 17 -34 19 -35 21 -9 1 11
-2 18 -7 15 -5 -3 -11 4 -15 15 -3 11 -15 20 -26 20 -10 0 -19 4 -19 10 0 5 6
7 13 4 8 -3 20 2 27 11 15 18 17 18 26 3z m674 2 c-28 -18 26 -58 103 -74 31
-7 37 -36 7 -36 -22 0 -27 15 -7 23 9 4 9 6 0 6 -19 1 -26 -18 -13 -35 11 -12
7 -14 -22 -12 -24 2 -34 7 -31 16 3 6 1 12 -5 12 -6 0 -13 -6 -16 -12 -3 -9
-9 -8 -20 6 -8 10 -21 16 -28 14 -7 -3 5 -16 30 -32 24 -15 42 -29 40 -32 -9
-8 -77 21 -102 43 -25 22 -37 51 -16 38 20 -12 42 3 32 21 -11 20 22 64 47 64
14 0 14 -2 1 -10z m645 -10 c0 -7 -5 -15 -10 -17 -6 -2 -11 6 -11 17 0 11 5
19 11 17 5 -2 10 -10 10 -17z m-1175 -11 c0 -15 -21 -21 -35 -9 -22 19 -18 28
10 22 14 -2 25 -8 25 -13z m-535 1 c-7 -12 -55 -14 -55 -2 0 4 14 8 30 9 18 1
28 -2 25 -7z m445 0 c0 -5 -2 -10 -4 -10 -3 0 -8 5 -11 10 -3 6 -1 10 4 10 6
0 11 -4 11 -10z m1065 0 c-28 -12 -47 -12 -40 0 3 6 18 10 33 9 24 0 25 -1 7
-9z m230 0 c3 -5 1 -10 -4 -10 -6 0 -11 5 -11 10 0 6 2 10 4 10 3 0 8 -4 11
-10z m-2838 -47 c-3 -10 -5 -4 -5 12 0 17 2 24 5 18 2 -7 2 -21 0 -30z m1998
26 c4 -5 -10 -9 -29 -9 -20 0 -36 4 -36 8 0 12 58 13 65 1z m-95 -9 c-8 -5
-24 -9 -35 -9 l-20 0 20 9 c11 5 27 9 35 9 13 1 13 0 0 -9z m2285 -20 c11 -12
27 -18 45 -16 19 2 27 -1 24 -9 -3 -6 7 -17 20 -25 33 -17 22 -34 -17 -26 -31
6 -80 46 -98 79 -13 23 4 22 26 -3z m-2545 1 c0 -10 -25 -21 -48 -21 -12 0 -9
4 8 14 31 17 40 19 40 7z m3010 -108 c0 -7 -17 6 -38 30 -63 70 -69 85 -14 32
29 -27 52 -55 52 -62z m-4370 53 c-5 -5 -6 -15 -3 -22 3 -8 0 -14 -6 -14 -12
0 -15 62 -4 74 10 10 23 -27 13 -38z m2060 24 c0 -5 -9 -10 -21 -10 -11 0 -17
5 -14 10 3 6 13 10 21 10 8 0 14 -4 14 -10z m1995 -11 c22 -10 29 -16 15 -13
-38 10 -87 32 -70 32 8 0 33 -8 55 -19z m424 -27 c0 -24 -1 -25 -9 -7 -12 28
-12 47 0 40 6 -3 10 -18 9 -33z m-1941 5 c2 -12 -1 -15 -12 -11 -19 7 -22 38
-3 32 6 -3 13 -12 15 -21z m-4590 -14 c-10 -2 -28 -2 -40 0 -13 2 -5 4 17 4
22 1 32 -1 23 -4z m1762 -29 c0 -8 -5 -12 -10 -9 -6 4 -8 11 -5 16 9 14 15 11
15 -7z m275 -65 c0 -32 -2 -59 -5 -59 -3 0 -6 -19 -6 -42 -1 -55 -12 -199 -20
-263 -3 -27 -6 -70 -6 -95 0 -31 -2 -36 -5 -16 -4 23 -7 26 -15 15 -7 -10 -8
-6 -4 16 8 40 12 73 20 175 4 47 9 101 11 120 2 19 7 77 11 128 8 102 19 114
19 21z m805 52 c0 -6 -4 -12 -8 -15 -5 -3 -9 1 -9 9 0 8 4 15 9 15 4 0 8 -4 8
-9z m-613 -33 c-3 -7 -5 -2 -5 12 0 14 2 19 5 13 2 -7 2 -19 0 -25z m183 21
c0 -11 -37 -12 -43 -1 -3 4 6 8 19 8 13 1 24 -2 24 -7z m399 -32 c-2 -1 -13
-9 -24 -17 -19 -14 -19 -14 -6 3 7 9 18 17 24 17 6 0 8 -1 6 -3z m-592 -44
c-3 -10 -5 -4 -5 12 0 17 2 24 5 18 2 -7 2 -21 0 -30z m254 20 c25 -13 30 -18
17 -21 -10 -2 -18 -10 -18 -19 0 -14 2 -14 24 0 22 15 25 14 45 -11 l22 -27
-38 -3 c-33 -3 -42 1 -75 37 -57 60 -47 79 23 44z m1609 -23 c-24 -15 -37 -11
-16 5 11 8 22 12 25 9 3 -3 -1 -9 -9 -14z m144 -16 c17 -22 76 -29 76 -8 0 8
5 14 10 14 6 0 10 -6 10 -12 0 -9 25 -13 87 -14 114 -1 167 -9 287 -42 61 -17
101 -33 104 -42 3 -12 2 -12 -8 -3 -7 6 -19 9 -26 6 -8 -3 -14 0 -14 7 0 7 -7
10 -15 7 -8 -4 -17 -2 -21 4 -3 6 -12 8 -20 5 -7 -3 -16 -1 -20 5 -3 6 -12 8
-20 5 -7 -3 -16 -1 -19 5 -4 5 -11 7 -16 4 -5 -4 -15 -3 -21 2 -7 4 -45 8 -85
8 -40 1 -75 4 -79 8 -4 3 -12 4 -17 0 -16 -10 -58 -10 -63 -1 -3 5 -11 5 -17
1 -7 -4 -28 -9 -47 -10 -91 -7 -117 -10 -128 -17 -7 -4 -16 -5 -21 -1 -5 3
-13 1 -16 -5 -4 -6 -15 -8 -26 -5 -11 4 -19 2 -19 -5 0 -7 -8 -10 -20 -7 -11
3 -20 2 -20 -3 0 -4 -20 -11 -45 -14 -25 -4 -45 -12 -45 -17 0 -6 -9 -7 -20
-4 -11 4 -20 2 -20 -4 0 -6 -9 -11 -19 -11 -11 0 -23 -4 -26 -10 -3 -5 -15
-10 -26 -10 -10 0 -19 -5 -19 -11 0 -6 -6 -9 -14 -6 -8 3 -20 -1 -26 -8 -7 -8
-16 -13 -20 -10 -4 3 -13 -2 -20 -10 -7 -8 -19 -15 -26 -15 -8 0 -14 -4 -14
-10 0 -5 -9 -10 -20 -10 -11 0 -20 -4 -20 -10 0 -5 -9 -10 -20 -10 -11 0 -20
-3 -20 -8 0 -7 -30 -25 -62 -38 -10 -3 -18 -10 -18 -15 0 -5 -7 -9 -15 -9 -9
0 -18 -7 -21 -15 -9 -24 -31 -18 -36 10 -4 17 -1 25 9 25 13 0 87 51 103 71 3
3 14 11 25 17 18 10 18 11 -10 12 -23 0 -27 3 -15 10 12 8 10 10 -10 10 -20 0
-22 2 -10 10 8 5 33 9 55 9 29 0 35 -3 21 -8 -21 -8 -9 -22 15 -16 38 9 59 18
59 27 0 5 9 6 20 3 13 -4 22 -1 26 9 3 9 10 14 14 11 4 -3 13 2 20 10 6 7 18
11 26 8 8 -3 14 -1 14 5 0 5 15 13 33 17 32 8 41 10 55 15 4 2 12 4 17 5 9 2
17 4 63 22 9 3 21 5 26 4 4 -1 14 3 21 9 7 6 20 8 29 4 10 -4 16 -1 16 9 0 8
-6 17 -12 20 -9 3 -4 12 12 26 32 28 113 25 134 -5z m-1944 6 c0 -5 -2 -10 -4
-10 -3 0 -8 5 -11 10 -3 6 -1 10 4 10 6 0 11 -4 11 -10z m560 -16 c0 -8 -4
-14 -8 -14 -4 0 -8 9 -8 19 0 11 4 17 8 15 4 -3 8 -12 8 -20z m1140 20 c0 -8
-19 -13 -24 -6 -3 5 1 9 9 9 8 0 15 -2 15 -3z m-100 -39 c-7 -9 -15 -13 -18
-10 -3 2 1 11 8 20 7 9 15 13 18 10 3 -2 -1 -11 -8 -20z m-1620 5 c0 -5 -5
-10 -11 -10 -5 0 -7 5 -4 10 3 6 8 10 11 10 2 0 4 -4 4 -10z m1758 3 c-10 -2
-28 -2 -40 0 -13 2 -5 4 17 4 22 1 32 -1 23 -4z m-1671 -19 c-3 -3 -12 -4 -19
-1 -8 3 -5 6 6 6 11 1 17 -2 13 -5z m1421 -1 c-10 -2 -18 -11 -18 -19 0 -14
-12 -19 -23 -8 -10 10 17 33 38 32 17 0 17 -1 3 -5z m142 3 c0 -2 -7 -9 -15
-16 -13 -11 -14 -10 -9 4 5 14 24 23 24 12z m-1117 -17 c7 0 -6 -7 -28 -15
-25 -9 -54 -12 -80 -8 -22 4 -48 6 -57 6 -10 0 -18 3 -18 8 0 6 33 8 76 5 57
-4 74 -2 68 6 -5 9 -2 10 10 6 10 -4 23 -7 29 -8z m1152 1 c-3 -5 -13 -10 -21
-10 -8 0 -12 5 -9 10 3 6 13 10 21 10 8 0 12 -4 9 -10z m-1575 -33 c0 -4 -4
-6 -8 -3 -5 3 -9 -13 -10 -36 -3 -58 -12 -61 -12 -5 0 55 -13 61 -28 15 l-10
-33 3 40 c2 22 4 43 4 47 1 9 61 -15 61 -25z m205 14 c-3 -6 -16 -11 -28 -11
-21 0 -21 1 3 13 27 15 36 14 25 -2z m1225 9 c0 -5 8 -10 18 -11 9 0 12 -3 5
-5 -7 -3 -9 -12 -6 -20 4 -10 -2 -14 -22 -14 -15 0 -24 4 -20 10 3 6 1 10 -4
10 -6 0 -11 9 -11 20 0 13 7 20 20 20 11 0 20 -4 20 -10z m-247 -7 c-13 -2
-35 -2 -50 0 -16 2 -5 4 22 4 28 0 40 -2 28 -4z m-11 -24 c-23 -4 -48 -11 -55
-15 -8 -5 -7 -2 2 9 9 11 27 17 55 16 l41 -1 -43 -9z m172 -24 c-16 -25 -42
-36 -28 -12 14 23 27 37 35 37 5 0 2 -11 -7 -25z m1156 -15 c0 -5 -13 -1 -30
8 -39 22 -39 35 0 16 17 -9 30 -19 30 -24z m-4892 13 c-10 -2 -26 -2 -35 0
-10 3 -2 5 17 5 19 0 27 -2 18 -5z m3222 -14 c0 -6 -4 -7 -10 -4 -5 3 -10 11
-10 16 0 6 5 7 10 4 6 -3 10 -11 10 -16z m353 14 c-7 -2 -21 -2 -30 0 -10 3
-4 5 12 5 17 0 24 -2 18 -5z m52 -18 c-23 -8 -83 -10 -79 -3 3 4 24 8 47 7 23
0 38 -2 32 -4z m-231 -21 c9 -3 16 -12 16 -20 0 -8 8 -14 18 -14 14 0 15 -2 2
-10 -13 -8 -12 -10 3 -10 10 0 15 -4 12 -10 -3 -5 -15 -10 -26 -10 -11 0 -17
5 -14 10 4 6 -8 10 -27 11 -28 0 -30 2 -13 10 14 7 8 8 -25 4 -50 -7 -46 4 8
22 20 7 27 11 14 9 -12 -2 -20 0 -16 5 6 10 26 12 48 3z m255 2 c-2 -2 -26 -6
-54 -10 -36 -5 -46 -4 -35 3 13 10 99 16 89 7z m-1315 -38 c-3 -4 2 -5 10 -2
10 4 16 1 16 -10 0 -10 -6 -13 -15 -10 -12 5 -15 -3 -17 -32 -4 -90 -6 -114
-18 -214 -14 -124 -36 -166 -25 -50 3 41 10 100 15 130 5 30 10 89 11 130 3
82 7 99 20 79 4 -7 5 -17 3 -21z m4073 0 c-3 -7 -5 -2 -5 12 0 14 2 19 5 13 2
-7 2 -19 0 -25z m-3905 -37 c-18 -41 -34 -47 -25 -8 9 41 12 47 27 47 12 0 12
-6 -2 -39z m-58 -23 c34 -39 46 -69 29 -68 -9 1 -83 94 -83 104 0 16 22 2 54
-36z m1016 12 c0 -5 -10 -10 -22 -10 -19 0 -20 2 -8 10 19 13 30 13 30 0z m25
-34 c15 -15 10 -26 -13 -26 -9 0 -12 3 -9 7 4 3 2 12 -4 20 -16 18 8 18 26 -1z
m-255 -1 c0 -2 -10 -10 -22 -16 -21 -11 -22 -11 -9 4 13 16 31 23 31 12z m5
-35 c-3 -5 -11 -10 -16 -10 -6 0 -7 5 -4 10 3 6 11 10 16 10 6 0 7 -4 4 -10z
m-615 -105 c-7 -9 -15 -13 -17 -11 -7 7 7 26 19 26 6 0 6 -6 -2 -15z m411 -2
c13 -16 12 -17 -3 -4 -17 13 -22 21 -14 21 2 0 10 -8 17 -17z m-1022 -67 c-5
-17 -10 -62 -11 -101 -2 -38 -7 -73 -11 -76 -7 -5 -15 -57 -16 -112 -1 -10 -5
-16 -10 -13 -5 4 -11 3 -14 -1 -2 -5 -2 -1 1 7 2 8 6 43 9 77 3 34 8 61 12 59
3 -2 7 30 8 72 2 43 6 94 9 115 5 34 7 36 19 21 8 -12 10 -27 4 -48z m1038 22
c-3 -8 -6 -5 -6 6 -1 11 2 17 5 13 3 -3 4 -12 1 -19z m-313 -23 c19 -28 104
-74 188 -101 50 -15 61 -16 83 -4 14 7 25 20 25 29 1 21 29 71 30 51 2 -101
-101 -188 -233 -198 -64 -5 -70 -3 -98 24 -17 16 -35 38 -40 49 -10 19 -10 19
5 1 9 -10 22 -16 31 -13 13 6 19 -3 17 -24 -2 -11 56 -32 70 -26 8 3 4 9 -12
15 -25 11 -25 11 7 11 36 1 64 34 45 53 -6 6 -8 17 -5 26 4 10 2 13 -5 8 -7
-4 -12 -4 -12 1 0 4 -17 19 -38 32 -45 30 -92 72 -92 83 0 16 18 7 34 -17z
m374 -10 c-1 -14 -7 -26 -13 -29 -7 -2 -9 9 -7 30 5 38 23 37 20 -1z m-3077
-67 c11 -21 11 -22 -4 -9 -10 7 -17 17 -17 22 0 15 9 10 21 -13z m6189 -10
c18 -22 18 -23 -8 -40 -36 -24 -42 -23 -42 6 0 57 20 70 50 34z m-3935 -85
c-7 -38 -11 -71 -9 -75 2 -3 1 -14 -3 -24 -11 -29 -24 20 -13 53 19 61 19 102
2 106 -10 3 -6 5 9 6 l27 1 -13 -67z m999 51 c3 -8 2 -12 -4 -9 -6 3 -10 10
-10 16 0 14 7 11 14 -7z m1036 -14 c0 -5 -4 -10 -10 -10 -5 0 -10 5 -10 10 0
6 5 10 10 10 6 0 10 -4 10 -10z m-2688 -24 c45 -1 48 -3 48 -28 0 -27 0 -27
-37 -13 -21 7 -56 23 -78 34 -35 19 -36 20 -10 14 17 -3 51 -7 77 -7z m2596 7
c-10 -2 -18 -9 -18 -15 0 -6 -3 -9 -6 -5 -8 8 -177 -53 -186 -67 -5 -7 -8 -7
-8 -1 0 7 -3 7 -8 0 -4 -5 -22 -18 -40 -27 -26 -14 -32 -15 -32 -3 0 8 11 17
25 21 14 3 25 9 25 13 0 5 18 14 40 21 22 7 40 18 40 23 0 6 3 7 7 4 3 -4 12
-2 20 4 7 6 13 9 13 6 0 -3 24 3 53 13 28 10 61 18 72 18 17 0 17 -1 3 -5z
m-945 -36 c11 -4 21 -16 24 -27 3 -11 9 -17 14 -14 17 10 9 -8 -15 -36 -16
-20 -27 -25 -34 -18 -6 6 -16 8 -22 6 -9 -3 -8 -8 3 -20 15 -15 14 -19 -14
-57 -23 -32 -34 -41 -49 -36 -14 4 -20 2 -20 -9 0 -9 6 -16 12 -16 16 0 -41
-54 -60 -57 -8 -1 -19 -6 -25 -12 -18 -18 -28 -12 -21 14 6 23 4 25 -23 21
-36 -4 -55 -14 -48 -26 3 -5 1 -11 -5 -15 -5 -3 -10 -13 -10 -21 0 -9 -12 -31
-26 -49 -14 -19 -25 -37 -25 -42 1 -4 -4 -21 -10 -38 -7 -16 -11 -34 -10 -39
1 -4 -3 -14 -9 -21 -6 -8 -12 -28 -12 -45 -1 -17 -5 -33 -10 -36 -4 -3 -6 -10
-3 -15 4 -5 3 -15 -1 -21 -9 -14 -10 -17 -19 -108 -12 -113 -6 -240 15 -309 5
-19 7 -37 5 -42 -3 -4 -1 -10 4 -13 5 -3 12 -17 15 -30 5 -21 16 -51 32 -86 1
-3 5 -15 9 -27 4 -13 11 -23 15 -23 8 0 23 -38 21 -53 -1 -4 4 -7 9 -7 6 0 10
-5 10 -12 0 -6 -9 -3 -20 7 -11 10 -20 24 -20 31 0 7 -6 17 -13 21 -7 4 -20
18 -29 31 l-15 23 -44 -37 c-24 -19 -51 -49 -61 -65 -9 -17 -18 -27 -21 -22
-10 18 26 74 77 119 l54 48 -33 51 c-38 60 -95 180 -95 200 0 9 6 12 15 9 21
-8 18 6 -6 36 l-21 25 6 -24 c3 -17 2 -21 -6 -13 -11 11 -3 62 11 62 7 0 18
-20 39 -70 7 -18 10 15 10 128 1 123 4 159 17 178 9 14 13 29 10 34 -3 5 -1
11 4 15 6 3 8 12 5 19 -3 8 -1 17 5 20 7 5 7 12 0 24 -8 13 -6 28 7 57 18 40
20 47 22 76 1 9 15 30 31 47 29 30 48 88 38 114 -3 7 -6 3 -6 -9 -1 -12 -5
-24 -10 -28 -12 -7 -26 59 -17 80 3 9 2 13 -4 10 -6 -3 -10 5 -10 19 0 14 4
26 9 26 15 0 26 -23 23 -45 -2 -17 -1 -18 8 -5 9 12 10 11 5 -7 -7 -24 9 -32
19 -10 3 6 3 -1 0 -18 l-5 -30 16 28 c9 15 20 27 25 27 6 0 10 8 10 18 1 15 2
15 15 -2 19 -24 30 -15 16 13 -7 13 -8 22 -1 26 5 3 10 1 10 -4 0 -6 7 -11 15
-11 17 0 20 16 5 25 -18 11 -11 23 10 18 14 -4 20 0 20 11 0 9 6 16 13 16 6 0
21 14 32 30 22 33 43 42 23 10 -10 -16 -10 -24 0 -40 10 -17 10 -20 -3 -20 -8
0 -15 -4 -15 -10 0 -5 -5 -10 -12 -10 -9 0 -9 3 0 12 14 14 16 28 2 28 -5 0
-14 -9 -21 -21 -16 -30 4 -48 32 -31 12 8 24 10 27 6 4 -4 1 -9 -5 -11 -18 -6
-16 -23 2 -23 17 0 34 30 27 49 -3 10 0 12 12 8 11 -5 20 1 28 18 15 33 4 55
-29 55 -27 1 -27 1 -8 16 16 12 21 12 30 1 5 -7 18 -16 28 -20z m-613 -11 c0
-2 -7 -6 -15 -10 -8 -3 -15 -1 -15 4 0 6 7 10 15 10 8 0 15 -2 15 -4z m566
-21 c16 -12 16 -14 3 -15 -9 0 -22 7 -29 15 -16 19 0 19 26 0z m332 -10 c-7
-16 -15 -22 -21 -16 -6 6 -4 15 4 25 21 23 30 19 17 -9z m-1138 -12 c30 -9 61
-17 69 -20 8 -2 12 -5 10 -8 -5 -4 -162 33 -194 46 -30 13 50 0 115 -18z
m3587 1 c16 -15 29 -21 31 -14 5 15 31 -20 32 -44 0 -15 -3 -16 -15 -6 -13 11
-15 8 -15 -21 0 -47 14 -68 29 -43 15 26 14 13 -5 -61 -14 -56 -18 -62 -31
-50 -20 21 -33 19 -33 -5 0 -22 -50 -104 -58 -96 -2 3 1 19 7 37 13 38 14 52
3 45 -5 -3 -16 9 -26 25 -17 28 -19 29 -31 12 -12 -16 -11 -18 6 -21 28 -5 23
-22 -7 -22 -14 0 -23 -4 -19 -10 3 -5 15 -10 26 -10 10 0 19 -4 19 -8 0 -17
-13 -21 -31 -11 -15 7 -17 6 -13 -5 7 -18 32 -28 47 -20 9 5 9 4 1 -6 -18 -18
-52 -3 -71 33 -22 42 -31 203 -13 220 10 9 11 9 6 0 -4 -7 -3 -13 3 -13 6 0 8
-7 5 -15 -8 -19 5 -19 30 0 19 14 13 41 -6 29 -7 -5 -8 -2 -4 5 5 7 0 18 -10
27 -11 8 -14 14 -9 13 6 -1 21 3 35 10 25 11 25 11 -5 7 l-30 -4 24 19 c26 21
53 18 84 -9 9 -8 20 -12 24 -8 4 4 -3 16 -17 26 -20 15 -21 20 -8 20 9 0 29
-12 45 -26z m-3431 -37 c-3 -12 -7 -53 -10 -92 -8 -99 -15 -166 -21 -195 -3
-14 -8 -43 -10 -65 -3 -22 -10 -67 -15 -100 -13 -79 -13 -76 13 -70 31 7 53
-14 61 -60 4 -22 9 -49 12 -60 3 -12 -12 -1 -40 30 -37 40 -46 46 -47 30 0
-15 -5 -11 -16 14 -8 19 -12 42 -10 52 4 15 -5 20 -52 30 -31 7 -64 16 -73 21
-12 6 -18 5 -18 -2 0 -6 -5 -8 -10 -5 -6 4 -7 12 -4 18 4 7 4 9 -1 5 -5 -5
-22 3 -39 16 -17 13 -40 26 -51 30 -12 3 -28 22 -37 42 -15 33 -15 39 -2 59
20 31 2 42 -31 18 -13 -10 -25 -21 -25 -25 0 -3 -9 -4 -19 -1 -11 3 -17 11
-15 17 3 7 -2 19 -11 26 -8 7 -15 9 -15 6 0 -4 -7 0 -16 8 -18 18 -34 21 -34
5 0 -5 -5 -7 -10 -4 -6 4 -7 11 -4 17 5 7 1 9 -9 5 -9 -3 -17 -3 -19 1 -4 10
-71 57 -80 57 -3 0 -10 4 -15 9 -5 5 -3 6 5 2 7 -4 12 -1 12 9 0 9 -4 14 -9
11 -5 -3 -20 3 -32 15 l-24 20 23 -11 c13 -6 28 -10 34 -8 15 5 -58 48 -82 48
-10 0 -22 5 -25 11 -4 6 -13 8 -21 5 -8 -3 -14 -2 -14 3 0 5 -20 18 -44 29
-24 12 -46 27 -49 35 -5 13 -1 13 21 2 41 -19 82 -27 82 -15 0 15 27 12 55 -6
13 -9 29 -13 34 -10 5 4 12 2 16 -4 4 -6 11 -8 16 -5 21 14 42 -27 41 -81 0
-44 3 -53 13 -44 8 6 16 7 19 2 3 -5 16 -8 28 -7 13 1 31 3 41 4 10 0 16 5 13
10 -6 9 46 -8 79 -26 17 -9 39 -10 78 -4 5 0 6 5 2 10 -3 5 -1 12 5 16 5 3 10
25 11 48 1 55 13 95 22 80 9 -15 4 -103 -5 -103 -5 0 -8 -5 -8 -11 0 -5 6 -7
13 -3 9 6 8 3 -1 -8 -7 -9 -15 -43 -17 -75 -1 -32 -6 -71 -10 -87 -7 -24 -5
-28 8 -23 8 3 23 -1 34 -8 10 -8 26 -15 37 -15 16 0 17 2 5 17 -13 15 -12 16
6 8 11 -4 30 -8 42 -8 14 1 20 -3 16 -10 -3 -6 -1 -7 6 -3 6 4 18 2 26 -4 10
-8 15 -9 15 -2 0 7 10 6 26 -3 23 -12 29 -11 44 3 27 26 37 66 43 187 2 22 6
46 10 53 5 6 6 16 3 21 -3 4 -1 22 4 40 5 17 5 31 0 31 -4 0 -3 13 3 29 12 33
30 32 23 -2z m954 13 c0 -25 26 -26 53 -2 17 14 16 11 -3 -15 -13 -18 -25 -33
-27 -33 -9 0 -51 56 -46 62 9 15 23 8 23 -12z m642 -25 c5 -41 -7 -47 -15 -8
-5 25 -2 43 7 43 2 0 6 -16 8 -35z m1925 13 c-3 -8 -6 -5 -6 6 -1 11 2 17 5
13 3 -3 4 -12 1 -19z m-2187 -8 c0 -5 -2 -10 -4 -10 -3 0 -8 5 -11 10 -3 6 -1
10 4 10 6 0 11 -4 11 -10z m-20 -18 c0 -4 -17 -18 -37 -32 -50 -33 -185 -171
-203 -207 -22 -43 -102 -167 -117 -179 -7 -6 -27 -42 -44 -79 -85 -188 -79
-448 13 -578 11 -16 18 -30 16 -33 -3 -2 -27 28 -54 67 -55 80 -54 78 -58 299
-2 177 16 272 77 396 62 128 90 166 116 157 12 -4 13 -2 3 4 -10 8 -3 20 30
51 48 47 54 49 80 25 16 -15 18 -15 18 0 0 11 5 14 15 11 11 -5 13 -2 9 10 -5
12 -2 15 10 10 12 -5 15 -2 10 10 -5 12 -2 15 12 9 14 -5 16 -3 11 11 -5 14
-3 17 8 12 9 -3 15 0 15 11 0 13 2 14 17 2 15 -12 16 -12 10 5 -6 14 -4 17 8
12 9 -3 15 0 15 10 0 8 5 12 10 9 6 -3 10 -9 10 -13z m480 -1 c-15 -29 -30
-35 -30 -12 0 17 11 28 33 30 4 1 3 -8 -3 -18z m-4860 -88 c22 -48 39 -91 37
-97 -2 -5 -13 10 -25 35 -25 52 -62 149 -57 149 2 0 22 -39 45 -87z m4578 63
c2 -10 0 -22 -6 -28 -6 -6 -8 0 -6 17 2 20 -1 25 -12 21 -9 -3 -12 -1 -9 5 10
15 29 6 33 -15z m-695 -20 c-10 -13 -19 -23 -21 -21 -7 6 19 45 29 45 5 0 2
-11 -8 -24z m-1068 4 c3 -6 -1 -7 -9 -4 -18 7 -21 14 -7 14 6 0 13 -4 16 -10z
m45 0 c0 -5 -8 -10 -17 -10 -15 0 -16 2 -3 10 19 12 20 12 20 0z m1687 -12
c-3 -8 -6 -5 -6 6 -1 11 2 17 5 13 3 -3 4 -12 1 -19z m-1632 -8 l20 -9 -20 0
c-11 0 -27 4 -35 9 -13 9 -13 10 0 9 8 0 24 -4 35 -9z m3855 -47 c-10 -16 -11
-15 -6 7 3 14 6 32 7 40 1 8 4 5 6 -7 2 -12 -1 -30 -7 -40z m-2304 30 c22 -29
15 -40 -7 -13 l-21 25 6 -30 c6 -28 5 -29 -9 -11 -19 25 -34 12 -17 -14 7 -11
9 -20 4 -20 -4 0 -13 10 -21 22 -12 19 -11 23 10 39 30 23 38 23 55 2z m804 4
c0 -2 -10 -12 -22 -23 l-23 -19 19 23 c18 21 26 27 26 19z m-2273 -13 c-3 -3
-12 -4 -19 -1 -8 3 -5 6 6 6 11 1 17 -2 13 -5z m2273 -19 c-27 -29 -9 -35 24
-8 19 16 19 15 -1 -6 -14 -16 -27 -22 -39 -17 -15 6 -15 9 6 31 13 14 26 25
28 25 3 0 -5 -11 -18 -25z m-1290 0 c0 -8 7 -15 15 -15 13 0 14 -4 5 -20 -6
-11 -15 -20 -20 -20 -14 0 -32 39 -26 56 7 19 26 18 26 -1z m-1117 -10 c-3 -9
-8 -14 -10 -11 -3 3 -2 9 2 15 9 16 15 13 8 -4z m241 6 c4 -5 -3 -7 -14 -4
-23 6 -26 13 -6 13 8 0 17 -4 20 -9z m2240 -40 c3 -4 -3 -16 -14 -26 -20 -19
-51 -14 -49 7 0 10 2 10 6 1 6 -17 28 -16 42 1 10 11 8 15 -6 19 -16 4 -16 5
-1 6 9 0 19 -3 22 -8z m-994 -26 c23 -25 23 -26 5 -43 -18 -16 -18 -16 -5 1
12 17 11 18 -12 12 -30 -8 -42 6 -33 35 8 26 17 25 45 -5z m-390 0 c11 -13 10
-14 -4 -9 -9 3 -16 10 -16 15 0 13 6 11 20 -6z m-870 -10 c0 -8 -2 -15 -4 -15
-2 0 -6 7 -10 15 -3 8 -1 15 4 15 6 0 10 -7 10 -15z m774 -36 c-3 -5 -10 -7
-15 -4 -5 4 -9 1 -9 -5 0 -6 -4 -8 -10 -5 -21 13 -10 32 15 27 14 -2 22 -8 19
-13z m-3619 0 c16 0 17 -2 5 -9 -8 -5 -18 -6 -22 -4 -4 3 -8 1 -8 -5 0 -7 -10
-6 -30 0 -41 15 -39 33 3 25 17 -4 41 -7 52 -7z m3325 -14 c0 -2 -10 -10 -22
-16 -21 -11 -22 -11 -9 4 13 16 31 23 31 12z m700 -38 c0 -11 -34 8 -51 29
-12 16 -10 16 19 -1 17 -11 32 -23 32 -28z m1120 28 c0 -8 -2 -15 -4 -15 -2 0
-6 7 -10 15 -3 8 -1 15 4 15 6 0 10 -7 10 -15z m-5100 -5 c0 -5 -5 -10 -11
-10 -5 0 -7 5 -4 10 3 6 8 10 11 10 2 0 4 -4 4 -10z m2984 -11 c-19 -22 -19
-22 5 -14 14 4 21 3 18 -2 -4 -6 -2 -39 4 -75 18 -117 -18 -191 -71 -144 -31
27 -60 78 -60 103 1 33 44 102 80 127 44 31 48 31 24 5z m596 0 c0 -5 -4 -9
-10 -9 -5 0 -10 7 -10 16 0 8 5 12 10 9 6 -3 10 -10 10 -16z m1486 -1 c-1 -24
-27 -32 -32 -10 -1 7 0 8 3 2 7 -15 26 -12 20 4 -3 8 -3 17 0 20 10 9 10 8 9
-16z m-1856 -14 c0 -2 -7 -4 -15 -4 -8 0 -15 4 -15 10 0 5 7 7 15 4 8 -4 15
-8 15 -10z m-3145 -44 c50 -15 130 -40 179 -55 l90 -27 -33 -15 c-31 -15 -37
-14 -154 21 -221 68 -277 88 -277 97 0 6 9 7 21 4 16 -5 19 -4 14 5 -10 17 41
7 160 -30z m130 22 c-3 -3 -11 0 -18 7 -9 10 -8 11 6 5 10 -3 15 -9 12 -12z
m4668 -65 c5 -37 4 -48 -6 -44 -7 2 -19 -15 -30 -42 -9 -25 -15 -35 -12 -21 3
14 11 63 17 109 12 89 19 88 31 -2z m-4633 63 c0 -5 -2 -10 -4 -10 -3 0 -8 5
-11 10 -3 6 -1 10 4 10 6 0 11 -4 11 -10z m4900 6 c0 -3 -4 -8 -10 -11 -5 -3
-10 -1 -10 4 0 6 5 11 10 11 6 0 10 -2 10 -4z m-3997 -13 c-7 -2 -19 -2 -25 0
-7 3 -2 5 12 5 14 0 19 -2 13 -5z m-60 -10 c-7 -2 -19 -2 -25 0 -7 3 -2 5 12
5 14 0 19 -2 13 -5z m2831 -6 c14 -8 23 -16 20 -19 -7 -8 -64 14 -64 24 0 12
14 10 44 -5z m-2877 -3 c-3 -3 -12 -4 -19 -1 -8 3 -5 6 6 6 11 1 17 -2 13 -5z
m5333 -21 c0 -13 -3 -13 -15 -3 -8 7 -12 16 -9 21 8 13 24 1 24 -18z m-5402
10 c-10 -2 -26 -2 -35 0 -10 3 -2 5 17 5 19 0 27 -2 18 -5z m2547 -3 c-3 -5
-10 -10 -16 -10 -5 0 -9 5 -9 10 0 6 7 10 16 10 8 0 12 -4 9 -10z m1595 -17
c-8 -3 -22 -11 -30 -17 -13 -10 -13 -9 -1 7 7 9 21 17 30 16 13 0 14 -1 1 -6z
m27 -18 c-4 -8 -12 -15 -19 -14 -10 0 -10 2 0 6 6 2 12 12 12 21 0 8 3 13 6 9
4 -3 4 -13 1 -22z m-4444 -2 c-7 -2 -21 -2 -30 0 -10 3 -4 5 12 5 17 0 24 -2
18 -5z m2805 -29 c-4 -3 -12 5 -18 18 -12 22 -12 22 6 6 10 -10 15 -20 12 -24z
m1531 -109 c-7 -38 -18 -81 -26 -95 l-14 -25 7 25 c3 14 9 75 11 135 6 109 6
110 20 70 11 -33 12 -52 2 -110z m-4406 128 c-7 -2 -19 -2 -25 0 -7 3 -2 5 12
5 14 0 19 -2 13 -5z m5804 1 c-3 -3 -12 -4 -19 -1 -8 3 -5 6 6 6 11 1 17 -2
13 -5z m-2594 -31 c-5 -15 -3 -16 8 -5 7 6 19 12 26 12 15 0 18 -26 3 -35 -6
-3 -7 1 -4 9 7 19 -7 21 -24 4 -15 -15 -26 -4 -19 17 9 21 18 19 10 -2z m1307
-23 c-8 -5 -23 -10 -32 -10 -10 0 -18 -4 -18 -10 0 -5 -4 -10 -10 -10 -5 0
-10 4 -10 9 0 10 45 29 70 30 13 1 13 0 0 -9z m1067 -32 c-3 -8 -6 -5 -6 6 -1
11 2 17 5 13 3 -3 4 -12 1 -19z m213 18 c0 -3 -4 -8 -10 -11 -5 -3 -10 -1 -10
4 0 6 5 11 10 11 6 0 10 -2 10 -4z m-2945 -16 c3 -5 1 -10 -4 -10 -6 0 -11 5
-11 10 0 6 2 10 4 10 3 0 8 -4 11 -10z m86 -46 l-9 -39 -1 36 c-1 20 2 39 6
42 12 13 13 0 4 -39z m2845 -1 c-11 -11 -17 4 -9 23 7 18 8 18 11 1 2 -10 1
-21 -2 -24z m-5786 6 c0 -6 -5 -19 -10 -29 -7 -13 -7 -21 0 -25 12 -7 4 -25
-11 -25 -5 0 -9 11 -9 24 0 14 -5 28 -10 31 -8 5 -7 11 1 21 13 16 39 19 39 3z
m4191 -28 c-13 -24 -14 -71 -2 -71 20 0 -3 -41 -34 -60 -18 -11 -35 -20 -39
-20 -17 0 -2 52 29 100 19 30 38 64 42 75 3 11 8 15 10 8 2 -7 0 -21 -6 -32z
m1374 -67 c-10 -46 -20 -82 -23 -79 -3 2 4 46 14 96 10 50 20 86 22 79 2 -6
-4 -50 -13 -96z m-2355 88 c0 -10 -36 -9 -46 1 -4 4 5 7 19 7 15 0 27 -4 27
-8z m1283 -42 c-3 -11 -9 -18 -13 -15 -5 3 -11 -1 -13 -7 -3 -7 -6 -1 -6 15
-1 20 4 27 18 27 14 0 18 -5 14 -20z m1287 -2 c0 -18 -2 -20 -9 -8 -6 8 -7 18
-5 22 9 14 14 9 14 -14z m-1430 -2 c0 -15 -20 -44 -20 -29 0 6 -2 18 -5 26 -4
8 0 14 10 14 8 0 15 -5 15 -11z m-4873 -53 c-9 -9 -20 -13 -24 -9 -4 4 1 14
11 22 25 18 35 8 13 -13z m4734 -63 c-16 -17 -32 -38 -35 -48 -6 -18 -46 -48
-46 -34 0 8 38 71 83 139 l22 33 3 -30 c3 -23 -4 -38 -27 -60z m219 10 c5 0
10 5 12 12 3 7 7 6 11 -5 5 -14 0 -17 -24 -17 -24 0 -30 4 -25 16 3 9 7 21 7
27 1 7 4 2 6 -10 2 -13 8 -23 13 -23z m-1260 14 c0 -2 -11 -4 -25 -4 -14 0
-25 4 -25 9 0 4 11 6 25 3 14 -2 25 -6 25 -8z m1194 -11 c-13 -56 -67 -159
-102 -195 -43 -45 -62 -50 -33 -9 12 16 21 33 21 38 0 4 15 25 34 46 19 22 44
63 56 93 24 59 34 70 24 27z m-110 -25 c-16 -30 -16 -32 -1 -19 17 14 23 3 10
-15 -5 -5 2 2 14 16 28 30 29 25 6 -27 -26 -55 -59 -99 -96 -124 -18 -12 -26
-16 -19 -9 13 15 17 50 5 50 -3 0 -15 -8 -26 -17 -16 -15 -18 -15 -11 -2 13
22 128 179 131 179 2 0 -4 -15 -13 -32z m1275 -77 c-6 -34 -14 -60 -16 -57 -2
2 1 32 8 65 6 34 14 60 16 57 2 -2 -1 -32 -8 -65z m-2369 34 c-7 -8 -18 -15
-24 -15 -6 0 -2 7 8 15 25 19 32 19 16 0z m2581 -91 c-6 -20 -7 -42 -3 -48 4
-6 10 5 14 24 l6 35 -1 -34 c-2 -24 -7 -35 -19 -37 -21 -3 -21 -4 -5 88 9 54
13 64 15 41 2 -18 -1 -49 -7 -69z m-2621 66 c0 -5 -7 -10 -16 -10 -8 0 -12 5
-9 10 3 6 10 10 16 10 5 0 9 -4 9 -10z m2647 -22 c-3 -7 -5 -2 -5 12 0 14 2
19 5 13 2 -7 2 -19 0 -25z m-2602 12 c3 -5 -1 -10 -9 -10 -8 0 -18 5 -21 10
-3 6 1 10 9 10 8 0 18 -4 21 -10z m1346 -23 c-10 -9 -11 -8 -5 6 3 10 9 15 12
12 3 -3 0 -11 -7 -18z m-5016 -23 c151 -23 186 -34 90 -28 -90 6 -242 32 -265
46 -17 10 16 6 175 -18z m4902 2 c9 -8 -5 -36 -18 -36 -9 0 -9 4 0 14 8 9 8
16 2 20 -5 4 -13 0 -18 -8 -5 -10 -13 -12 -22 -7 -20 13 -5 29 25 25 14 -1 28
-5 31 -8z m1300 -18 c-3 -7 -5 -2 -5 12 0 14 2 19 5 13 2 -7 2 -19 0 -25z
m-1215 -10 c-32 -55 -100 -135 -114 -135 -9 0 7 29 40 73 30 41 59 71 65 67 6
-4 8 0 5 9 -4 8 0 15 8 15 10 0 10 -7 -4 -29z m1022 -47 c-4 -17 -9 -30 -11
-27 -3 2 -2 19 2 36 9 41 17 33 9 -9z m-1183 -27 c9 -11 7 -14 -9 -14 -12 0
-24 -5 -28 -12 -5 -7 -10 -4 -16 11 -4 13 -6 27 -3 31 7 11 42 1 56 -16z
m1404 6 c-3 -5 -11 -10 -16 -10 -6 0 -7 5 -4 10 3 6 11 10 16 10 6 0 7 -4 4
-10z m-240 -72 c-4 -24 -8 -82 -10 -129 -3 -85 -17 -132 -48 -157 -12 -10 -5
-22 44 -72 33 -33 59 -63 59 -65 0 -6 22 -33 68 -85 17 -21 32 -45 32 -54 0
-17 -16 -22 -22 -7 -3 10 -42 58 -118 147 -25 29 -55 67 -68 84 -15 19 -33 30
-50 31 -17 1 -21 3 -9 6 9 2 24 17 32 33 13 25 13 29 -1 40 -8 7 -12 15 -9 18
2 3 11 -1 20 -8 17 -14 20 -10 34 60 21 101 45 200 49 200 3 0 1 -19 -3 -42z
m250 -27 c-4 -28 -11 -51 -16 -51 -4 0 -6 7 -3 15 4 8 0 23 -7 32 -12 15 -12
16 4 10 11 -4 17 -2 16 6 -3 24 1 50 7 44 3 -3 3 -29 -1 -56z m-3084 -14 c-10
-9 -11 -8 -5 6 3 10 9 15 12 12 3 -3 0 -11 -7 -18z m1506 -24 c7 -15 11 -29 8
-32 -9 -8 -46 39 -40 49 10 16 19 11 32 -17z m-1562 -3 c-27 -12 -43 -12 -25
0 8 5 22 9 30 9 10 0 8 -3 -5 -9z m2720 -40 c10 -11 15 -20 10 -20 -4 0 -2 -7
5 -15 10 -12 10 -19 2 -27 -8 -8 -13 -6 -18 8 -4 10 -15 26 -24 34 -16 14 -17
40 -1 40 4 0 16 -9 26 -20z m400 -22 c-4 -24 -9 -56 -11 -73 -6 -36 -14 -45
-15 -19 -2 31 2 57 16 107 11 41 18 32 10 -15z m-567 -24 c28 -8 10 -25 -25
-22 -27 2 -39 8 -41 21 -4 17 12 18 66 1z m-1993 -24 c10 -11 16 -20 13 -20
-3 0 -13 9 -23 20 -10 11 -16 20 -13 20 3 0 13 -9 23 -20z m1009 5 c-4 -8 -11
-15 -16 -15 -6 0 -5 6 2 15 7 8 14 15 16 15 2 0 1 -7 -2 -15z m-467 -19 c0 -8
-6 -12 -15 -9 -12 5 -12 2 -2 -16 14 -27 6 -39 -15 -21 -18 15 -19 32 -3 48
16 16 35 15 35 -2z m613 -20 c0 -2 -8 -10 -17 -17 -16 -13 -17 -12 -4 4 13 16
21 21 21 13z m727 -22 c-3 -3 -12 -4 -19 -1 -8 3 -5 6 6 6 11 1 17 -2 13 -5z
m-40 -10 c-3 -3 -12 -4 -19 -1 -8 3 -5 6 6 6 11 1 17 -2 13 -5z m697 -26 c-3
-12 -8 -34 -9 -48 -8 -82 -19 -140 -25 -133 -5 4 -5 30 0 58 4 27 7 69 6 92
-2 39 4 50 27 52 5 1 5 -9 1 -21z m-6159 -6 c-3 -3 -11 0 -18 7 -9 10 -8 11 6
5 10 -3 15 -9 12 -12z m4697 6 c-6 -7 -25 -22 -44 -32 -39 -23 -32 -13 14 20
38 26 45 29 30 12z m965 -8 c10 0 29 -9 43 -20 25 -19 25 -20 3 -20 -12 0 -25
-4 -28 -10 -10 -17 -25 -11 -37 15 -9 20 -16 23 -36 18 -22 -5 -23 -4 -13 16
10 17 16 19 31 11 10 -5 27 -10 37 -10z m-5627 0 c0 -5 -2 -10 -4 -10 -3 0 -8
5 -11 10 -3 6 -1 10 4 10 6 0 11 -4 11 -10z m87 -5 c0 -10 -6 -14 -14 -10 -8
3 -22 6 -31 6 -9 1 -3 5 13 9 17 4 30 8 31 9 0 0 1 -6 1 -14z m2776 7 c-10 -6
-10 -12 1 -28 8 -10 19 -20 25 -20 6 -1 13 -3 16 -4 3 -1 10 -3 17 -4 23 -2
20 -26 -4 -26 -44 0 -96 -67 -89 -112 0 -5 -3 -8 -7 -8 -11 0 -82 123 -82 142
0 23 40 66 46 51 4 -10 11 -10 27 2 12 8 31 15 42 15 14 0 16 -3 8 -8z m2441
-7 c-4 -8 -10 -13 -14 -10 -5 3 -11 1 -15 -5 -3 -5 -11 -10 -16 -10 -23 0 13
29 48 39 1 1 0 -6 -3 -14z m221 5 c-3 -5 -11 -10 -16 -10 -6 0 -7 5 -4 10 3 6
11 10 16 10 6 0 7 -4 4 -10z m-420 -20 c3 -5 -1 -10 -10 -10 -14 0 -14 -2 -3
-14 8 -8 23 -16 34 -19 12 -3 7 -5 -13 -6 -17 0 -35 4 -38 9 -4 6 -11 8 -16 5
-10 -7 -13 28 -2 38 10 10 41 8 48 -3z m202 -41 c-13 -20 -32 -25 -42 -10 -8
14 23 41 40 35 11 -5 12 -10 2 -25z m253 21 c11 -7 5 -9 -22 -7 -20 1 -34 5
-31 10 6 10 35 9 53 -3z m-990 -14 c0 -2 -7 -7 -16 -10 -8 -3 -12 -2 -9 4 6
10 25 14 25 6z m905 -6 c-27 -12 -43 -12 -25 0 8 5 22 9 30 9 10 0 8 -3 -5 -9z
m-5428 -46 c-3 -3 -12 -4 -19 -1 -8 3 -5 6 6 6 11 1 17 -2 13 -5z m73 -13 c0
-4 -11 -6 -25 -3 -14 2 -25 6 -25 8 0 2 11 4 25 4 14 0 25 -4 25 -9z m2832
-16 c9 -21 8 -28 -8 -46 -17 -19 -19 -19 -30 -4 -9 12 -10 25 -2 46 12 36 25
37 40 4z m217 -21 c12 8 68 -40 58 -50 -4 -4 -17 2 -30 14 -13 12 -28 22 -34
22 -6 0 -17 8 -24 18 -13 15 -12 16 3 4 9 -8 21 -11 27 -8z m-269 -28 c0 -11
-19 -15 -25 -6 -3 5 1 10 9 10 9 0 16 -2 16 -4z m1663 -28 c37 -17 46 -54 20
-80 -20 -19 -21 -19 -48 -2 -26 17 -27 18 -6 26 29 10 28 40 -1 36 -16 -2 -26
-14 -34 -36 -10 -32 -12 -33 -27 -17 -24 24 -21 37 16 62 38 26 45 27 80 11z
m1518 -29 l-10 -24 0 26 c-1 14 2 29 6 33 12 12 14 -9 4 -35z m-6154 -35 c-3
-3 -12 -4 -19 -1 -8 3 -5 6 6 6 11 1 17 -2 13 -5z m183 -35 c0 -21 -20 -25
-38 -7 -17 17 -15 26 6 31 24 5 32 -1 32 -24z m40 11 c8 -5 12 -11 9 -14 -3
-3 -14 1 -25 9 -21 16 -8 20 16 5z m-723 -32 c-3 -8 -6 -5 -6 6 -1 11 2 17 5
13 3 -3 4 -12 1 -19z m6596 -35 c10 -13 23 -20 29 -17 7 4 8 2 4 -4 -10 -16
-38 0 -61 34 -20 32 1 22 28 -13z m-4259 1 c20 -8 21 -24 2 -24 -8 0 -16 7
-20 15 -6 17 -4 18 18 9z m-1630 -150 c7 -19 2 -18 -19 6 -16 17 -16 20 -3 15
9 -4 19 -13 22 -21z m66 -10 c0 -2 -9 0 -20 6 -11 6 -20 13 -20 16 0 2 9 0 20
-6 11 -6 20 -13 20 -16z m1816 -42 c7 -5 7 -14 -2 -30 -11 -23 -12 -23 -16 7
-5 32 -1 36 18 23z m-1826 -125 c0 -4 -17 4 -37 18 -21 14 -43 25 -50 25 -7 0
-13 5 -13 11 0 5 22 -2 50 -18 27 -15 50 -32 50 -36z m2047 41 c-3 -8 -6 -5
-6 6 -1 11 2 17 5 13 3 -3 4 -12 1 -19z m2328 -88 c-5 -8 -11 -8 -17 -2 -6 6
-7 16 -3 22 5 8 11 8 17 2 6 -6 7 -16 3 -22z m-4505 -20 c13 -8 13 -10 -2 -10
-9 0 -20 5 -23 10 -8 13 5 13 25 0z"/>
<path d="M4074 5898 c1 -40 -3 -109 -7 -153 -6 -54 -5 -77 1 -70 14 13 28 295
15 295 -5 0 -9 -32 -9 -72z"/>
<path d="M4063 5580 c0 -25 2 -35 4 -22 2 12 2 32 0 45 -2 12 -4 2 -4 -23z"/>
<path d="M3565 5219 c-4 -6 -1 -15 6 -20 11 -7 10 -9 -3 -9 -10 0 -18 7 -18
15 0 19 -46 20 -57 2 -12 -20 -42 -28 -62 -18 -12 7 -26 5 -44 -4 -22 -11 -28
-11 -38 1 -16 20 -99 19 -99 -1 0 -20 -26 -19 -34 1 -3 8 -11 12 -17 9 -7 -5
-4 -13 7 -26 10 -11 12 -19 6 -19 -7 0 -12 3 -12 8 0 15 -47 29 -65 19 -13 -7
-16 -6 -11 2 8 12 -16 16 -28 4 -12 -12 -40 -12 -48 0 -6 9 -10 8 -17 -2 -7
-11 -13 -12 -23 -5 -7 6 -29 9 -48 7 -19 -2 -52 -5 -72 -6 -38 -2 -49 -11 -25
-20 7 -4 8 -6 1 -6 -6 -1 -17 5 -23 13 -11 14 -57 11 -67 -5 -2 -4 -15 -5 -27
0 -31 11 -160 6 -165 -7 -2 -6 -10 -8 -18 -5 -8 3 -14 0 -14 -6 0 -19 -20 -12
-20 7 -1 16 -2 15 -15 -2 -12 -16 -17 -17 -30 -6 -12 10 -21 10 -40 2 -18 -8
-33 -8 -56 0 -28 10 -33 8 -56 -18 -20 -24 -22 -25 -13 -6 7 13 10 25 8 27 -7
8 -48 -7 -48 -17 0 -6 -6 -6 -14 1 -20 16 -316 4 -334 -13 -3 -3 0 -6 6 -6 7
0 12 -8 11 -17 0 -11 -3 -13 -6 -5 -7 17 -23 15 -23 -3 0 -8 -5 -15 -10 -15
-6 0 -10 7 -8 16 2 10 -2 19 -8 21 -14 5 -15 -28 -1 -45 7 -9 5 -17 -9 -26
-24 -18 -39 -9 -22 12 11 13 10 15 -10 9 -18 -4 -22 -2 -18 9 3 8 -1 14 -9 14
-19 0 -19 -14 -1 -30 8 -6 12 -18 9 -26 -4 -12 -8 -12 -21 -2 -13 11 -15 9
-10 -15 4 -18 1 -26 -6 -24 -6 2 -12 13 -14 25 -4 24 -17 29 -25 10 -3 -7 -6
-3 -6 9 -1 17 -5 21 -18 16 -27 -9 -41 -32 -35 -55 5 -20 6 -21 12 -3 5 15 8
16 12 4 3 -8 -1 -24 -9 -34 -11 -16 -16 -17 -22 -7 -6 10 -10 8 -14 -8 -4 -15
2 -30 18 -46 13 -13 25 -31 27 -40 2 -10 8 -19 15 -21 7 -3 10 4 6 19 -4 22
-4 22 11 4 9 -11 16 -26 16 -34 0 -7 5 -10 10 -7 6 4 17 1 25 -5 12 -10 15 -9
15 4 0 9 4 16 10 16 5 0 6 -7 3 -17 -4 -11 -3 -14 5 -9 7 4 12 1 12 -8 0 -10
9 -16 24 -16 13 0 32 -3 42 -7 11 -4 15 -3 11 4 -4 6 0 14 9 17 23 9 25 8 22
-8 -2 -8 2 -14 7 -13 6 1 11 7 11 12 1 6 2 15 3 20 1 6 6 2 12 -8 6 -9 7 -26
4 -37 -5 -15 -2 -20 10 -20 13 0 16 6 11 25 -6 24 -5 25 21 19 16 -4 30 -8 31
-10 2 -1 13 7 24 18 18 18 18 21 4 37 -9 10 -16 27 -16 39 0 26 -19 39 -31 21
-4 -7 -11 -10 -16 -6 -4 5 -1 12 6 16 8 5 11 17 7 28 -7 23 19 51 60 62 33 9
44 31 15 31 -12 0 -21 -6 -22 -12 0 -12 -17 18 -18 33 -1 4 17 7 39 7 35 1 40
-2 35 -18 -8 -26 5 -30 63 -21 39 6 55 5 63 -5 6 -8 15 -11 20 -8 9 5 71 -25
77 -38 7 -15 24 -8 18 7 -5 13 -2 14 17 3 16 -9 18 -13 7 -15 -8 -2 -20 -15
-26 -28 -12 -24 -11 -24 21 -20 29 3 32 1 28 -18 -3 -15 -16 -26 -38 -33 -28
-9 -32 -8 -28 5 2 9 -5 4 -17 -11 -12 -16 -27 -28 -33 -28 -8 0 -9 3 -1 8 6 4
13 14 17 24 4 12 -3 18 -31 23 -23 4 -38 3 -40 -4 -4 -11 -30 -10 -144 4 -33
5 -37 3 -31 -12 4 -10 13 -23 21 -29 13 -9 12 -14 -6 -32 -12 -12 -18 -22 -12
-22 5 0 12 -16 16 -35 5 -30 8 -33 21 -20 17 18 35 19 50 4 17 -17 78 -23 66
-6 -7 8 -6 22 2 41 10 24 13 26 19 10 4 -10 2 -21 -5 -25 -6 -4 -8 -12 -5 -18
5 -8 32 -10 79 -7 40 2 85 5 100 5 16 1 26 5 22 11 -3 6 -2 10 4 10 5 0 11 -5
13 -12 2 -6 10 -8 17 -4 7 5 10 15 7 25 -5 12 -2 11 9 -3 16 -22 76 -27 83 -8
2 7 8 9 13 6 6 -3 16 0 24 6 9 7 15 8 15 2 0 -5 9 -12 20 -15 24 -6 28 18 4
27 -9 4 -14 9 -11 12 8 8 47 -19 47 -33 0 -7 5 -13 10 -13 6 0 10 8 10 18 0
10 3 13 8 6 11 -17 94 -15 88 2 -3 7 -1 16 3 19 5 3 12 -2 15 -10 4 -11 17
-15 41 -13 19 1 35 5 35 9 0 4 10 5 22 1 14 -3 19 -1 14 6 -3 6 -2 14 4 17 6
4 9 1 8 -7 -2 -9 13 -12 62 -12 110 2 121 4 115 14 -3 6 -1 10 4 10 6 0 11 -5
11 -10 0 -6 10 -8 23 -5 12 3 47 7 77 9 30 3 82 7 115 10 33 3 101 8 150 11
155 8 183 16 118 34 -48 14 -54 14 -50 0 1 -6 -5 -14 -13 -16 -13 -4 -13 -3 0
7 12 9 8 10 -17 5 -21 -4 -33 -3 -33 4 0 6 6 8 13 6 6 -3 18 -1 26 4 19 12 -4
51 -30 51 -15 0 -19 5 -15 15 3 8 1 15 -4 15 -6 0 -10 -9 -10 -20 0 -11 -7
-20 -15 -20 -8 0 -15 5 -15 10 0 6 -7 10 -15 10 -8 0 -14 -5 -12 -11 2 -12
-82 -19 -89 -7 -3 4 4 8 15 8 12 0 21 5 21 11 0 5 -4 8 -9 4 -5 -3 -12 -1 -16
5 -4 7 -13 7 -28 -1 -20 -9 -20 -9 -4 4 9 8 17 19 17 25 0 6 5 14 11 18 8 4 9
0 4 -15 -7 -22 10 -30 18 -8 3 8 9 7 19 -7 18 -22 54 -18 50 7 -2 10 4 17 13
17 8 0 15 -4 15 -10 0 -15 29 -12 46 5 17 17 44 20 44 5 0 -5 -6 -10 -14 -10
-7 0 -16 -9 -19 -20 -4 -17 -2 -20 14 -15 15 5 19 1 19 -19 0 -19 6 -26 30
-31 18 -4 36 -2 45 5 11 9 12 7 8 -11 -5 -19 -3 -20 18 -14 13 4 27 13 31 19
5 6 8 2 8 -11 0 -12 -6 -24 -12 -26 -8 -3 -6 -6 5 -6 10 -1 20 6 23 14 5 12
10 13 20 4 10 -8 16 -6 25 9 11 17 15 18 26 6 21 -21 31 -17 25 11 -4 21 0 25
19 25 l23 0 -23 22 c-13 12 -37 21 -52 21 -20 0 -26 4 -19 12 12 14 -4 40 -20
30 -6 -4 -9 -13 -6 -21 3 -8 1 -14 -5 -14 -7 0 -9 10 -5 26 5 19 3 25 -6 22
-7 -3 -15 -15 -18 -28 -3 -13 -12 -25 -20 -28 -9 -2 -11 0 -5 5 6 4 10 15 10
23 0 8 -4 18 -10 23 -6 4 -3 13 8 21 12 9 14 16 8 21 -16 9 -13 25 4 25 8 0
15 5 15 10 0 6 -4 10 -9 10 -14 0 -30 55 -20 71 18 29 10 48 -18 46 -17 -1
-27 3 -26 10 1 6 -4 14 -12 17 -8 3 -15 0 -15 -7 0 -8 -4 -7 -11 3 -8 12 -12
12 -16 2 -4 -9 -8 -10 -18 -2 -10 8 -15 8 -20 -1z m-40 -18 c3 -5 1 -12 -5
-16 -5 -3 -10 1 -10 9 0 18 6 21 15 7z m100 -41 c-3 -5 -12 -10 -18 -10 -7 0
-6 4 3 10 19 12 23 12 15 0z m43 -7 c5 -10 7 -23 5 -30 -2 -7 1 -21 6 -32 8
-14 8 -22 -1 -27 -6 -4 -8 -3 -4 4 3 5 2 12 -3 14 -13 4 -32 88 -20 88 4 0 12
-8 17 -17z m-998 -13 c0 -5 -5 -10 -11 -10 -5 0 -7 5 -4 10 3 6 8 10 11 10 2
0 4 -4 4 -10z m893 -16 c4 -1 14 -2 23 -3 20 -1 8 -20 -14 -20 -39 -1 -51 -5
-49 -15 1 -5 -11 -11 -26 -12 -35 -4 -32 16 6 34 15 7 27 18 27 23 0 6 6 7 13
2 6 -4 15 -8 20 -9z m-88 -14 c3 -5 -3 -10 -15 -10 -12 0 -18 5 -15 10 3 6 10
10 15 10 5 0 12 -4 15 -10z m-255 -11 c0 -4 -7 -9 -15 -13 -9 -3 -15 0 -15 8
0 7 7 13 15 13 8 0 15 -4 15 -8z m-830 -14 c0 -8 5 -15 12 -15 6 0 8 -3 5 -6
-8 -8 -37 14 -37 27 0 5 5 9 10 9 6 0 10 -7 10 -15z m647 -7 c-3 -8 -6 -5 -6
6 -1 11 2 17 5 13 3 -3 4 -12 1 -19z m-507 -3 c-7 -8 -16 -12 -21 -9 -13 8 -1
24 18 24 13 0 13 -3 3 -15z m385 6 c3 -5 1 -12 -5 -16 -5 -3 -10 1 -10 9 0 18
6 21 15 7z m262 3 c-3 -3 -12 -4 -19 -1 -8 3 -5 6 6 6 11 1 17 -2 13 -5z m-89
-13 c11 -7 11 -9 -1 -14 -9 -3 -18 1 -21 9 -6 16 2 18 22 5z m502 -17 c0 -21
-17 -17 -23 5 -3 14 -1 18 9 14 8 -3 14 -11 14 -19z m-1225 -1 c19 -15 19 -15
-10 -8 -37 8 -57 25 -29 25 10 0 28 -8 39 -17z m123 5 c-2 -6 -10 -14 -16 -16
-7 -2 -10 2 -6 12 7 18 28 22 22 4z m189 -10 c-3 -8 -6 -5 -6 6 -1 11 2 17 5
13 3 -3 4 -12 1 -19z m728 12 c-3 -5 -12 -10 -18 -10 -7 0 -6 4 3 10 19 12 23
12 15 0z m235 -5 c11 -13 10 -14 -4 -9 -9 3 -16 10 -16 15 0 13 6 11 20 -6z
m-1420 -15 c0 -5 -4 -10 -10 -10 -5 0 -10 5 -10 10 0 6 5 10 10 10 6 0 10 -4
10 -10z m970 0 c0 -5 -4 -10 -10 -10 -5 0 -10 5 -10 10 0 6 5 10 10 10 6 0 10
-4 10 -10z m-1122 -27 c3 -18 -2 -23 -17 -23 -23 0 -28 15 -8 23 6 3 3 6 -7 6
-11 1 -28 -7 -39 -16 -15 -13 -21 -15 -24 -5 -3 6 -9 10 -14 6 -5 -3 -9 0 -9
7 0 6 8 9 20 6 10 -3 25 2 31 10 19 22 63 13 67 -14z m112 17 c0 -5 -5 -10
-11 -10 -5 0 -7 5 -4 10 3 6 8 10 11 10 2 0 4 -4 4 -10z m1200 -20 c0 -5 -2
-10 -4 -10 -3 0 -8 5 -11 10 -3 6 -1 10 4 10 6 0 11 -4 11 -10z m130 0 c0 -5
-2 -10 -4 -10 -3 0 -8 5 -11 10 -3 6 -1 10 4 10 6 0 11 -4 11 -10z m-538 -18
c-7 -2 -12 -10 -12 -17 0 -8 -4 -16 -10 -20 -5 -3 -5 7 1 25 7 18 15 27 22 23
8 -5 8 -8 -1 -11z m708 -14 c0 -6 -7 -5 -15 2 -8 7 -15 17 -15 22 0 6 7 5 15
-2 8 -7 15 -17 15 -22z m-1754 7 c-3 -8 0 -14 7 -12 7 1 11 -8 9 -26 -3 -23 2
-30 30 -42 18 -8 26 -14 17 -15 -8 0 -24 6 -34 14 -11 8 -25 12 -32 9 -16 -6
-16 2 -2 29 10 18 9 20 -6 15 -9 -4 -21 -7 -26 -7 -5 0 -8 -6 -6 -12 1 -7 -4
-12 -10 -10 -7 1 -13 -5 -13 -14 0 -8 -4 -13 -9 -9 -18 10 -6 56 19 75 30 24
65 27 56 5z m1529 5 c-3 -5 -11 -10 -16 -10 -6 0 -7 5 -4 10 3 6 11 10 16 10
6 0 7 -4 4 -10z m-1480 -20 c3 -5 1 -10 -4 -10 -6 0 -11 5 -11 10 0 6 2 10 4
10 3 0 8 -4 11 -10z m635 0 c0 -5 -5 -10 -11 -10 -5 0 -7 5 -4 10 3 6 8 10 11
10 2 0 4 -4 4 -10z m410 -5 c11 -13 10 -14 -4 -9 -19 7 -21 -7 -4 -24 7 -7 10
-12 8 -13 -53 -10 -62 2 -32 39 20 26 17 25 32 7z m590 -5 c0 -5 -2 -10 -4
-10 -3 0 -8 5 -11 10 -3 6 -1 10 4 10 6 0 11 -4 11 -10z m-1863 -46 c-2 -38
-8 -42 -28 -17 -11 13 -11 17 -1 20 6 3 12 14 12 24 0 11 4 17 10 14 5 -3 9
-22 7 -41z m1194 14 c5 1 9 -2 9 -8 0 -21 -27 -9 -39 18 -11 26 -11 26 5 7 8
-11 20 -19 25 -17z m724 22 c3 -6 -4 -10 -17 -10 -18 0 -20 2 -8 10 19 12 18
12 25 0z m-1085 -22 c0 -6 11 -8 25 -6 13 3 22 1 19 -3 -3 -5 9 -6 26 -3 34 7
36 3 14 -31 -19 -30 -34 -33 -27 -6 4 17 1 19 -36 14 -23 -3 -41 -2 -41 3 0 5
-3 19 -6 32 -5 18 -3 21 10 16 9 -3 16 -11 16 -16z m238 4 c-10 -2 -18 -8 -18
-13 0 -6 5 -7 10 -4 6 3 10 1 10 -4 0 -15 -17 -14 -27 2 -16 25 -11 34 16 28
18 -3 21 -6 9 -9z m806 -13 c-8 -14 -24 -10 -24 6 0 9 6 12 15 9 8 -4 12 -10
9 -15z m-738 -26 c-3 -4 -6 -1 -6 5 0 6 -7 9 -16 5 -8 -3 -13 -11 -10 -18 3
-8 -3 -16 -12 -20 -9 -3 -18 -2 -20 3 -2 6 -12 8 -22 5 -11 -3 -20 0 -20 6 0
6 11 11 25 11 13 0 28 6 32 14 12 20 37 25 46 9 5 -8 6 -17 3 -20z m169 7 c3
-5 0 -7 -8 -4 -8 3 -18 1 -22 -5 -3 -6 -11 -11 -17 -11 -7 0 -6 6 2 15 14 17
36 20 45 5z m65 -11 c0 -5 -10 -7 -22 -5 -34 7 -34 7 -13 15 22 9 35 5 35 -10z
m-199 -12 c-13 -13 -26 -3 -16 12 3 6 11 8 17 5 6 -4 6 -10 -1 -17z m59 13 c0
-5 -4 -10 -10 -10 -5 0 -10 5 -10 10 0 6 5 10 10 10 6 0 10 -4 10 -10z m-1195
-10 c3 -5 1 -10 -4 -10 -6 0 -11 5 -11 10 0 6 2 10 4 10 3 0 8 -4 11 -10z
m195 -10 c0 -5 -5 -10 -11 -10 -5 0 -7 5 -4 10 3 6 8 10 11 10 2 0 4 -4 4 -10z
m-125 -11 c4 -6 1 -9 -6 -8 -8 1 -22 -1 -32 -6 -11 -4 -23 -3 -29 3 -8 8 -5 9
11 5 12 -3 21 -1 21 6 0 14 27 14 35 0z m200 1 c3 -5 -3 -10 -14 -10 -12 0
-21 5 -21 10 0 6 6 10 14 10 8 0 18 -4 21 -10z m545 -6 c0 -2 -7 -4 -15 -4 -8
0 -15 4 -15 10 0 5 7 7 15 4 8 -4 15 -8 15 -10z m-634 -16 c7 -5 16 -8 20 -7
5 1 18 1 29 0 16 -1 17 -3 6 -10 -16 -10 -69 5 -91 26 -13 12 -13 13 5 7 11
-4 25 -11 31 -16z m1332 10 c-2 -5 -8 -9 -13 -9 -5 0 -11 4 -13 9 -1 5 4 9 13
9 9 0 14 -4 13 -9z m157 2 c17 -7 14 -9 -13 -9 -20 -1 -31 3 -27 9 7 12 13 12
40 0z m-1575 -24 c0 -8 6 -16 13 -19 6 -2 9 -7 6 -11 -11 -12 -38 6 -36 25 1
22 17 26 17 5z m290 4 c0 -5 -5 -10 -11 -10 -5 0 -7 5 -4 10 3 6 8 10 11 10 2
0 4 -4 4 -10z m90 0 c0 -5 -4 -10 -10 -10 -5 0 -10 5 -10 10 0 6 5 10 10 10 6
0 10 -4 10 -10z m45 -8 c-3 -3 -11 0 -18 7 -9 10 -8 11 6 5 10 -3 15 -9 12
-12z m804 5 c6 -8 8 -17 4 -20 -7 -8 -33 11 -33 24 0 13 16 11 29 -4z m-172
-19 c-3 -8 -6 -5 -6 6 -1 11 2 17 5 13 3 -3 4 -12 1 -19z m50 5 c0 -9 -4 -10
-14 -2 -7 6 -13 12 -13 14 0 1 6 2 13 2 8 0 14 -6 14 -14z m-180 -8 c0 -17 0
-17 -22 -9 -13 5 -14 8 -3 15 19 12 25 11 25 -6z m234 0 c5 4 6 -1 3 -9 -8
-22 -33 -20 -29 2 5 27 6 28 12 14 2 -6 9 -10 14 -7z m-311 -11 c0 -8 -4 -12
-10 -9 -5 3 -10 10 -10 16 0 5 5 9 10 9 6 0 10 -7 10 -16z m184 -5 c-7 -12
-17 -11 -39 4 -16 13 -15 14 13 9 18 -2 29 -8 26 -13z m-124 -8 c0 -6 -4 -13
-10 -16 -5 -3 -10 1 -10 9 0 9 5 16 10 16 6 0 10 -4 10 -9z m-607 -8 c-7 -2
-19 -2 -25 0 -7 3 -2 5 12 5 14 0 19 -2 13 -5z m403 -8 c-8 -8 -20 -15 -27
-15 -7 0 -4 6 7 15 25 19 40 19 20 0z m-201 -5 c3 -6 -4 -10 -17 -10 -18 0
-20 2 -8 10 19 12 18 12 25 0z m-155 -17 c0 -8 -5 -13 -12 -11 -18 6 -21 25
-3 25 8 0 15 -7 15 -14z m110 -4 c0 -14 -16 -11 -29 5 -10 12 -8 13 8 9 12 -3
21 -9 21 -14z"/>
<path d="M1850 5080 c0 -5 5 -10 10 -10 6 0 10 5 10 10 0 6 -4 10 -10 10 -5 0
-10 -4 -10 -10z"/>
<path d="M3751 5063 c-8 -18 -9 -29 -1 -37 11 -11 11 -12 15 32 3 39 2 40 -14
5z"/>
<path d="M1765 5060 c-3 -5 1 -10 10 -10 9 0 13 5 10 10 -3 6 -8 10 -10 10 -2
0 -7 -4 -10 -10z"/>
<path d="M1650 4965 c0 -8 5 -15 10 -15 6 0 10 7 10 15 0 8 -4 15 -10 15 -5 0
-10 -7 -10 -15z"/>
<path d="M2355 4920 c3 -5 8 -10 11 -10 2 0 4 5 4 10 0 6 -5 10 -11 10 -5 0
-7 -4 -4 -10z"/>
<path d="M3867 4883 c-11 -10 -8 -43 3 -43 6 0 10 11 10 25 0 26 -2 29 -13 18z"/>
<path d="M1555 4860 c9 -31 25 -50 25 -29 0 7 -8 23 -16 34 -16 19 -16 19 -9
-5z"/>
<path d="M1293 4814 c9 -3 17 -9 17 -13 0 -11 36 -51 45 -51 4 0 4 8 0 18 -4
9 -8 24 -9 32 -2 9 -15 16 -37 17 -19 1 -26 -1 -16 -3z"/>
<path d="M1280 4765 c0 -8 2 -15 4 -15 2 0 6 7 10 15 3 8 1 15 -4 15 -6 0 -10
-7 -10 -15z"/>
<path d="M2040 4760 c0 -5 7 -10 16 -10 8 0 12 5 9 10 -3 6 -10 10 -16 10 -5
0 -9 -4 -9 -10z"/>
<path d="M2086 4735 c4 -8 10 -12 15 -9 11 6 2 24 -11 24 -5 0 -7 -7 -4 -15z"/>
<path d="M2147 4723 c-15 -14 -5 -23 25 -23 30 0 31 1 12 15 -22 16 -28 18
-37 8z"/>
<path d="M1810 4685 c0 -8 9 -13 20 -12 11 1 20 4 20 8 0 4 -9 9 -20 12 -13 3
-20 0 -20 -8z"/>
<path d="M1210 4603 c0 -22 2 -25 10 -13 13 20 13 40 0 40 -5 0 -10 -12 -10
-27z"/>
<path d="M1180 2566 c0 -9 5 -16 10 -16 6 0 10 4 10 9 0 6 -4 13 -10 16 -5 3
-10 -1 -10 -9z"/>
<path d="M1171 2184 c0 -11 3 -14 6 -6 3 7 2 16 -1 19 -3 4 -6 -2 -5 -13z"/>
<path d="M1141 2164 c0 -11 3 -14 6 -6 3 7 2 16 -1 19 -3 4 -6 -2 -5 -13z"/>
<path d="M1150 2119 c0 -5 5 -7 10 -4 6 3 10 8 10 11 0 2 -4 4 -10 4 -5 0 -10
-5 -10 -11z"/>
<path d="M7365 5140 c3 -5 8 -10 11 -10 2 0 4 5 4 10 0 6 -5 10 -11 10 -5 0
-7 -4 -4 -10z"/>
<path d="M6865 5260 c-8 -13 5 -13 25 0 13 8 13 10 -2 10 -9 0 -20 -4 -23 -10z"/>
<path d="M4630 5081 c0 -5 5 -13 10 -16 6 -3 10 -2 10 4 0 5 -4 13 -10 16 -5
3 -10 2 -10 -4z"/>
<path d="M4605 5060 c3 -5 8 -10 11 -10 2 0 4 5 4 10 0 6 -5 10 -11 10 -5 0
-7 -4 -4 -10z"/>
<path d="M7254 3586 c-6 -15 32 -123 47 -131 12 -8 12 7 -1 41 -6 15 -11 42
-12 60 -1 34 -25 55 -34 30z"/>
<path d="M7150 4265 c13 -14 26 -25 28 -25 3 0 -5 11 -18 25 -13 14 -26 25
-28 25 -3 0 5 -11 18 -25z"/>
<path d="M5030 3085 c-17 -21 -8 -28 15 -11 11 8 14 15 8 19 -6 4 -16 0 -23
-8z"/>
<path d="M5065 3069 c-11 -17 1 -21 15 -4 8 9 8 15 2 15 -6 0 -14 -5 -17 -11z"/>
<path d="M4800 3040 c0 -13 48 -32 61 -24 5 3 9 2 9 -3 0 -4 10 -8 23 -8 20 0
22 3 12 22 -8 19 -18 23 -57 23 -27 0 -48 -5 -48 -10z"/>
<path d="M6360 3560 c0 -5 5 -10 11 -10 5 0 7 5 4 10 -3 6 -8 10 -11 10 -2 0
-4 -4 -4 -10z"/>
<path d="M4448 2853 c-29 -7 -20 -23 13 -23 27 0 30 2 19 15 -7 8 -13 14 -14
14 0 -1 -9 -3 -18 -6z"/>
<path d="M6078 2846 c-10 -7 -18 -16 -18 -18 0 -5 58 -2 70 3 3 1 10 3 15 3 6
1 12 6 15 11 8 16 -63 17 -82 1z"/>
<path d="M5010 2029 c-9 -17 -8 -23 7 -34 16 -12 19 -11 27 6 11 23 26 25 26
4 0 -8 -4 -15 -10 -15 -5 0 -10 -9 -10 -19 0 -11 -4 -23 -10 -26 -5 -3 -10 3
-10 15 0 27 -27 37 -47 17 -10 -10 -13 -22 -8 -34 8 -16 9 -16 12 5 3 12 9 22
15 22 5 0 8 -6 5 -13 -7 -18 21 -53 32 -41 5 5 21 30 35 56 25 45 25 48 8 57
-14 7 -25 6 -40 -5 -23 -16 -30 -6 -10 14 9 9 9 12 0 12 -6 0 -16 -9 -22 -21z"/>
<path d="M4871 2004 c0 -11 3 -14 6 -6 3 7 2 16 -1 19 -3 4 -6 -2 -5 -13z"/>
<path d="M4746 1225 c-3 -9 2 -31 11 -48 9 -19 18 -27 21 -19 2 7 -3 21 -13
32 -13 14 -13 19 -3 23 10 3 10 8 2 16 -9 10 -13 9 -18 -4z"/>
<path d="M7825 2080 c3 -5 11 -10 16 -10 6 0 7 5 4 10 -3 6 -11 10 -16 10 -6
0 -7 -4 -4 -10z"/>
<path d="M7930 2045 c0 -22 6 -38 15 -41 8 -4 15 -12 15 -20 0 -8 4 -14 9 -14
11 0 3 66 -11 93 -14 28 -28 19 -28 -18z"/>
<path d="M7811 2006 c-8 -10 -9 -16 -1 -21 5 -3 10 -18 10 -33 0 -20 3 -23 9
-13 6 9 6 22 1 31 -6 11 -5 21 1 27 7 7 7 13 1 17 -5 3 -15 -1 -21 -8z"/>
<path d="M3830 2021 c0 -12 28 -22 35 -12 3 5 -2 12 -11 15 -21 8 -24 8 -24
-3z"/>
<path d="M4425 1647 c-4 -10 -5 -21 -1 -24 10 -10 18 4 13 24 -4 17 -4 17 -12
0z"/>
<path d="M5635 1940 c3 -5 8 -10 11 -10 2 0 4 5 4 10 0 6 -5 10 -11 10 -5 0
-7 -4 -4 -10z"/>
<path d="M5762 1889 c2 -7 10 -15 17 -17 8 -3 12 1 9 9 -2 7 -10 15 -17 17 -8
3 -12 -1 -9 -9z"/>
<path d="M6625 1150 c3 -5 8 -10 11 -10 2 0 4 5 4 10 0 6 -5 10 -11 10 -5 0
-7 -4 -4 -10z"/>
<path d="M7801 929 c-6 -29 -9 -54 -7 -56 5 -5 12 18 21 70 9 55 -2 45 -14
-14z"/>
<path d="M4760 782 c6 -13 14 -21 18 -18 3 4 -2 14 -12 24 -18 16 -18 16 -6
-6z"/>
<path d="M4690 750 c0 -16 2 -30 4 -30 2 0 6 14 8 30 3 17 1 30 -4 30 -4 0 -8
-13 -8 -30z"/>
</g>
</svg>
