<?xml version="1.0" standalone="no"?>
<!DOCTYPE svg PUBLIC "-//W3C//DTD SVG 20010904//EN"
 "http://www.w3.org/TR/2001/REC-SVG-20010904/DTD/svg10.dtd">
<svg version="1.0" xmlns="http://www.w3.org/2000/svg"
 width="1080.000000pt" height="675.000000pt" viewBox="0 0 1080.000000 675.000000"
 preserveAspectRatio="xMidYMid meet">

<g transform="translate(0.000000,675.000000) scale(0.100000,-0.100000)"
fill="#000000" stroke="none">
<path d="M2075 6741 c-3 -5 -1 -12 5 -16 6 -4 7 -11 4 -17 -4 -7 -2 -8 5 -4 8
6 9 12 2 20 -6 7 -8 16 -4 19 3 4 4 7 0 7 -3 0 -8 -4 -12 -9z"/>
<path d="M2100 6743 c0 -6 5 -15 10 -18 8 -5 7 -12 -2 -23 -9 -12 -6 -11 10 2
21 18 31 11 15 -10 -5 -5 0 -1 9 9 23 24 22 24 42 4 10 -9 22 -14 28 -11 7 5
8 2 3 -6 -6 -9 -4 -12 7 -8 8 4 20 -2 27 -14 10 -16 10 -19 -1 -12 -7 5 -22 9
-33 9 -12 1 -19 7 -17 15 2 8 0 12 -4 8 -4 -4 -13 -3 -20 3 -8 7 -14 7 -19 -1
-4 -6 -1 -9 7 -8 7 2 12 -3 11 -9 -2 -7 3 -12 10 -10 6 1 11 -4 9 -12 -3 -12
0 -12 12 -2 12 10 16 9 25 -6 7 -13 10 -14 11 -4 0 8 3 11 7 8 3 -4 13 -1 21
6 10 8 13 8 9 1 -9 -16 18 -25 32 -11 7 7 6 1 -1 -16 -9 -17 -14 -22 -16 -12
-2 8 -8 15 -13 15 -11 0 6 -35 21 -45 6 -4 7 -11 4 -17 -4 -6 -2 -8 3 -5 13 8
35 -17 25 -29 -4 -4 1 -2 10 5 9 7 22 10 27 7 5 -4 13 -1 16 5 8 12 55 -27 55
-45 0 -6 -4 -5 -9 2 -6 11 -9 9 -14 -7 -3 -12 2 -26 11 -33 10 -9 13 -9 9 -1
-4 6 -3 14 2 17 12 8 23 -22 14 -37 -4 -7 1 -6 10 2 15 12 21 9 18 -11 0 -5 3
-8 9 -8 6 0 10 6 10 13 0 8 3 7 10 -3 8 -12 10 -12 16 3 6 17 7 17 20 -2 8
-10 22 -18 31 -17 10 2 22 -2 26 -8 6 -7 7 -5 4 6 -4 9 1 19 10 22 11 4 14 2
10 -9 -4 -8 -1 -17 5 -21 6 -4 9 -3 6 2 -4 5 0 23 6 39 12 28 13 29 20 8 4
-11 14 -24 24 -28 14 -5 15 -4 5 6 -7 7 -13 17 -13 22 0 5 7 2 15 -7 8 -8 15
-20 15 -26 0 -7 6 -6 15 4 8 8 15 19 15 24 0 5 7 9 15 9 11 0 14 -7 9 -21 -4
-15 -3 -17 4 -8 5 8 13 13 18 12 4 -1 11 7 15 17 6 13 8 14 8 3 1 -13 2 -13
11 0 5 8 10 11 10 6 0 -5 -8 -18 -17 -29 -17 -19 -17 -20 5 -8 12 6 22 17 22
24 0 8 3 8 9 -1 6 -10 10 -8 15 10 5 15 9 18 13 10 4 -10 9 -9 24 4 10 9 19
13 19 9 0 -5 14 4 30 20 17 16 30 25 30 21 0 -4 15 4 33 17 17 13 59 36 92 51
33 15 77 36 98 47 22 10 49 19 60 19 12 0 38 10 57 22 19 12 58 30 85 39 49
17 30 18 -620 18 -377 0 -664 -3 -656 -8 8 -5 9 -11 3 -15 -6 -4 -15 2 -21 11
-6 10 -11 13 -11 6z m220 -132 c-11 -22 -4 -30 21 -26 11 2 16 -3 14 -14 -2
-9 -4 -18 -4 -20 -1 -3 -12 6 -26 19 -19 18 -22 27 -14 41 5 11 12 19 15 19 2
0 0 -9 -6 -19z m247 -161 c-1 -12 -5 -16 -10 -11 -5 5 -6 14 -3 20 11 16 15
13 13 -9z m43 5 c0 -1 -6 -7 -13 -13 -10 -8 -13 -6 -14 8 -1 13 3 17 13 13 8
-3 14 -6 14 -8z"/>
<path d="M4063 6743 c24 -3 35 -8 31 -15 -5 -7 -2 -8 7 -2 8 4 20 9 27 10 8 2
16 5 20 8 3 3 -24 5 -59 4 -42 -1 -51 -3 -26 -5z"/>
<path d="M4699 6739 c31 -10 32 -11 15 -25 -18 -15 -18 -15 6 -10 14 3 32 1
40 -5 12 -8 10 -9 -7 -4 -12 3 -24 2 -27 -4 -3 -5 10 -11 29 -13 19 -2 37 1
39 7 2 5 5 2 5 -8 1 -10 7 -17 14 -14 6 2 18 -3 25 -12 8 -9 11 -11 8 -5 -3 6
1 11 8 11 8 0 12 -5 10 -12 -3 -6 4 -11 15 -11 14 0 17 4 10 12 -7 8 -6 15 2
20 7 4 9 3 6 -3 -10 -16 41 -22 54 -6 10 11 14 11 29 -2 9 -8 19 -13 21 -11 2
2 19 6 36 9 24 4 36 1 43 -11 6 -11 9 -12 10 -4 0 7 5 10 12 6 7 -4 8 -3 4 5
-4 6 -12 8 -18 5 -7 -4 -8 -2 -4 4 5 9 13 9 27 2 11 -6 16 -16 13 -22 -4 -7
-3 -8 5 -4 6 4 9 12 6 17 -4 5 -1 9 4 9 6 0 11 -5 11 -11 0 -8 6 -7 17 2 15
12 16 12 8 -1 -6 -11 -3 -10 12 3 11 9 23 17 28 17 5 0 17 8 28 18 15 12 18
13 12 2 -8 -13 -7 -13 8 -1 13 10 20 11 31 2 10 -9 16 -9 21 -1 5 8 12 6 25
-5 15 -14 18 -14 30 0 14 17 34 10 26 -11 -3 -7 0 -16 6 -20 6 -4 8 -3 5 2 -3
6 -2 16 4 24 7 12 9 11 9 -5 0 -17 2 -18 11 -5 8 12 10 10 5 -10 -5 -24 -4
-24 9 -6 14 18 20 12 17 -15 -1 -4 8 -15 20 -25 12 -11 19 -14 15 -9 -3 6 -2
17 4 25 7 13 9 12 9 -2 0 -9 3 -24 7 -34 5 -13 3 -15 -8 -9 -8 5 -6 -1 5 -13
10 -12 23 -19 29 -15 7 4 8 -1 3 -13 -5 -14 -4 -16 4 -8 6 6 8 19 4 28 -5 13
-9 14 -14 6 -5 -9 -9 -9 -14 -1 -4 6 -2 11 5 11 9 0 8 4 -1 15 -6 8 -10 20 -7
27 3 8 6 6 6 -5 1 -10 6 -15 11 -12 6 4 9 1 8 -7 -2 -7 2 -12 9 -11 8 2 10 -4
6 -14 -4 -10 -2 -14 5 -9 7 4 10 -1 7 -14 -2 -11 0 -18 5 -15 4 3 11 -1 14 -7
3 -8 5 -7 3 2 -1 9 2 15 8 15 5 0 10 -4 10 -10 0 -5 5 -12 10 -13 6 -2 16 -9
23 -15 10 -8 16 -7 23 4 7 11 10 10 15 -8 4 -13 10 -23 15 -23 5 0 11 0 14 0
11 1 33 -25 28 -32 -2 -5 1 -8 6 -8 6 0 11 5 11 12 0 9 3 9 12 0 10 -10 10
-15 -2 -22 -14 -9 -6 -12 55 -23 11 -2 19 -10 17 -18 -3 -11 -1 -12 9 -1 7 6
17 12 22 12 4 0 5 -6 1 -12 -6 -10 -4 -10 7 -2 13 10 57 22 101 27 9 1 14 5
12 9 -3 4 4 8 16 8 12 0 19 4 15 9 -3 5 4 16 15 24 11 7 18 16 15 18 -2 3 11
11 30 18 20 7 33 17 30 22 -4 5 1 9 10 9 9 0 13 5 10 10 -3 6 -1 10 5 10 6 0
20 9 32 20 12 11 28 20 35 20 8 0 12 4 8 9 -6 10 7 15 65 26 62 12 154 46 183
66 15 11 33 17 39 13 6 -4 8 -3 5 3 -4 6 5 10 21 9 15 0 37 3 48 7 17 6 32 -2
75 -43 29 -28 59 -48 66 -46 12 5 17 -9 14 -44 0 -8 4 -5 11 8 11 23 28 30 28
12 0 -5 -4 -10 -10 -10 -12 0 -7 -67 7 -81 8 -8 7 -19 -1 -40 -8 -23 -8 -32 2
-38 6 -4 14 -21 16 -39 2 -17 1 -30 -3 -28 -3 2 -6 -18 -6 -44 0 -53 4 -56 14
-12 l6 30 18 -37 c15 -31 15 -33 1 -16 -16 20 -16 20 -11 -1 6 -27 -33 -50
-53 -31 -10 9 -12 8 -7 -5 5 -13 0 -19 -18 -24 -13 -3 -26 -12 -29 -20 -3 -8
-13 -14 -22 -14 -21 0 -174 -80 -174 -91 0 -5 -7 -9 -15 -9 -9 0 -47 -32 -85
-71 -69 -70 -88 -99 -52 -81 9 5 22 7 29 5 12 -4 29 34 19 44 -5 6 23 32 35
33 3 0 1 -19 -5 -42 -9 -35 -30 -62 -114 -142 -56 -54 -102 -104 -102 -110 0
-6 6 -4 13 4 7 8 30 28 52 45 21 16 46 36 55 45 32 31 96 86 129 110 18 14 42
33 52 42 10 9 34 20 53 23 19 4 37 14 41 23 6 16 7 16 16 0 8 -15 13 -16 29
-6 20 13 18 30 -3 22 -7 -2 -18 5 -25 16 -12 19 -11 20 13 14 17 -4 25 -2 25
7 0 14 43 39 66 39 7 0 10 -8 7 -21 -6 -21 -5 -21 21 -4 41 27 30 3 -14 -29
-38 -28 -38 -29 -22 -52 9 -13 23 -24 30 -24 6 0 12 -4 12 -10 0 -9 -30 -15
-53 -11 -4 1 -10 -6 -13 -14 -6 -16 -34 -21 -34 -7 0 13 35 42 50 42 9 0 7 5
-6 14 -10 8 -21 11 -24 8 -6 -8 -48 -32 -100 -59 -41 -21 -65 -42 -57 -50 5
-5 55 14 90 34 4 2 7 0 7 -5 0 -5 -24 -21 -52 -36 -56 -27 -158 -99 -195 -135
-11 -12 -24 -34 -28 -49 -3 -15 -16 -35 -28 -44 -12 -10 -16 -18 -9 -18 8 0 4
-10 -10 -25 -13 -14 -32 -42 -43 -62 -11 -21 -23 -40 -27 -43 -3 -3 -6 -14 -5
-25 1 -11 -3 -19 -9 -18 -12 2 -34 -96 -23 -103 4 -2 18 10 30 28 13 18 26 35
29 38 3 3 14 23 24 45 14 30 21 35 24 22 2 -10 -3 -29 -12 -42 -9 -13 -16 -36
-16 -50 0 -15 -5 -35 -11 -46 -6 -11 -12 -49 -14 -85 -1 -35 -7 -70 -13 -77
-6 -6 -13 -30 -17 -52 -4 -22 -16 -56 -25 -75 -16 -31 -50 -138 -50 -155 0 -3
5 -3 10 0 6 3 10 2 10 -4 0 -5 -4 -11 -9 -13 -4 -1 -11 -25 -15 -53 l-7 -50
21 24 c11 13 20 29 20 37 0 7 5 16 12 20 8 5 9 0 5 -16 -3 -13 -1 -33 5 -44 7
-12 11 -39 9 -61 -1 -31 1 -37 9 -25 9 12 10 9 7 -15 -6 -35 -23 -126 -33
-174 -5 -23 -4 -32 4 -28 5 4 13 26 17 50 11 72 44 170 70 212 29 47 31 43 9
-16 -8 -24 -17 -64 -18 -89 -2 -25 -6 -67 -10 -95 -5 -36 -5 -46 3 -35 14 20
14 -13 1 -117 -17 -124 -17 -127 -28 -153 -10 -26 -32 -176 -32 -223 0 -19 -4
-25 -15 -21 -21 8 -19 -13 2 -25 20 -11 -16 -17 -166 -26 -112 -7 -135 -16
-127 -51 6 -24 5 -25 -31 -18 -21 4 -40 10 -43 14 -8 11 -94 6 -105 -6 -5 -6
-31 -17 -57 -25 -67 -19 -47 -39 41 -39 l66 -1 -45 -24 c-25 -13 -56 -24 -70
-25 -14 0 -34 -7 -44 -15 -11 -8 -29 -12 -43 -9 -12 4 -23 2 -23 -3 0 -5 -12
-10 -27 -11 -15 -1 -32 -7 -37 -12 -6 -6 -18 -10 -27 -10 -48 0 -151 -74 -308
-220 -21 -19 -50 -45 -64 -58 -28 -25 -62 -107 -78 -187 -6 -27 -14 -65 -19
-83 -8 -30 -7 -32 8 -20 39 32 202 199 202 207 0 5 15 19 34 30 18 12 39 34
46 50 6 17 39 56 72 87 70 67 78 63 81 -36 l1 -61 31 7 c53 12 295 -2 311 -19
2 -2 -7 -34 -21 -71 -20 -53 -48 -176 -56 -250 -1 -6 -4 5 -8 24 l-6 35 -80 0
c-79 1 -92 -2 -270 -63 -35 -12 -63 -32 -95 -66 -25 -27 -66 -70 -92 -95 -27
-25 -48 -51 -48 -58 0 -6 -4 -13 -9 -15 -11 -4 -46 -61 -68 -110 -9 -21 -20
-38 -25 -38 -4 0 -8 -9 -8 -21 0 -35 22 -16 97 83 39 52 97 117 128 144 32 27
91 79 132 117 71 64 76 67 125 67 45 0 54 -4 84 -35 29 -31 32 -40 29 -80 -4
-49 1 -53 31 -30 16 13 16 14 2 9 -18 -6 -24 6 -10 20 4 4 7 13 7 19 0 7 13
14 28 17 17 3 34 15 42 30 13 24 13 24 12 -15 -1 -22 2 -73 6 -114 6 -52 5
-71 -2 -66 -6 3 -8 12 -4 18 4 7 -1 6 -10 -2 -16 -12 -17 -12 -11 5 6 15 4 15
-12 -4 -10 -12 -35 -25 -54 -28 -19 -3 -42 -7 -50 -8 -43 -7 -110 -49 -152
-94 -27 -28 -48 -55 -48 -61 0 -12 -59 -71 -71 -71 -5 0 -9 -7 -9 -15 0 -8 -6
-15 -13 -15 -7 0 -18 -13 -24 -29 -12 -33 -57 -65 -47 -34 3 10 -2 5 -11 -10
-9 -15 -21 -25 -26 -21 -8 4 -8 0 0 -13 6 -11 8 -23 4 -26 -10 -11 -12 -57 -2
-63 5 -3 44 -7 88 -9 76 -3 82 -2 152 36 115 62 201 101 207 95 3 -3 0 -6 -7
-6 -7 0 -9 -5 -6 -10 4 -6 11 -8 16 -5 5 4 9 0 10 -7 0 -7 4 -4 9 7 6 13 9 15
9 5 1 -13 2 -13 11 0 5 8 10 10 10 4 0 -6 12 -11 28 -10 25 1 27 -2 25 -34 -4
-85 -11 -138 -19 -151 -13 -21 -14 -42 -3 -55 17 -21 -30 -56 -64 -48 -29 6
-87 -12 -87 -27 0 -19 36 -49 60 -50 24 -1 24 -1 -6 -14 -17 -8 -43 -16 -57
-17 -41 -6 -41 -15 -1 -22 34 -7 35 -8 20 -25 -9 -10 -16 -24 -16 -32 0 -9
-21 -25 -47 -36 -41 -18 -43 -20 -15 -16 28 5 32 3 32 -16 0 -15 6 -21 23 -22
19 0 20 -1 3 -8 -10 -4 -48 -7 -85 -6 -76 1 -102 -13 -74 -40 14 -14 33 -17
116 -13 55 2 93 2 86 -1 -8 -2 -18 -10 -22 -18 -5 -7 -12 -11 -18 -8 -5 4 -9
3 -9 -2 0 -12 16 -35 26 -36 5 -1 8 -8 8 -14 -3 -20 6 -15 16 9 8 21 9 22 10
3 l1 -20 9 20 c8 18 9 18 9 2 1 -10 -4 -27 -9 -38 -8 -13 -7 -19 0 -19 7 0 8
-6 0 -19 -5 -11 -7 -27 -3 -37 4 -12 3 -15 -5 -10 -8 5 -12 0 -12 -14 0 -19 4
-21 25 -16 18 5 25 2 25 -8 0 -24 -12 -46 -21 -40 -5 3 -9 0 -9 -6 0 -6 -5 -8
-12 -4 -7 4 -8 3 -4 -5 4 -6 12 -9 17 -6 5 4 9 -3 9 -13 0 -15 -10 -23 -37
-30 -37 -10 -37 -10 22 -11 l60 -2 -35 -15 c-31 -14 -33 -17 -15 -24 11 -4 27
-6 35 -3 8 2 -3 -5 -25 -16 -22 -11 -62 -20 -90 -21 -47 -2 -48 -2 -20 -11 17
-5 47 -7 68 -4 42 6 48 -5 15 -29 l-23 -17 25 7 c14 4 31 9 39 12 9 3 12 1 7
-6 -4 -7 -14 -12 -23 -12 -9 0 -13 -6 -10 -14 3 -7 1 -18 -4 -23 -21 -21 45
-11 76 12 25 20 34 23 38 12 6 -16 -10 -37 -29 -37 -20 0 -35 -25 -22 -38 9
-9 7 -17 -8 -33 -18 -21 -18 -22 0 -16 15 6 17 3 13 -12 -4 -16 0 -19 22 -16
14 1 29 -3 33 -9 5 -7 8 -5 8 6 0 9 4 20 10 23 6 4 7 -1 3 -11 -5 -13 -3 -15
8 -10 8 4 5 0 -5 -8 -11 -9 -23 -16 -26 -16 -4 0 -7 -7 -7 -15 0 -8 4 -15 9
-15 5 0 6 -5 3 -10 -3 -6 -2 -10 2 -10 5 0 10 -12 11 -26 3 -33 11 -46 24 -38
5 4 4 -4 -2 -17 -7 -13 -9 -21 -5 -17 12 11 47 -11 38 -25 -10 -17 -13 -37 -4
-37 4 0 8 -12 9 -27 1 -22 0 -24 -8 -13 -5 8 -10 11 -10 5 0 -14 16 -37 24
-35 12 2 31 -24 33 -45 12 -125 13 -165 3 -165 -6 0 -8 -5 -4 -11 3 -6 0 -15
-7 -20 -10 -6 -11 -9 -1 -9 22 0 13 -38 -14 -59 -20 -15 -22 -21 -10 -21 24 0
19 -27 -6 -34 -21 -6 -22 -7 -5 -17 15 -9 16 -12 2 -25 -8 -9 -13 -19 -10 -24
3 -4 -8 -34 -24 -67 -17 -33 -26 -62 -21 -67 5 -5 5 -17 -1 -28 -7 -13 -6 -18
3 -18 9 0 9 -3 0 -12 -7 -7 -12 -22 -12 -34 0 -13 -4 -26 -10 -29 -5 -3 -10
-1 -10 4 0 6 -5 11 -11 11 -5 0 -8 -4 -4 -9 3 -5 1 -12 -5 -16 -5 -3 -10 -1
-10 5 0 6 -5 8 -10 5 -17 -10 11 -37 32 -32 10 3 21 0 25 -5 4 -7 1 -8 -7 -3
-9 6 -10 2 -5 -15 4 -13 3 -20 -2 -17 -5 3 -19 -13 -31 -36 -12 -23 -17 -43
-12 -45 19 -7 10 -21 -11 -17 -14 3 -19 0 -16 -9 3 -7 -1 -13 -9 -13 -7 0 -11
5 -8 11 3 6 -2 2 -10 -9 -9 -11 -14 -25 -12 -32 3 -7 1 -13 -3 -13 -5 0 -9 16
-8 35 1 27 5 35 19 35 10 0 18 4 18 8 0 13 -49 7 -63 -8 -9 -10 -9 -11 1 -6 8
5 12 0 12 -13 0 -50 -32 -10 -38 47 -1 7 -6 11 -11 8 -10 -6 -9 -20 4 -49 11
-27 -13 -48 -27 -23 -8 15 -12 16 -19 5 -8 -12 -10 -12 -18 0 -7 11 -9 11 -13
0 -3 -10 -13 -5 -32 16 -19 21 -24 31 -14 34 7 2 16 9 20 14 4 7 11 7 21 -1 7
-7 18 -8 22 -4 5 4 5 1 1 -6 -5 -7 -15 -11 -23 -8 -8 3 -11 1 -8 -4 8 -12 37
-9 47 5 11 14 10 27 -1 20 -5 -3 -12 -1 -16 5 -4 6 -11 8 -16 5 -5 -4 -9 1 -9
9 0 9 -5 16 -11 16 -5 0 -8 -4 -4 -9 3 -6 -3 -15 -14 -20 -24 -13 -53 11 -45
37 5 14 4 14 -4 2 -6 -8 -8 -18 -6 -22 5 -7 -19 -13 -39 -9 -5 1 -6 -3 -2 -9
3 -5 1 -10 -4 -10 -6 0 -11 -5 -11 -10 0 -6 5 -9 11 -8 6 2 14 -4 16 -12 3
-11 2 -12 -4 -2 -7 9 -16 7 -38 -12 -24 -21 -63 -26 -51 -7 3 4 0 13 -6 21 -8
13 -9 12 -5 -2 9 -25 -5 -30 -20 -8 -12 18 -13 24 -1 37 9 12 9 15 1 9 -8 -4
-13 -1 -13 8 0 19 -69 40 -86 25 -7 -5 -15 -21 -19 -36 -3 -14 -13 -32 -20
-40 -19 -19 -19 -34 0 -27 21 9 19 -23 -2 -35 -12 -7 572 -10 1805 -11 1002 0
1822 3 1822 7 0 17 -25 73 -33 73 -4 0 -6 4 -3 9 6 9 -45 116 -84 173 -14 21
-33 38 -44 38 -13 0 -17 5 -13 20 6 24 -60 97 -75 82 -12 -12 -2 -49 15 -55 7
-2 4 -3 -7 -1 -10 1 -30 -2 -44 -7 -18 -7 -27 -6 -33 3 -6 9 -10 7 -15 -7 -11
-29 -26 -36 -39 -18 -15 20 -65 10 -65 -12 0 -8 5 -15 10 -15 6 0 10 -7 10
-15 0 -18 -11 -19 -29 -2 -11 10 -13 9 -8 -4 3 -9 0 -23 -6 -30 -10 -10 -8
-10 6 0 19 15 33 9 22 -8 -8 -14 -25 -14 -45 -1 -13 9 -13 11 0 20 12 8 11 10
-7 10 -14 0 -23 -6 -23 -15 0 -8 -4 -15 -9 -15 -5 0 -7 9 -4 19 4 16 1 19 -16
14 -11 -3 -18 -9 -15 -14 3 -5 -2 -9 -10 -9 -9 0 -19 0 -23 -1 -4 0 -9 4 -11
10 -2 6 4 11 14 11 17 0 17 1 1 17 -15 15 -19 16 -26 4 -11 -18 -51 -5 -51 17
-1 15 -2 15 -14 -1 -11 -14 -15 -15 -19 -5 -3 7 -6 -2 -6 -19 -1 -18 -5 -33
-9 -33 -5 0 -14 -12 -21 -26 -10 -24 -10 -25 11 -19 15 4 19 3 10 -3 -7 -5
-10 -16 -6 -27 5 -13 3 -16 -7 -13 -8 3 -13 12 -11 19 1 8 -4 5 -13 -5 -8 -11
-15 -14 -15 -7 0 8 -5 9 -17 2 -14 -8 -27 0 -64 38 -25 26 -53 61 -61 77 -8
18 -20 28 -31 26 -18 -3 -23 13 -7 23 15 9 1 26 -18 23 -11 -2 -18 5 -20 19
-2 12 -11 24 -20 28 -9 3 -13 3 -9 -1 3 -4 -1 -14 -11 -23 -24 -21 -22 -72 4
-82 17 -6 17 -8 2 -14 -9 -4 -14 -13 -11 -21 3 -8 -6 -18 -22 -26 -24 -11 -29
-10 -41 6 -7 11 -55 145 -105 299 -70 216 -97 285 -116 301 -63 54 -115 106
-106 106 6 0 27 -13 47 -29 46 -37 76 -44 147 -32 30 5 62 9 70 9 40 -3 102 3
97 8 -4 3 12 23 35 44 26 25 44 35 48 28 4 -6 12 -7 20 -2 8 5 25 10 39 12 14
2 33 12 43 23 10 11 23 17 29 13 7 -4 6 -9 -3 -15 -7 -4 -10 -11 -7 -14 12
-12 30 7 25 26 -3 12 2 23 14 30 18 9 19 7 13 -15 -5 -21 -3 -24 15 -19 25 6
28 38 5 47 -9 4 -14 13 -10 21 5 13 2 14 -15 5 -11 -6 -23 -18 -26 -26 -3 -8
-9 -14 -14 -14 -4 0 -6 6 -3 14 6 17 -27 31 -36 15 -5 -7 -17 -8 -30 -4 -20 6
-22 5 -17 -15 5 -21 5 -22 -10 -8 -9 10 -12 21 -7 30 12 19 14 39 3 32 -5 -3
-9 0 -9 5 0 15 -37 14 -43 -1 -3 -10 -8 -10 -21 1 -13 11 -19 12 -25 3 -4 -7
-24 -11 -46 -9 -29 1 -46 9 -64 30 -15 17 -31 27 -41 24 -22 -6 -45 8 -45 25
0 7 -7 13 -15 13 -8 0 -21 6 -28 13 -7 6 -24 12 -37 12 -13 0 -27 5 -30 10 -3
6 -17 10 -30 10 -13 0 -25 5 -27 11 -2 7 -18 12 -35 13 -17 0 -31 6 -30 11 1
6 -9 9 -23 7 -15 -1 -30 4 -37 15 -7 9 -13 11 -13 5 0 -7 -5 -12 -11 -12 -5 0
-7 5 -4 10 3 6 1 10 -4 10 -6 0 -11 6 -11 14 0 8 -34 31 -77 51 -43 20 -85 43
-93 50 -8 7 -49 15 -90 18 -41 3 -91 13 -110 21 -55 23 -138 91 -183 149 -60
77 -123 142 -202 206 -117 95 -171 121 -100 48 19 -20 35 -42 35 -50 0 -7 14
-26 30 -40 17 -15 30 -32 30 -39 0 -11 78 -88 90 -88 4 0 24 -18 46 -40 21
-22 42 -40 46 -40 13 0 56 -49 63 -70 3 -11 10 -20 14 -20 4 0 21 -14 38 -30
17 -17 62 -43 100 -59 63 -26 68 -30 68 -58 0 -17 3 -29 7 -26 5 2 8 -2 8 -9
1 -9 5 -7 14 4 9 12 21 16 42 11 16 -3 37 -6 46 -7 9 0 14 -4 12 -8 -3 -4 6
-9 20 -9 14 -1 30 -2 36 -3 13 -2 35 -25 28 -31 -11 -12 -86 -6 -128 10 -25 9
-55 16 -67 16 -12 0 -25 4 -28 9 -4 6 -11 8 -16 4 -12 -7 -79 -15 -141 -17
-29 -1 -48 -7 -48 -13 0 -7 -11 -15 -25 -18 -21 -5 -24 -11 -20 -33 6 -34 -19
-63 -54 -63 l-26 -1 25 -14 c33 -19 21 -19 -21 0 -71 31 -92 62 -125 187 -22
83 -70 291 -80 343 -2 11 -24 45 -49 75 -25 30 -69 93 -97 140 -28 47 -65 102
-81 123 -16 21 -37 59 -47 85 -10 26 -43 85 -74 131 -31 45 -56 87 -56 93 0 5
-14 30 -31 54 -17 25 -46 79 -65 119 -28 60 -34 86 -34 140 0 36 -7 82 -15
102 -16 37 -20 103 -7 103 4 0 27 -42 51 -93 24 -50 63 -117 86 -147 47 -62
115 -186 115 -210 0 -9 11 -27 25 -40 14 -13 25 -27 25 -31 0 -5 11 -32 24
-61 13 -29 27 -63 30 -75 5 -14 12 -20 22 -16 9 3 14 -2 14 -16 0 -28 34 -44
76 -36 21 4 34 2 34 -5 0 -7 7 -6 19 2 17 10 24 7 49 -20 17 -18 40 -32 51
-32 12 0 29 -4 39 -9 46 -25 110 -48 136 -50 16 0 35 -6 43 -12 7 -7 21 -13
31 -14 39 -4 124 -46 130 -64 6 -18 -32 -12 -89 13 -55 24 -187 59 -269 71
-25 3 -54 9 -65 12 -14 4 -11 -2 11 -21 18 -14 38 -26 46 -26 8 0 32 -13 54
-30 21 -16 44 -30 49 -30 15 0 76 -75 97 -118 10 -20 27 -44 37 -54 18 -16 21
-16 36 -2 12 12 19 13 29 5 9 -8 22 -8 40 -1 17 6 35 6 52 0 14 -6 23 -6 20
-2 -2 4 12 9 32 9 60 3 81 7 76 15 -7 11 9 10 40 -2 25 -9 31 -4 28 21 -1 4 6
6 15 5 23 -2 27 19 6 39 -19 19 -28 49 -11 39 5 -3 24 -3 43 0 24 5 35 13 37
28 5 35 28 34 28 -2 0 -19 4 -29 11 -25 6 4 8 14 5 22 -3 8 3 24 14 35 20 22
20 22 -1 44 l-21 23 22 35 c12 20 28 36 36 36 8 0 14 6 14 14 0 9 7 12 19 9
13 -3 24 2 33 16 7 12 17 21 23 21 5 0 20 15 33 33 23 32 23 32 16 5 -8 -37 0
-35 25 5 16 26 28 34 52 35 17 0 36 6 44 12 8 7 42 9 89 7 78 -5 107 7 90 35
-10 15 -7 50 7 96 6 18 7 41 3 50 -14 32 -11 176 3 193 8 9 13 20 12 25 -3 20
3 32 41 74 22 25 46 52 53 60 14 17 11 60 -4 60 -6 0 -8 4 -4 9 3 5 0 13 -6
16 -5 4 -8 13 -5 20 3 8 0 15 -7 18 -6 2 -13 23 -14 48 -1 24 -7 91 -12 148
-6 58 -8 107 -5 110 6 6 38 -29 61 -65 11 -17 12 -17 12 9 1 16 -4 38 -11 50
-6 12 -13 31 -14 42 -4 38 -23 74 -44 85 -19 10 -29 60 -12 60 28 0 129 -154
119 -182 -5 -16 15 -58 58 -118 17 -25 35 -54 40 -65 11 -29 47 80 55 170 6
68 6 69 19 40 9 -21 12 -79 11 -187 0 -92 3 -158 9 -158 16 0 41 79 41 134 0
29 -7 73 -15 96 -18 52 -19 60 -2 60 29 -1 117 -105 117 -139 0 -12 -18 -41
-39 -64 -22 -23 -55 -60 -74 -82 l-34 -40 -1 -138 c-1 -89 -7 -146 -15 -160
-11 -20 -13 -16 -17 38 -3 33 -2 68 2 77 4 9 1 45 -7 80 -8 35 -18 85 -21 112
-9 76 -26 35 -20 -49 4 -59 3 -66 -6 -42 -7 15 -14 27 -17 27 -15 0 -53 -197
-53 -265 2 -105 25 -160 137 -313 44 -61 66 -82 82 -82 13 0 23 5 23 10 0 6
18 28 40 50 34 34 45 39 68 34 15 -4 24 -3 20 1 -12 13 11 45 27 39 10 -4 15
0 15 14 0 12 8 26 18 31 10 6 12 11 4 11 -7 0 -10 5 -7 11 4 6 13 8 21 5 8 -3
14 -1 14 4 0 6 4 10 9 10 8 0 45 -113 57 -176 5 -28 1 -34 -63 -86 -37 -30
-97 -77 -133 -103 -36 -26 -66 -48 -67 -49 -2 -1 8 -31 22 -65 36 -92 109
-225 175 -316 32 -44 67 -101 78 -125 29 -64 85 -244 122 -390 17 -69 38 -139
46 -157 8 -17 14 -37 14 -45 1 -21 43 -142 93 -263 104 -255 120 -294 167
-400 28 -62 50 -117 50 -123 0 -9 246 -12 995 -12 l995 0 0 3375 0 3375 -2007
0 c-1402 0 -2010 -3 -2019 -11 -7 -6 -10 -17 -7 -25 3 -8 0 -14 -7 -14 -6 0
-9 4 -5 9 7 12 -22 41 -41 41 -8 0 -14 -4 -14 -10 0 -5 -12 -10 -27 -9 -25 0
-26 1 -8 9 11 5 -431 8 -990 8 -672 0 -999 -3 -976 -9z m1946 -19 c3 -6 -1 -7
-9 -4 -18 7 -21 14 -7 14 6 0 13 -4 16 -10z m79 -51 c18 3 23 0 23 -15 0 -14
-2 -14 -14 2 -7 10 -13 12 -13 6 0 -10 -3 -10 -14 0 -8 7 -12 17 -9 22 3 4 9
3 13 -4 4 -6 10 -11 14 -11z m-1779 2 c3 -5 2 -12 -3 -15 -5 -3 -9 1 -9 9 0
17 3 19 12 6z m545 -33 c0 -12 -3 -18 -7 -14 -11 10 -12 36 -2 36 5 0 9 -10 9
-22z m3026 -68 c32 5 47 3 60 -9 10 -10 14 -11 9 -3 -6 11 -3 12 14 3 23 -13
44 -45 34 -54 -3 -4 2 -9 11 -13 9 -3 13 -10 10 -15 -3 -5 0 -9 7 -9 8 0 8 -4
-1 -15 -9 -10 -9 -15 -1 -15 6 0 11 -7 11 -16 0 -8 7 -22 15 -30 8 -9 15 -25
15 -36 0 -13 5 -18 14 -15 15 6 30 -19 20 -34 -3 -5 -1 -9 3 -9 5 0 16 -18 26
-40 9 -22 24 -40 32 -40 9 0 22 -15 30 -32 8 -18 14 -27 15 -20 0 21 21 13 55
-21 40 -40 98 -135 90 -148 -4 -5 -2 -9 4 -9 6 0 8 -7 5 -15 -4 -8 -1 -22 6
-30 6 -8 9 -19 5 -25 -3 -5 -1 -10 5 -10 7 0 9 -7 6 -16 -3 -8 -2 -12 4 -9 6
4 7 -6 4 -25 -4 -18 -2 -30 4 -30 6 0 9 -12 7 -27 -1 -15 4 -33 12 -41 11 -11
11 -17 3 -22 -9 -5 -9 -9 -1 -14 6 -4 11 -2 11 4 0 7 6 10 13 7 16 -6 47 11
47 26 0 8 -3 8 -9 -1 -12 -20 -44 -11 -47 13 -3 20 -2 20 12 1 7 -11 15 -18
17 -15 2 2 13 17 25 33 12 16 22 24 22 17 0 -6 5 -11 10 -11 5 0 9 5 7 12 -1
7 3 12 10 13 7 0 19 9 28 20 16 20 16 19 10 -5 -5 -21 -4 -22 5 -7 6 9 21 28
33 41 12 13 28 31 35 40 7 9 18 13 24 10 7 -5 9 -1 5 9 -3 10 -2 17 3 17 6 0
10 10 10 21 0 19 2 20 17 8 15 -12 16 -12 10 4 -4 11 -4 24 0 30 5 7 10 0 14
-18 6 -28 7 -28 9 10 1 32 3 36 10 20 7 -17 9 -16 10 10 l0 30 20 -25 c15 -18
18 -20 13 -6 -4 13 -3 17 5 12 7 -4 12 -14 12 -22 0 -17 17 -19 22 -3 2 6 12
-7 22 -30 11 -22 25 -41 33 -41 8 0 11 -5 7 -12 -5 -8 0 -9 14 -6 14 4 20 2
15 -5 -4 -6 0 -8 10 -4 11 4 14 2 10 -9 -5 -13 6 -18 34 -15 6 1 14 -3 18 -9
3 -5 2 -10 -3 -10 -10 0 -11 -31 -2 -40 3 -3 11 -18 19 -35 l13 -30 -24 20
-23 20 18 -21 c9 -11 17 -24 17 -29 0 -4 7 -13 15 -19 17 -13 20 -41 9 -111
-4 -27 -8 -60 -8 -72 -1 -13 -4 -23 -8 -23 -4 0 -5 -9 -3 -21 3 -16 0 -19 -12
-15 -13 5 -14 4 -3 -9 7 -8 9 -15 4 -15 -4 0 -3 -5 4 -12 9 -9 7 -17 -11 -37
-12 -13 -17 -21 -10 -17 6 3 14 2 18 -4 3 -5 0 -10 -7 -10 -8 0 -9 -3 -3 -8
15 -11 19 -46 4 -36 -8 5 -9 3 -3 -7 12 -20 13 -36 4 -69 -5 -18 -5 -32 1 -36
6 -4 6 -10 0 -18 -6 -7 -9 -15 -7 -17 11 -11 14 -59 4 -59 -6 0 -9 -3 -6 -6 4
-3 3 -18 -1 -32 -5 -15 -2 -72 5 -127 8 -55 14 -158 15 -230 0 -71 1 -155 2
-185 1 -88 -17 -133 -81 -197 -31 -32 -55 -61 -54 -65 1 -4 -4 -5 -12 -2 -8 3
-21 -4 -29 -16 -11 -16 -16 -18 -21 -8 -3 7 -4 2 -2 -12 5 -24 5 -25 -11 -5
-15 20 -15 20 -10 -2 3 -13 0 -26 -5 -30 -7 -3 -8 -1 -4 5 10 16 -16 15 -33 0
-11 -10 -13 -10 -7 0 6 11 -11 17 -36 13 -5 0 -8 3 -8 7 0 5 -6 9 -12 10 -28
2 -47 8 -61 21 -9 7 -21 11 -29 10 -7 -2 -22 2 -33 8 -61 33 -106 -31 -70
-100 15 -28 15 -143 0 -166 -11 -19 15 -51 40 -51 14 0 25 -5 25 -11 0 -6 -8
-9 -17 -6 -61 19 -63 19 -63 3 0 -10 4 -15 9 -12 5 4 12 -7 16 -24 4 -16 12
-28 18 -27 7 1 11 -4 9 -11 -2 -10 2 -10 17 -3 17 9 18 8 14 -12 -5 -21 -5
-21 9 -4 13 18 14 18 32 -2 16 -17 16 -21 4 -26 -8 -3 -15 -12 -15 -20 0 -11
4 -12 14 -4 9 8 13 8 13 1 0 -6 -7 -15 -16 -20 -15 -8 -15 -10 0 -15 10 -4 15
-3 12 2 -3 5 1 11 9 14 9 4 12 1 9 -7 -3 -8 0 -17 5 -21 6 -3 9 -11 6 -16 -4
-5 -2 -9 3 -9 6 0 8 -9 5 -20 -3 -11 -10 -20 -15 -20 -5 0 -6 9 -3 20 4 12 2
20 -5 20 -6 0 -8 -4 -5 -10 3 -5 1 -10 -6 -10 -14 0 14 -47 44 -73 16 -14 22
-15 28 -5 7 10 9 9 9 -3 0 -23 26 -44 33 -27 4 9 6 7 6 -4 1 -9 10 -20 21 -23
11 -4 18 -11 14 -16 -3 -6 0 -16 6 -24 7 -8 9 -22 6 -31 -3 -8 1 -25 8 -36 15
-21 15 -20 22 7 5 20 9 23 15 13 6 -9 9 -6 10 12 0 23 1 23 9 5 7 -17 9 -17 9
-3 1 9 13 29 28 42 l27 26 14 -23 c11 -18 12 -18 6 -2 -3 11 -7 26 -7 33 0 6
-5 12 -10 12 -6 0 -3 8 6 18 10 11 13 23 8 31 -11 17 20 52 32 37 5 -7 14 -3
26 12 23 26 28 27 28 7 0 -8 -4 -15 -9 -15 -5 0 -6 -5 -3 -11 5 -7 13 -5 25 6
12 11 24 14 32 9 15 -10 20 -11 49 -13 15 -1 19 -6 14 -20 -5 -17 -2 -19 27
-16 64 7 151 49 168 80 10 19 18 23 44 18 17 -3 45 -7 63 -10 34 -5 83 -46 83
-69 0 -8 24 -37 52 -65 49 -49 53 -55 51 -98 -1 -25 -5 -66 -9 -90 -4 -25 -1
-66 6 -95 10 -43 10 -60 -3 -104 -9 -29 -23 -59 -31 -67 -11 -11 -12 -23 -4
-54 8 -33 7 -43 -6 -56 -9 -9 -20 -14 -26 -10 -5 3 -7 0 -4 -8 10 -27 -26 -28
-52 -2 -14 14 -29 23 -34 20 -15 -9 -58 16 -63 37 -4 15 -11 18 -26 13 -15 -4
-21 -2 -21 8 0 20 -24 28 -60 20 -17 -3 -30 -2 -30 3 0 5 -22 10 -49 10 -34 1
-58 8 -77 23 -14 11 -30 19 -34 16 -4 -3 -13 2 -20 10 -7 8 -16 15 -21 15 -14
0 -57 -52 -75 -91 -9 -21 -21 -36 -27 -32 -6 4 -8 0 -4 -11 4 -9 3 -15 -2 -11
-12 7 -54 -62 -46 -75 3 -5 3 -10 -2 -10 -4 0 -8 -11 -8 -25 0 -14 3 -25 7
-25 4 0 5 -9 3 -20 -2 -11 0 -33 5 -50 5 -17 5 -32 0 -35 -5 -3 -7 -11 -5 -18
12 -42 15 -68 5 -62 -19 12 -10 -1 17 -26 l28 -24 -20 25 -20 25 23 -19 c12
-11 22 -26 22 -35 0 -14 2 -14 10 -1 8 12 10 12 10 -5 0 -17 2 -17 10 -5 7 11
10 11 10 2 0 -7 5 -10 10 -7 6 3 10 1 10 -5 0 -6 4 -9 9 -6 5 4 11 1 13 -6 3
-7 18 -13 34 -14 47 -2 49 -3 71 -23 12 -11 24 -17 27 -14 3 4 6 -1 6 -10 0
-9 5 -16 12 -14 6 1 14 -7 16 -17 6 -28 29 -50 35 -33 3 9 10 9 28 -2 18 -11
24 -11 27 -1 3 7 13 21 22 30 10 10 16 21 13 24 -4 3 1 6 10 6 10 0 25 9 34
19 9 11 21 17 27 14 6 -4 4 1 -4 12 -14 17 -13 17 9 10 16 -5 21 -4 17 4 -4 6
0 11 9 11 9 0 14 4 11 9 -3 5 4 11 15 14 12 3 18 10 15 15 -3 6 6 13 20 16 16
4 24 12 21 21 -3 7 1 19 8 25 8 7 13 16 10 20 -6 9 25 23 33 15 3 -3 -1 -5 -8
-5 -7 0 -11 -2 -8 -5 2 -3 18 2 35 10 21 11 38 13 54 7 13 -5 30 -7 38 -4 8 3
11 0 7 -7 -4 -6 0 -11 9 -11 11 0 15 -5 12 -14 -3 -8 1 -17 10 -20 14 -6 14
-8 -3 -21 -19 -14 -19 -14 1 -15 13 -1 15 -4 6 -7 -11 -5 -11 -7 0 -14 12 -7
11 -9 -1 -9 -13 0 -13 -1 0 -10 11 -7 11 -10 2 -10 -7 0 -10 -4 -7 -10 3 -6 0
-10 -7 -10 -9 0 -9 -3 2 -10 11 -7 11 -10 2 -10 -10 0 -10 -5 -2 -20 7 -12 7
-20 1 -20 -12 0 -7 -30 9 -59 6 -12 8 -21 5 -21 -4 0 -3 -5 1 -12 12 -19 13
-71 1 -86 -6 -8 -6 -12 2 -12 16 0 13 -14 -9 -40 -11 -12 -17 -27 -14 -32 3
-5 -8 -22 -25 -37 -17 -15 -31 -38 -31 -50 0 -14 -4 -20 -11 -15 -8 4 -9 -1
-4 -16 6 -18 4 -22 -9 -17 -8 3 -18 2 -21 -3 -3 -4 0 -10 6 -12 5 -2 7 -11 3
-21 -3 -10 -12 -16 -19 -13 -8 3 -16 -2 -19 -10 -3 -8 1 -14 9 -14 20 0 19 -7
-4 -31 -10 -11 -17 -29 -14 -39 3 -10 0 -21 -6 -24 -6 -4 -11 -12 -11 -17 0
-6 5 -7 10 -4 5 3 10 2 10 -4 0 -5 -4 -11 -9 -13 -5 -1 2 -36 16 -77 19 -57
25 -99 28 -186 2 -77 10 -133 24 -179 12 -38 21 -76 21 -86 0 -10 18 -51 39
-92 71 -132 115 -302 141 -538 6 -58 20 -148 30 -200 13 -64 16 -106 11 -130
l-8 -35 -14 47 c-7 26 -16 45 -20 42 -4 -2 -7 6 -7 19 1 49 -6 93 -19 112 -18
26 -17 40 2 25 22 -18 18 -1 -11 50 -14 24 -27 62 -30 85 -2 22 -10 57 -16 78
-9 28 -9 40 0 49 25 25 5 138 -29 171 -23 21 -26 35 -4 17 28 -23 30 0 5 46
-30 55 -113 145 -157 170 -18 10 -33 24 -33 31 0 18 7 16 46 -14 39 -29 59
-22 49 18 -9 33 -21 48 -90 104 -62 50 -103 95 -87 95 5 0 17 -9 27 -20 13
-15 21 -17 31 -9 19 15 47 -6 75 -57 26 -49 49 -64 49 -34 0 25 -75 209 -91
224 -9 8 -10 5 -6 -12 6 -27 -1 -52 -14 -52 -5 0 -9 8 -9 18 0 9 -9 23 -20 30
-12 7 -20 23 -20 40 0 25 -7 31 -52 49 -29 12 -60 21 -68 21 -8 0 -36 4 -62
10 -51 10 -64 6 -47 -15 6 -7 8 -13 4 -13 -4 0 -16 11 -26 25 -18 22 -76 42
-106 37 -7 -2 -13 1 -13 6 0 13 -45 29 -100 38 -25 3 -49 9 -55 13 -43 31
-167 38 -259 15 -21 -5 -27 -4 -22 5 4 6 3 11 -3 11 -5 0 -12 -6 -14 -12 -3
-8 -6 -6 -6 5 -1 22 -65 23 -136 2 -49 -15 -112 -13 -160 5 -11 5 -81 70 -155
145 -74 76 -176 179 -226 229 -90 91 -91 91 -104 161 -6 39 -23 117 -36 174
-13 57 -23 106 -21 108 3 2 11 -7 20 -19 8 -13 35 -45 61 -72 44 -48 46 -49
72 -36 14 8 44 32 66 53 40 39 40 39 21 60 -11 12 -26 31 -34 43 -8 11 -49 68
-92 125 -43 57 -86 115 -95 128 -80 114 -203 221 -272 236 -16 4 -30 11 -30
16 0 5 -7 9 -15 9 -8 0 -15 -4 -15 -9 0 -5 -5 -22 -11 -38 l-10 -28 -16 33
c-14 30 -14 36 2 78 9 25 14 56 11 69 -8 32 6 39 35 16 13 -10 29 -16 35 -14
6 2 17 -3 23 -11 14 -17 99 -13 138 6 18 9 20 14 10 30 -10 17 -8 23 21 47 17
15 32 34 32 42 0 8 14 29 30 47 17 18 30 37 30 41 0 5 7 15 16 22 9 7 20 24
25 37 7 19 14 23 33 18 20 -5 27 0 40 26 9 17 16 32 16 34 0 1 -22 17 -49 34
-36 24 -48 38 -46 51 2 11 0 17 -6 14 -5 -4 -16 1 -25 9 -8 9 -22 16 -30 16
-8 0 -14 9 -14 20 0 17 -5 19 -25 14 -20 -5 -24 -3 -19 10 5 14 18 20 27 14 1
-1 12 4 25 11 27 15 29 35 2 28 -32 -8 -23 7 13 23 19 9 63 15 109 15 43 0 78
1 78 3 0 1 -4 10 -9 20 -6 9 -13 30 -16 46 -3 15 -9 26 -12 23 -3 -4 -22 1
-42 9 -55 24 -218 23 -321 -2 -14 -3 -32 -5 -40 -5 -8 1 -24 1 -35 0 -11 -1
-33 -2 -50 -3 -30 -1 -56 -16 -49 -27 2 -4 -3 -10 -12 -13 -10 -4 -13 -2 -9 7
4 6 1 5 -7 -3 -11 -14 -32 -18 -48 -11 -19 9 -37 7 -37 -5 0 -7 4 -11 8 -8 4
2 11 -1 15 -7 5 -8 -1 -10 -20 -7 -18 4 -25 1 -24 -8 4 -16 -4 -17 -43 -9 -20
5 -38 2 -55 -9 -19 -13 -29 -14 -45 -5 -17 9 -20 8 -14 -2 6 -8 4 -10 -6 -4
-32 20 -58 49 -52 58 3 5 0 8 -8 5 -16 -5 -72 49 -64 62 3 6 -1 7 -9 4 -11 -4
-16 0 -16 10 0 9 -7 16 -15 16 -9 0 -18 7 -22 16 -4 11 -13 14 -29 10 -14 -4
-24 -2 -24 4 0 6 -10 8 -23 5 -16 -4 -31 1 -50 19 -32 29 -38 31 -55 14 -7 -7
-12 -8 -12 -4 0 5 -7 3 -15 -4 -10 -9 -15 -9 -15 -1 0 6 -7 11 -16 11 -9 0
-34 16 -57 35 -23 20 -59 41 -82 47 -22 6 -46 18 -53 27 -11 13 -14 14 -21 2
-8 -12 -12 -12 -26 2 -9 10 -21 15 -26 12 -5 -4 -19 1 -31 9 -32 23 -240 23
-258 1 -7 -8 -23 -15 -36 -15 -13 0 -27 -7 -32 -16 -7 -12 -11 -13 -16 -5 -12
20 14 41 51 41 44 0 55 26 22 51 -13 10 -18 19 -11 19 9 0 10 5 3 19 -6 10 -7
21 -4 25 3 3 -2 6 -13 6 -16 0 -17 2 -4 10 12 8 12 10 -5 11 -11 0 -14 3 -7 6
9 3 10 9 2 18 -12 14 3 65 19 65 5 0 8 11 7 24 0 13 -4 22 -8 19 -5 -2 -8 0
-8 6 0 5 6 11 13 14 7 3 2 9 -13 15 -19 8 -21 11 -6 11 13 1 16 6 12 17 -7 18
19 54 39 54 18 0 66 26 59 32 -6 7 49 48 64 48 5 0 12 6 15 13 3 8 25 14 53
15 27 2 57 5 67 8 9 3 17 0 17 -6 0 -6 10 -4 24 5 28 19 80 23 115 11 21 -7
23 -6 18 14 -4 17 -3 20 6 11 6 -6 20 -11 32 -11 12 0 26 -5 33 -12 9 -9 12
-8 12 5 0 19 15 23 25 7 10 -16 28 -12 21 5 -7 18 5 20 22 3 9 -9 12 -9 12 2
0 9 5 8 20 -5 19 -17 21 -17 41 1 16 14 24 16 39 7 14 -10 21 -8 36 8 22 24
50 19 102 -16 32 -22 38 -23 52 -10 23 21 26 19 25 -12 0 -20 7 -31 22 -38 13
-5 22 -14 21 -20 -2 -18 20 -62 35 -68 8 -3 32 -1 53 4 65 16 207 41 244 43
66 3 160 -49 160 -89 0 -8 7 -15 16 -15 11 0 14 -6 9 -21 -5 -15 -4 -19 4 -15
6 4 11 0 11 -8 0 -9 3 -15 8 -14 18 5 52 -25 62 -58 7 -20 28 -50 46 -66 19
-17 34 -36 34 -44 0 -8 4 -14 9 -14 6 0 16 -20 23 -44 11 -36 28 -57 95 -114
124 -107 149 -137 167 -202 21 -75 34 -86 81 -70 27 9 35 17 32 29 -3 9 -12
39 -20 66 -8 28 -32 93 -54 145 -22 52 -46 115 -53 140 -16 60 -149 331 -194
398 -20 30 -36 57 -36 61 0 5 -17 30 -37 57 -26 36 -30 43 -12 29 13 -11 28
-26 32 -32 4 -7 14 -13 22 -13 8 0 53 -58 102 -129 48 -71 90 -128 92 -125 2
2 -7 21 -21 41 -48 73 -110 185 -105 190 3 2 11 -6 18 -19 7 -12 44 -68 82
-123 38 -54 87 -135 109 -180 22 -44 51 -101 64 -127 13 -27 24 -58 24 -70 0
-13 9 -41 19 -63 14 -31 20 -36 26 -23 3 9 -1 30 -9 47 -9 17 -18 43 -20 58
-4 27 -18 75 -36 118 -4 11 -13 39 -19 63 -7 24 -23 64 -37 89 -13 25 -24 51
-24 57 0 6 -22 49 -49 96 -32 55 -45 87 -38 92 8 5 5 14 -7 27 -11 12 -15 21
-10 21 12 0 113 -113 114 -127 0 -14 20 -18 20 -4 0 20 -24 77 -37 88 -8 6
-13 20 -11 30 3 14 9 10 32 -22 28 -39 28 -39 22 -10 -3 17 -9 41 -12 55 -7
23 -6 24 10 11 23 -19 32 -7 18 24 -7 14 -12 35 -12 47 0 22 -25 57 -115 155
-33 37 -52 63 -42 60 14 -5 16 -3 8 12 -6 10 -20 25 -33 34 -36 25 -121 107
-111 107 5 0 27 -15 49 -33 21 -19 58 -46 80 -60 l42 -26 -15 30 c-8 17 -30
40 -49 52 -35 23 -48 45 -15 28 10 -6 21 -8 24 -4 4 3 12 1 20 -5 7 -6 26 -16
42 -21 l30 -11 -22 19 c-13 11 -23 24 -23 30 0 5 -28 43 -62 82 -59 68 -63 83
-11 36 13 -11 26 -17 30 -13 4 4 -1 15 -13 24 -11 9 -25 24 -32 34 -12 15 -9
15 25 8 20 -5 39 -7 41 -5 2 2 -13 26 -33 52 -32 41 -28 38 28 -19 69 -71 143
-186 178 -278 56 -146 102 -279 110 -317 4 -23 17 -59 28 -80 20 -41 80 -212
87 -253 3 -14 9 -26 15 -28 5 -2 9 -11 9 -20 0 -13 2 -14 13 -3 10 11 10 14 0
18 -16 6 -17 35 -3 49 6 6 11 45 12 87 0 43 4 77 8 77 4 0 7 19 8 43 1 25 11
54 23 72 12 17 16 24 8 18 -7 -7 -16 -13 -21 -13 -10 0 2 33 17 45 15 13 25
64 14 71 -5 3 -9 10 -9 15 0 6 4 8 9 5 5 -3 12 1 15 10 4 10 2 13 -7 8 -6 -4
-1 5 13 21 14 16 19 25 11 20 -11 -6 -13 -4 -6 11 4 10 8 27 9 36 1 10 6 21
11 25 4 5 5 2 1 -4 -4 -7 -2 -13 3 -13 6 0 11 6 11 14 0 8 6 16 14 19 14 6 16
30 4 43 -4 3 -12 3 -19 -2 -9 -5 -7 -11 6 -21 11 -7 13 -13 7 -13 -7 0 -15 0
-19 0 -10 0 -9 19 1 42 5 10 12 15 17 12 5 -3 9 2 9 11 0 9 -4 14 -8 11 -5 -3
-9 1 -9 9 0 8 4 15 9 15 5 0 4 9 -2 21 -10 17 -14 18 -28 7 -15 -12 -16 -11
-3 4 7 10 11 25 7 33 -3 9 -2 13 3 10 6 -3 14 3 20 12 10 17 10 17 11 1 0 -10
-4 -18 -8 -18 -5 0 -9 -6 -9 -14 0 -17 23 -10 24 7 1 7 4 36 8 65 6 52 4 57
-32 53 -6 -1 -14 3 -18 9 -5 9 6 14 26 12 3 -1 6 5 6 12 0 7 -6 13 -13 13 -7
0 -11 -3 -9 -7 2 -4 -2 -7 -10 -7 -8 0 -12 4 -9 9 3 5 -2 20 -11 34 -9 13 -13
28 -11 33 8 12 -19 33 -28 23 -4 -4 -7 -2 -6 3 5 21 -1 29 -10 15 -6 -9 -10
-10 -10 -3 0 23 21 24 40 1 11 -13 19 -18 20 -11 0 6 -5 15 -10 18 -6 4 -8 10
-6 14 3 4 -8 7 -24 7 -23 0 -29 -5 -34 -29 -3 -16 -3 -34 1 -40 3 -6 1 -7 -5
-3 -14 8 -50 -26 -44 -42 2 -7 9 -9 14 -6 7 4 8 2 4 -5 -4 -6 -12 -9 -17 -6
-5 4 -12 -1 -15 -9 -3 -9 -10 -13 -15 -10 -5 3 -9 -2 -9 -11 0 -9 -4 -13 -10
-10 -5 3 -11 0 -12 -7 0 -7 -2 -17 -3 -23 -2 -5 -3 -16 -4 -22 -1 -8 -16 -13
-37 -13 -33 0 -35 2 -23 17 13 16 12 16 -14 0 -15 -10 -33 -15 -39 -11 -7 5
-8 3 -4 -5 5 -7 14 -10 22 -7 8 3 24 1 36 -4 20 -7 17 -9 -18 -9 -34 -1 -47 5
-77 35 -20 20 -34 40 -32 44 2 4 -8 13 -22 19 -22 10 -24 14 -12 22 11 7 11 9
-4 9 -10 0 -22 11 -26 24 -5 13 -21 36 -35 51 -23 24 -32 50 -27 78 0 4 -4 7
-10 7 -5 0 -8 4 -5 9 3 5 -1 11 -9 15 -8 3 -15 0 -15 -7 -1 -7 -6 -5 -14 6 -7
9 -18 17 -25 17 -6 0 -11 5 -11 11 0 5 -4 8 -9 4 -5 -3 -12 -1 -16 5 -3 5 -12
10 -19 10 -7 0 -32 18 -55 40 -41 39 -61 44 -61 14 0 -20 -12 -18 -54 11 -20
14 -47 25 -59 25 -17 0 -19 2 -8 9 12 8 9 11 -12 16 -15 4 -27 13 -27 19 0 7
-16 19 -35 26 -22 9 -34 19 -31 27 3 7 -1 13 -10 13 -20 0 -65 29 -87 57 -10
13 -24 23 -32 23 -7 0 -16 7 -19 16 -4 11 -13 14 -27 11 -15 -4 -23 1 -31 19
-6 13 -16 24 -21 24 -13 0 -86 58 -159 127 -57 53 -72 61 -83 44 -6 -11 -43 0
-101 28 l-34 17 26 40 c21 33 64 62 94 65 3 0 15 7 28 15 17 11 22 11 22 2 0
-8 13 -13 35 -13 19 0 35 4 35 8 0 5 5 5 10 2 6 -4 7 -11 4 -17 -5 -7 -2 -9 8
-5 9 3 25 -1 37 -9 11 -8 21 -12 21 -8 0 3 6 1 14 -5 11 -9 16 -9 22 0 4 8 11
4 20 -12 9 -15 14 -19 14 -9 1 11 3 10 9 -3 4 -10 9 -17 11 -16 3 1 15 -3 27
-9 16 -9 23 -9 26 1 3 7 6 4 6 -6 1 -10 5 -16 10 -12 6 3 14 -3 20 -12 7 -12
10 -13 11 -4 0 7 6 11 15 8 8 -4 17 -2 20 3 3 5 12 7 20 3 9 -3 22 0 29 6 10
8 16 9 21 1 9 -15 28 -1 21 16 -3 8 -1 14 4 14 6 0 10 7 10 15 0 16 46 65 60
65 6 0 10 3 10 8 0 4 9 13 21 20 12 8 19 9 15 4 -3 -5 1 -9 9 -9 8 0 12 4 10
8 -3 3 2 12 10 19 8 7 15 8 15 3 0 -5 7 -10 15 -10 11 0 12 4 4 13 -6 8 -7 14
0 18 5 4 14 -2 20 -11 6 -10 11 -12 11 -5 0 6 3 11 8 11 19 -3 33 2 27 11 -4
6 2 7 16 2 12 -5 41 -5 65 -2z m-2858 -55 c-3 -3 -9 2 -12 12 -6 14 -5 15 5 6
7 -7 10 -15 7 -18z m1162 -375 c0 -15 -26 -23 -41 -14 -9 5 -7 10 7 15 27 11
34 10 34 -1z m50 -5 c11 -13 10 -14 -4 -9 -9 3 -16 10 -16 15 0 13 6 11 20 -6z
m-50 -35 c0 -5 -7 -7 -15 -4 -8 4 -15 8 -15 10 0 2 7 4 15 4 8 0 15 -4 15 -10z
m2825 -239 c3 -5 1 -12 -5 -16 -5 -3 -10 1 -10 9 0 18 6 21 15 7z m-1194 -38
c13 -16 12 -17 -3 -4 -10 7 -18 15 -18 17 0 8 8 3 21 -13z m-31 -9 c0 -2 -7
-4 -15 -4 -8 0 -15 4 -15 10 0 5 7 7 15 4 8 -4 15 -8 15 -10z m1237 1 c0 -8
-4 -12 -9 -9 -4 3 -8 9 -8 15 0 5 4 9 8 9 5 0 9 -7 9 -15z m-1257 -135 c0 -5
-2 -10 -4 -10 -3 0 -8 5 -11 10 -3 6 -1 10 4 10 6 0 11 -4 11 -10z m-2074
-115 c-3 -9 -11 -13 -16 -10 -8 5 -7 11 1 21 14 18 24 11 15 -11z m1929 -53
c-3 -3 -11 0 -18 7 -9 10 -8 11 6 5 10 -3 15 -9 12 -12z m748 -6 c7 3 3 -2 -7
-10 -25 -20 -32 -20 -40 0 -6 15 -4 15 11 3 15 -12 16 -12 11 3 -4 9 -4 19 0
23 4 4 8 0 10 -9 2 -9 9 -14 15 -10z m197 -9 c0 -7 -10 -25 -23 -40 -22 -29
-23 -29 -24 -5 0 12 1 17 4 10 4 -10 10 -7 21 9 11 17 12 24 4 27 -7 2 -10 8
-6 13 7 12 24 2 24 -14z m-810 -59 c0 -6 -6 -5 -15 2 -8 7 -15 14 -15 16 0 2
7 1 15 -2 8 -4 15 -11 15 -16z m54 -47 c-2 -3 -12 3 -22 13 -16 17 -16 18 5 5
12 -7 20 -15 17 -18z m-2238 -457 c-4 -9 -9 -15 -11 -12 -3 3 -3 13 1 22 4 9
9 15 11 12 3 -3 3 -13 -1 -22z m34 -153 c0 -6 -4 -13 -10 -16 -5 -3 -10 1 -10
9 0 9 5 16 10 16 6 0 10 -4 10 -9z m254 -648 c-10 -84 -19 -103 -49 -103 -14
0 -25 5 -25 11 0 13 70 149 77 149 2 0 1 -26 -3 -57z m2944 32 c-3 -3 -9 2
-12 12 -6 14 -5 15 5 6 7 -7 10 -15 7 -18z m-2243 -85 c4 -6 21 -16 38 -24 44
-19 121 -87 108 -96 -7 -4 0 -17 19 -35 16 -16 30 -32 30 -37 0 -4 -18 -8 -41
-8 -33 0 -47 -6 -69 -30 l-28 -30 -27 42 c-18 27 -33 68 -40 114 -7 39 -16 81
-20 93 -4 15 -2 21 9 21 8 0 18 -5 21 -10z m425 -30 c0 -5 -2 -10 -4 -10 -3 0
-8 5 -11 10 -3 6 -1 10 4 10 6 0 11 -4 11 -10z m217 -105 c0 -7 -7 -12 -16
-10 -22 3 -24 20 -3 22 10 1 19 -4 19 -12z m3 -33 c0 -4 -4 -13 -10 -20 -7 -9
-7 -9 2 -2 17 14 28 12 22 -4 -3 -8 5 -21 18 -30 12 -9 18 -16 12 -16 -5 0
-19 7 -32 15 -12 9 -39 23 -59 31 -27 10 -30 13 -10 9 19 -4 29 -1 33 10 6 16
24 21 24 7z m-2050 -130 c0 -15 -2 -15 -10 -2 -13 20 -13 33 0 25 6 -3 10 -14
10 -23z m1976 3 c18 -14 18 -14 -8 -15 -18 0 -28 5 -28 15 0 19 11 19 36 0z
m-1817 -30 c-12 -19 -23 -35 -25 -35 -2 0 4 16 13 35 9 19 20 35 25 35 4 0 -2
-16 -13 -35z m1761 19 c0 -8 -5 -12 -10 -9 -6 4 -8 11 -5 16 9 14 15 11 15 -7z
m-349 -111 c13 -16 12 -17 -3 -4 -17 13 -22 21 -14 21 2 0 10 -8 17 -17z
m-562 -14 c75 -12 167 -52 181 -80 10 -18 8 -19 -77 -13 -108 7 -211 27 -258
50 -54 26 -45 37 40 47 17 2 35 5 40 5 6 1 39 -3 74 -9z m1661 1 c0 -5 -7 -10
-16 -10 -8 0 -12 5 -9 10 3 6 10 10 16 10 5 0 9 -4 9 -10z m-440 -29 c0 -18 8
-35 19 -43 15 -10 16 -18 9 -38 -9 -24 -10 -23 -32 25 -22 47 -24 85 -5 85 5
0 9 -13 9 -29z m-136 -86 c3 -8 1 -15 -4 -15 -6 0 -10 7 -10 15 0 8 2 15 4 15
2 0 6 -7 10 -15z m482 -20 c-3 -9 -11 -13 -16 -10 -8 5 -7 11 1 21 14 18 24
11 15 -11z m1072 -10 c-3 -3 -9 2 -12 12 -6 14 -5 15 5 6 7 -7 10 -15 7 -18z
m-1541 -27 c-3 -8 -6 -5 -6 6 -1 11 2 17 5 13 3 -3 4 -12 1 -19z m-964 -18
c23 -16 33 -28 26 -35 -5 -5 -59 -9 -119 -10 -88 0 -113 3 -120 15 -5 8 -10
11 -10 7 0 -5 -5 -5 -10 -2 -7 4 0 17 16 32 25 23 33 25 104 21 61 -2 84 -8
113 -28z m631 -137 c-16 -12 -16 -19 -6 -90 14 -89 15 -170 3 -228 -7 -33 -9
-25 -10 50 -1 92 -14 230 -26 278 -5 17 -3 27 4 27 6 0 11 -7 11 -15 0 -23 21
-18 28 8 6 20 7 20 10 3 2 -11 -4 -25 -14 -33z m343 -15 c-3 -8 -6 -5 -6 6 -1
11 2 17 5 13 3 -3 4 -12 1 -19z m-1097 -30 l35 -23 -35 -3 c-45 -5 -120 7
-120 18 0 14 32 29 60 30 14 0 41 -10 60 -22z m-31 -112 c8 -10 9 -16 1 -21
-5 -3 -10 -19 -10 -36 0 -16 -4 -29 -9 -29 -5 0 -11 -9 -14 -21 -9 -33 -49
-22 -53 16 -2 16 2 35 8 42 5 7 8 19 5 28 -12 29 51 47 72 21z m3461 -76 c0
-5 -4 -10 -10 -10 -5 0 -10 5 -10 10 0 6 5 10 10 10 6 0 10 -4 10 -10z m-140
-60 c0 -5 -4 -10 -10 -10 -5 0 -10 5 -10 10 0 6 5 10 10 10 6 0 10 -4 10 -10z
m-3396 -26 c18 -7 12 -24 -8 -24 -7 0 -21 7 -32 15 -19 14 -19 14 3 15 12 0
28 -3 37 -6z m1390 -410 c8 -21 -19 -64 -39 -64 -8 0 -15 5 -15 10 0 6 4 10 9
10 5 0 11 14 15 30 6 33 20 39 30 14z m-744 -88 c0 -2 -8 -10 -17 -17 -16 -13
-17 -12 -4 4 13 16 21 21 21 13z m-582 -664 c5 -16 -20 -15 -44 2 -18 14 -17
15 10 13 16 -1 31 -8 34 -15z m3312 -166 c0 -8 -4 -18 -10 -21 -5 -3 -10 3
-10 14 0 12 5 21 10 21 6 0 10 -6 10 -14z m-110 -96 c0 -5 -5 -10 -11 -10 -5
0 -7 5 -4 10 3 6 8 10 11 10 2 0 4 -4 4 -10z m-4036 -52 c-21 -153 -29 -181
-52 -189 -15 -6 -21 -5 -17 2 4 5 -1 22 -10 36 -12 18 -16 37 -12 62 11 69 17
85 38 106 12 11 18 13 14 5 -6 -11 -2 -10 11 3 28 26 34 21 28 -25z m4006 37
c0 -12 -34 -43 -42 -38 -5 3 -2 14 8 24 16 18 34 25 34 14z m-80 -63 c0 -5
-13 -18 -30 -30 -35 -26 -39 -18 -8 15 22 23 38 30 38 15z m-2766 -227 c-4 -8
-11 -15 -16 -15 -6 0 -5 6 2 15 7 8 14 15 16 15 2 0 1 -7 -2 -15z m3226 -159
c0 -3 -4 -8 -10 -11 -5 -3 -10 -1 -10 4 0 6 5 11 10 11 6 0 10 -2 10 -4z
m-3390 -27 c0 -13 -27 -11 -36 3 -4 7 -3 8 4 4 7 -4 12 -2 12 4 0 6 5 8 10 5
6 -3 10 -10 10 -16z m760 -24 c0 -8 -4 -15 -10 -15 -5 0 -7 7 -4 15 4 8 8 15
10 15 2 0 4 -7 4 -15z m37 -7 c-3 -8 -6 -5 -6 6 -1 11 2 17 5 13 3 -3 4 -12 1
-19z m-277 -75 c-8 -4 -20 -13 -26 -21 -8 -11 -15 -12 -30 -4 -18 10 -18 11 6
21 14 5 34 10 45 10 14 -1 16 -2 5 -6z m239 -14 c-22 -14 -33 -10 -19 6 7 8
17 12 22 9 6 -4 5 -10 -3 -15z m-214 -43 c19 -19 0 -26 -63 -25 l-47 1 37 12
c20 6 40 14 44 19 10 10 13 9 29 -7z m2925 -207 c0 -5 -9 -1 -20 8 -11 10 -20
22 -20 27 0 5 9 1 20 -9 11 -10 20 -22 20 -26z m77 -361 c-3 -8 -6 -5 -6 6 -1
11 2 17 5 13 3 -3 4 -12 1 -19z m-2057 -53 c0 -8 -3 -14 -7 -13 -5 0 -16 -2
-25 -6 -9 -4 -25 -6 -35 -4 -15 3 -12 7 12 20 39 21 55 22 55 3z m2077 -22
c-3 -15 -1 -35 4 -45 5 -10 5 -19 0 -22 -5 -3 -11 8 -15 25 -9 46 -7 69 5 69
7 0 9 -11 6 -27z m-2473 -42 c17 -19 17 -19 -3 -14 -12 3 -21 12 -21 19 0 18
4 18 24 -5z m386 -21 c0 -5 -7 -7 -15 -4 -8 4 -15 8 -15 10 0 2 7 4 15 4 8 0
15 -4 15 -10z m-2720 -111 c0 -5 -4 -9 -10 -9 -5 0 -10 7 -10 16 0 8 5 12 10
9 6 -3 10 -10 10 -16z m-316 -5 c8 -20 8 -29 -1 -21 -3 4 -13 1 -22 -5 -9 -7
-13 -8 -9 -4 4 5 2 16 -5 25 -11 14 -10 15 7 1 18 -14 19 -13 13 3 -3 9 -2 17
2 17 5 0 12 -7 15 -16z m2596 6 c0 -5 -2 -10 -4 -10 -3 0 -8 5 -11 10 -3 6 -1
10 4 10 6 0 11 -4 11 -10z m-2304 -68 c0 -19 -29 -23 -43 -7 -5 4 -3 5 3 2 7
-4 17 0 24 8 16 19 16 19 16 -3z"/>
<path d="M7810 6446 c0 -2 7 -9 15 -16 13 -11 14 -10 9 4 -5 14 -24 23 -24 12z"/>
<path d="M7856 6422 c-3 -5 1 -9 9 -9 8 0 15 4 15 9 0 4 -4 8 -9 8 -6 0 -12
-4 -15 -8z"/>
<path d="M7896 6408 c3 -5 10 -6 15 -3 13 9 11 12 -6 12 -8 0 -12 -4 -9 -9z"/>
<path d="M9460 5991 c0 -16 23 -61 31 -61 4 0 5 9 2 20 -3 11 -10 20 -15 20
-5 0 -7 4 -3 9 3 5 1 12 -5 16 -5 3 -10 2 -10 -4z"/>
<path d="M9530 5906 c0 -9 5 -16 10 -16 6 0 10 4 10 9 0 6 -4 13 -10 16 -5 3
-10 -1 -10 -9z"/>
<path d="M9141 5719 c5 -10 12 -19 15 -19 3 0 3 4 0 9 -4 5 -1 11 6 13 7 3 3
7 -10 10 -19 5 -20 4 -11 -13z"/>
<path d="M9144 5668 c-3 -5 -7 -19 -10 -33 -5 -27 14 -44 27 -24 5 8 9 9 9 4
0 -6 -5 -16 -12 -23 -9 -9 -9 -12 3 -12 11 0 15 10 15 35 -1 35 -10 46 -19 23
-3 -7 -4 -3 -4 8 1 14 6 20 14 17 7 -3 13 -1 13 4 0 12 -29 13 -36 1z"/>
<path d="M8969 5583 c-13 -16 -12 -17 4 -4 16 13 21 21 13 21 -2 0 -10 -8 -17
-17z"/>
<path d="M8906 5485 c-3 -8 -1 -15 4 -15 13 0 22 18 11 24 -5 3 -11 -1 -15 -9z"/>
<path d="M9615 5331 c-3 -5 -2 -12 3 -15 5 -3 9 1 9 9 0 17 -3 19 -12 6z"/>
<path d="M8760 4831 c0 -5 5 -13 10 -16 6 -3 10 -2 10 4 0 5 -4 13 -10 16 -5
3 -10 2 -10 -4z"/>
<path d="M8921 4614 c0 -11 3 -14 6 -6 3 7 2 16 -1 19 -3 4 -6 -2 -5 -13z"/>
<path d="M9025 4560 c-3 -5 -1 -10 4 -10 6 0 11 5 11 10 0 6 -2 10 -4 10 -3 0
-8 -4 -11 -10z"/>
<path d="M9030 4531 c0 -7 -4 -9 -10 -6 -17 10 -11 -20 14 -76 l24 -54 -2 63
c-2 35 -8 68 -14 74 -9 9 -12 9 -12 -1z"/>
<path d="M8707 4488 c13 -38 53 -101 53 -83 0 15 -53 125 -60 125 -4 0 -1 -19
7 -42z"/>
<path d="M8940 4392 c0 -18 -4 -32 -10 -32 -10 0 -6 -72 5 -90 3 -5 0 -10 -8
-10 -8 0 -18 -15 -23 -32 -9 -38 -13 -158 -4 -158 17 0 32 51 32 112 1 42 5
71 12 74 13 5 15 148 3 160 -4 4 -7 -7 -7 -24z"/>
<path d="M8766 4367 c3 -10 9 -15 12 -12 3 3 0 11 -7 18 -10 9 -11 8 -5 -6z"/>
<path d="M8790 4282 c6 -13 14 -21 18 -18 3 4 -2 14 -12 24 -18 16 -18 16 -6
-6z"/>
<path d="M9027 4266 c-3 -8 -3 -30 0 -49 4 -29 2 -36 -16 -42 -11 -3 -21 -9
-21 -13 -1 -4 -2 -29 -4 -57 -4 -53 26 -168 49 -192 11 -11 16 -4 30 44 9 31
14 70 11 85 -4 19 -2 27 7 25 9 -1 12 19 11 76 -1 73 -3 80 -32 108 -23 22
-31 26 -35 15z m43 -116 c0 -5 -2 -10 -4 -10 -3 0 -8 5 -11 10 -3 6 -1 10 4
10 6 0 11 -4 11 -10z"/>
<path d="M7445 4180 c3 -5 11 -10 16 -10 6 0 7 5 4 10 -3 6 -11 10 -16 10 -6
0 -7 -4 -4 -10z"/>
<path d="M7915 4079 c-4 -6 -5 -12 -2 -15 2 -3 7 2 10 11 7 17 1 20 -8 4z"/>
<path d="M8956 4014 c-5 -18 -2 -32 10 -45 28 -31 34 -22 17 26 -8 25 -16 45
-18 45 -1 0 -6 -12 -9 -26z"/>
<path d="M7880 4011 c0 -6 4 -13 10 -16 6 -3 7 1 4 9 -7 18 -14 21 -14 7z"/>
<path d="M8835 3940 c-3 -5 -1 -10 4 -10 6 0 11 5 11 10 0 6 -2 10 -4 10 -3 0
-8 -4 -11 -10z"/>
<path d="M8952 3928 c2 -6 10 -13 16 -14 7 -1 8 0 2 3 -5 2 -8 9 -4 14 3 5 0
9 -6 9 -7 0 -10 -5 -8 -12z"/>
<path d="M8825 3909 c-10 -15 3 -25 16 -12 7 7 7 13 1 17 -6 3 -14 1 -17 -5z"/>
<path d="M8865 3880 c-3 -5 1 -10 10 -10 9 0 13 5 10 10 -3 6 -8 10 -10 10 -2
0 -7 -4 -10 -10z"/>
<path d="M9210 3882 c0 -12 19 -26 26 -19 2 2 -2 10 -11 17 -9 8 -15 8 -15 2z"/>
<path d="M8840 3830 c0 -5 7 -10 15 -10 8 0 15 5 15 10 0 6 -7 10 -15 10 -8 0
-15 -4 -15 -10z"/>
<path d="M9248 3773 c7 -3 16 -2 19 1 4 3 -2 6 -13 5 -11 0 -14 -3 -6 -6z"/>
<path d="M9586 3687 c3 -10 9 -15 12 -12 3 3 0 11 -7 18 -10 9 -11 8 -5 -6z"/>
<path d="M9265 3660 c3 -5 8 -10 11 -10 2 0 4 5 4 10 0 6 -5 10 -11 10 -5 0
-7 -4 -4 -10z"/>
<path d="M9580 3649 c0 -5 5 -7 10 -4 6 3 10 8 10 11 0 2 -4 4 -10 4 -5 0 -10
-5 -10 -11z"/>
<path d="M9516 3559 c-23 -33 -20 -46 5 -18 l20 24 -6 -25 c-5 -21 -4 -22 5
-7 7 10 8 23 2 33 -8 14 -11 14 -26 -7z"/>
<path d="M8680 2988 c0 -7 -3 -24 -7 -38 -9 -36 6 -19 17 19 5 19 5 31 -1 31
-5 0 -9 -6 -9 -12z"/>
<path d="M9503 2905 c0 -8 4 -12 9 -9 5 3 6 10 3 15 -9 13 -12 11 -12 -6z"/>
<path d="M10160 2091 c0 -6 5 -13 10 -16 6 -3 10 1 10 9 0 9 -4 16 -10 16 -5
0 -10 -4 -10 -9z"/>
<path d="M4688 6723 c7 -3 16 -2 19 1 4 3 -2 6 -13 5 -11 0 -14 -3 -6 -6z"/>
<path d="M2265 6590 c10 -11 20 -20 23 -20 3 0 -3 9 -13 20 -10 11 -20 20 -23
20 -3 0 3 -9 13 -20z"/>
<path d="M2381 6536 c-9 -11 -10 -20 -2 -33 6 -11 11 -13 11 -5 0 7 5 10 12 6
6 -4 8 -3 4 4 -3 5 -1 12 5 14 7 2 6 8 -4 16 -11 10 -17 9 -26 -2z m12 -11
c-3 -9 -8 -14 -10 -11 -3 3 -2 9 2 15 9 16 15 13 8 -4z"/>
<path d="M2650 6441 c0 -10 7 -24 15 -31 13 -11 13 -8 4 19 -12 35 -19 40 -19
12z"/>
<path d="M2524 6419 c-4 -7 -3 -9 4 -5 5 3 12 0 15 -6 2 -7 7 -10 11 -7 4 3 0
12 -8 18 -11 9 -16 9 -22 0z"/>
<path d="M5928 6383 c7 -3 16 -2 19 1 4 3 -2 6 -13 5 -11 0 -14 -3 -6 -6z"/>
<path d="M6287 5912 c-25 -26 -39 -81 -17 -67 6 3 10 15 10 26 0 10 4 19 10
19 10 0 34 39 28 46 -3 2 -17 -9 -31 -24z"/>
<path d="M6340 5914 c0 -14 3 -14 15 -4 8 7 15 14 15 16 0 2 -7 4 -15 4 -8 0
-15 -7 -15 -16z"/>
<path d="M6472 5900 c-12 -10 -28 -20 -34 -22 -6 -2 -8 -10 -4 -16 5 -9 11 -8
22 3 8 8 22 19 31 23 8 5 14 14 12 20 -2 6 -13 3 -27 -8z"/>
<path d="M6380 5845 c-14 -16 -10 -18 14 -9 9 3 16 10 16 15 0 14 -16 11 -30
-6z"/>
<path d="M6227 5813 c-4 -3 -7 -11 -7 -17 0 -6 5 -5 12 2 6 6 9 14 7 17 -3 3
-9 2 -12 -2z"/>
<path d="M6142 5318 c-14 -14 -16 -28 -3 -28 9 0 24 30 18 36 -2 2 -9 -2 -15
-8z"/>
<path d="M6140 4705 c0 -8 2 -15 4 -15 2 0 6 7 10 15 3 8 1 15 -4 15 -6 0 -10
-7 -10 -15z"/>
<path d="M6242 4475 c0 -16 2 -22 5 -12 2 9 2 23 0 30 -3 6 -5 -1 -5 -18z"/>
<path d="M6161 4274 c0 -11 3 -14 6 -6 3 7 2 16 -1 19 -3 4 -6 -2 -5 -13z"/>
<path d="M6156 4242 c-3 -6 -10 -50 -16 -99 -6 -48 -13 -100 -16 -115 -7 -31
10 -39 21 -11 7 21 26 225 21 231 -2 2 -7 -1 -10 -6z"/>
<path d="M5762 4056 c-18 -40 -15 -68 4 -33 8 16 14 36 12 44 -2 12 -7 9 -16
-11z"/>
<path d="M1 3504 c0 -11 3 -14 6 -6 3 7 2 16 -1 19 -3 4 -6 -2 -5 -13z"/>
<path d="M5310 3483 c0 -22 2 -25 10 -13 13 20 13 40 0 40 -5 0 -10 -12 -10
-27z"/>
<path d="M0 1723 l0 -1723 728 2 c400 1 710 3 690 5 -21 2 -38 8 -38 14 0 5
-8 9 -18 9 -10 0 -28 9 -39 19 -12 11 -24 17 -28 13 -3 -4 -11 1 -16 11 -6 9
-14 15 -18 13 -4 -3 -22 8 -40 24 -18 17 -37 30 -42 30 -6 0 -8 4 -4 9 3 5 1
12 -5 16 -6 4 -7 11 -4 17 4 6 2 8 -3 5 -6 -4 -17 1 -24 10 -12 14 -12 15 -1
9 11 -7 12 -4 3 12 -6 12 -19 26 -29 31 -9 6 -13 11 -9 11 5 0 -1 12 -12 26
-11 15 -18 30 -15 35 3 5 0 9 -6 9 -6 0 -8 5 -5 10 3 6 0 10 -7 10 -9 0 -9 3
2 10 11 7 11 10 2 10 -7 0 -10 4 -7 10 3 5 1 10 -4 10 -6 0 -10 3 -10 8 1 4 1
18 -1 32 -1 18 -3 21 -8 10 -6 -14 -10 -13 -26 4 -18 18 -18 19 -2 13 15 -6
17 -4 11 10 -4 10 -8 32 -9 50 0 17 -4 31 -10 30 -13 -3 -26 52 -14 59 7 5 4
12 -7 21 -11 7 -13 13 -6 13 8 0 11 10 9 28 -2 15 -8 26 -15 24 -18 -3 -16 13
2 28 12 10 13 16 3 28 -9 11 -9 14 -1 9 7 -5 12 -1 12 10 -1 10 2 35 6 55 5
26 4 38 -4 38 -9 0 -8 6 1 23 7 12 12 24 11 27 0 3 -4 18 -7 34 -6 26 -5 28 8
17 13 -11 16 -11 16 -1 0 8 8 22 17 33 17 18 17 19 0 28 -9 6 -17 15 -17 22 0
8 4 6 11 -3 8 -11 9 -8 4 14 -5 26 -4 28 9 17 9 -7 13 -17 10 -22 -3 -5 0 -9
5 -9 14 0 14 23 0 37 -14 14 -5 43 13 42 10 0 10 -2 1 -6 -22 -8 -14 -29 15
-42 23 -10 25 -10 10 2 -25 20 -22 30 7 25 13 -3 22 -1 19 4 -3 5 0 17 8 26
11 15 11 15 -2 6 -20 -15 -70 13 -88 49 -7 15 -18 27 -25 28 -7 0 -20 2 -30 4
-10 2 -21 -3 -24 -11 -3 -8 -9 -12 -13 -9 -4 3 -20 -14 -36 -37 -42 -62 -81
-101 -93 -93 -18 10 -12 -7 7 -21 16 -13 16 -14 -1 -8 -13 5 -20 1 -24 -15 -3
-11 -9 -18 -14 -15 -5 3 -10 -1 -10 -8 -1 -7 -2 -17 -4 -23 -1 -5 -3 -16 -3
-22 -1 -7 -14 -13 -30 -13 -30 0 -61 -34 -39 -43 9 -4 9 -6 -1 -6 -7 -1 -15 6
-18 14 -4 8 -15 15 -25 15 -10 0 -19 5 -19 11 0 18 -34 54 -50 54 -8 -1 -14
-6 -13 -12 4 -19 -46 10 -53 30 -3 10 -8 16 -11 13 -3 -3 -13 3 -22 12 -10 11
-12 12 -6 2 9 -13 8 -13 -7 -1 -10 7 -18 20 -18 28 0 8 -4 12 -9 8 -5 -3 -17
2 -25 11 -9 8 -16 12 -16 8 0 -4 -9 1 -20 11 -11 10 -20 14 -20 10 0 -5 -11 2
-25 15 -14 13 -25 19 -25 14 0 -5 -4 -3 -9 4 -4 7 -15 14 -23 16 -23 3 -48 26
-48 43 0 8 -4 12 -9 9 -5 -4 -16 -3 -25 0 -13 5 -14 9 -5 20 13 16 33 19 24 4
-3 -5 -1 -10 5 -10 7 0 9 7 6 16 -3 9 -6 18 -6 21 0 3 -11 -2 -25 -11 -25 -16
-25 -16 -25 18 0 19 6 37 12 39 8 3 5 6 -6 6 -13 1 -16 6 -11 19 3 9 9 54 12
99 3 45 10 80 14 77 5 -3 9 0 9 5 0 6 -4 11 -9 11 -5 0 -12 7 -15 16 -3 8 -2
12 4 9 6 -4 8 5 5 22 -7 34 -23 184 -31 278 -3 39 -6 86 -8 105 -2 19 -8 48
-15 63 -6 16 -11 40 -11 55 0 22 -2 24 -11 12 -9 -12 -10 -12 -5 3 3 10 6 21
6 23 0 3 5 2 11 -2 8 -4 8 -1 1 12 -16 31 -24 97 -10 88 6 -4 4 3 -5 17 -18
25 -22 44 -8 35 4 -3 5 13 1 37 -5 23 -4 49 1 59 7 13 6 18 -3 18 -8 0 -9 3
-3 8 11 8 16 54 5 47 -4 -2 -7 23 -8 55 0 33 -3 64 -7 70 -3 5 -1 10 5 10 8 0
7 6 -1 21 -6 12 -7 19 -1 15 6 -4 8 2 5 14 -3 11 -10 17 -16 13 -6 -4 -7 -1
-1 8 13 21 14 39 1 39 -7 0 -5 5 3 10 8 5 10 10 5 10 -6 0 -11 28 -10 70 0 38
-3 70 -7 70 -4 0 -5 10 -2 23 10 44 11 88 1 94 -5 3 -3 9 4 14 10 6 11 9 2 9
-7 0 -13 5 -13 11 0 5 5 7 10 4 15 -9 12 2 -6 19 -8 9 -11 16 -5 16 6 0 11 5
11 11 0 5 -4 8 -8 5 -12 -7 -9 38 3 46 7 5 7 8 0 8 -6 0 -11 18 -12 39 -1 22
-8 50 -17 63 -15 23 -16 44 -3 65 4 6 1 14 -5 16 -9 4 -9 6 -1 6 6 1 10 9 8
19 -13 67 -14 83 -3 76 7 -4 8 -3 4 4 -4 7 -14 24 -22 40 -12 23 -14 -194 -14
-1695z m985 -531 c-3 -3 -11 0 -18 7 -9 10 -8 11 6 5 10 -3 15 -9 12 -12z m42
-188 c-3 -3 -12 -4 -19 -1 -8 3 -5 6 6 6 11 1 17 -2 13 -5z m-427 -44 c0 -5
-5 -10 -11 -10 -5 0 -7 5 -4 10 3 6 8 10 11 10 2 0 4 -4 4 -10z m-337 -473
c-3 -4 -6 -7 -7 -5 -1 2 -8 12 -16 22 -14 18 -14 18 7 6 12 -8 19 -18 16 -23z
m207 19 c0 -2 -7 -6 -15 -10 -8 -3 -15 -1 -15 4 0 6 7 10 15 10 8 0 15 -2 15
-4z m15 -26 c-3 -5 -11 -10 -16 -10 -6 0 -7 5 -4 10 3 6 11 10 16 10 6 0 7 -4
4 -10z m-216 -85 c0 -5 -4 -3 -9 5 -5 8 -9 22 -9 30 0 16 17 -16 18 -35z"/>
<path d="M5590 2960 c-9 -6 -10 -10 -3 -10 6 0 15 5 18 10 8 12 4 12 -15 0z"/>
<path d="M4513 2825 c-42 -25 -63 -59 -46 -75 9 -9 155 -60 172 -60 17 0 53
92 46 120 -9 33 -21 40 -80 40 -36 0 -62 -7 -92 -25z"/>
<path d="M2285 2500 c9 -14 -39 -41 -60 -34 -14 6 -16 4 -10 -6 6 -9 4 -11 -5
-5 -7 4 -16 2 -20 -6 -7 -10 -12 -10 -23 -1 -11 10 -17 9 -28 -5 -12 -15 -12
-16 3 -10 12 4 15 2 12 -8 -3 -7 -15 -15 -26 -18 -11 -3 -17 -10 -13 -16 3 -6
-1 -14 -10 -17 -9 -4 -14 -13 -11 -20 3 -8 -1 -14 -10 -14 -8 0 -13 -4 -10 -9
3 -5 0 -11 -7 -14 -7 -3 -19 -23 -26 -46 -6 -23 -15 -41 -19 -42 -4 0 -16 -2
-27 -4 -11 -2 -23 1 -27 8 -5 9 -10 9 -19 0 -8 -8 -19 -8 -43 2 -17 7 -43 11
-59 8 -21 -4 -33 1 -52 21 -14 15 -29 25 -34 21 -5 -3 -12 -1 -16 5 -4 6 -11
8 -16 5 -5 -4 -9 1 -9 11 0 20 -37 54 -59 54 -9 0 -27 16 -41 34 -23 32 -58
43 -52 16 1 -6 -2 -9 -8 -5 -6 3 -8 11 -5 16 9 14 -5 30 -18 22 -7 -4 -21 -9
-32 -10 -10 -2 -22 -7 -25 -11 -5 -9 -36 -22 -47 -21 -3 1 -10 -6 -15 -15 -5
-9 -13 -14 -19 -11 -5 4 -9 1 -9 -4 0 -6 -5 -10 -12 -8 -6 1 -15 -9 -19 -23
-6 -21 -7 -22 -9 -5 -2 17 -3 16 -10 -5 -4 -14 -8 -19 -9 -12 -2 19 -21 14
-21 -5 0 -15 -2 -16 -10 -3 -8 12 -10 12 -10 1 0 -8 -3 -12 -6 -8 -12 11 -34
-21 -27 -39 4 -12 3 -15 -5 -10 -16 10 -15 -6 0 -24 7 -8 3 -6 -9 4 -24 20
-32 9 -11 -13 11 -10 10 -12 -2 -9 -10 2 -16 -6 -18 -25 -3 -22 -7 -27 -22
-22 -10 3 -21 1 -25 -5 -3 -6 -10 -8 -15 -5 -4 3 -11 -2 -14 -11 -3 -8 -10
-12 -16 -9 -5 3 -10 2 -10 -4 0 -5 5 -13 10 -16 8 -5 7 -11 0 -21 -14 -16 -30
-14 -48 6 -12 13 -13 12 -7 -5 5 -16 4 -18 -6 -7 -15 14 -49 16 -49 3 0 -5 -9
-13 -20 -16 -11 -3 -20 -11 -20 -17 0 -5 7 -8 15 -4 9 3 15 0 15 -8 0 -10 10
-14 34 -12 22 2 37 -2 40 -10 4 -10 -3 -12 -26 -7 -28 5 -30 4 -23 -16 5 -15
2 -21 -9 -21 -9 0 -16 -4 -16 -10 0 -19 39 -10 45 11 4 11 9 18 13 15 3 -4 17
5 31 18 l26 25 3 -40 c2 -26 -1 -38 -8 -34 -16 10 -12 -5 9 -31 17 -22 20 -22
26 -6 5 12 9 13 12 4 4 -10 8 -9 18 4 10 15 11 12 7 -17 -5 -36 12 -32 21 6 3
15 5 13 6 -8 0 -16 5 -26 11 -22 5 3 10 2 10 -4 0 -10 14 -9 43 4 12 5 17 15
14 27 -4 15 -3 17 8 8 10 -8 17 -6 29 12 9 12 16 17 16 10 0 -18 78 -11 86 8
5 12 8 11 14 -5 l9 -20 1 20 c1 18 2 18 16 -5 14 -24 15 -24 8 -2 -5 21 -4 23
14 13 15 -8 23 -8 28 0 5 8 12 6 22 -7 13 -18 14 -18 7 5 -5 16 -4 21 4 17 6
-4 11 -2 11 4 0 7 7 10 15 6 8 -3 15 0 15 6 0 7 4 7 13 -1 8 -6 16 -8 19 -6
13 14 59 17 183 12 59 -2 70 -5 70 -19 0 -10 5 -17 10 -15 6 1 9 6 7 10 -1 5
3 5 9 2 8 -5 8 -10 0 -18 -15 -15 -14 -44 2 -51 10 -5 10 -7 0 -12 -18 -8 -16
-24 3 -24 12 0 14 -7 9 -30 -5 -25 -3 -30 12 -30 11 0 14 -3 7 -8 -15 -9 -28
-52 -16 -52 5 0 9 -36 8 -80 -1 -44 -5 -80 -9 -80 -5 0 -6 -9 -2 -19 4 -14 -3
-25 -25 -41 -29 -21 -30 -23 -13 -37 17 -14 17 -14 -1 -9 -16 6 -17 4 -6 -9
12 -14 10 -16 -16 -11 l-29 6 27 -11 c25 -10 26 -11 10 -28 -34 -36 -50 -59
-45 -65 3 -3 -2 -8 -11 -12 -9 -3 -13 -10 -10 -15 3 -5 -4 -9 -15 -9 -26 0
-66 -18 -118 -52 -23 -15 -47 -28 -53 -28 -7 0 -24 -9 -40 -20 -15 -11 -30
-16 -34 -13 -3 4 -13 -3 -22 -15 -8 -12 -20 -22 -26 -22 -7 0 -7 4 1 13 8 10
7 14 -4 14 -7 0 -13 -5 -12 -11 2 -9 -3 -11 -34 -15 -8 -1 -8 -5 -1 -14 8 -9
8 -17 0 -27 -8 -13 -9 -12 -5 2 11 32 -23 12 -42 -26 -11 -20 -14 -33 -8 -28
15 12 48 12 41 0 -3 -5 -10 -6 -15 -3 -15 10 -10 -12 6 -25 10 -9 15 -9 15 -1
0 6 5 11 10 11 6 0 10 -8 10 -17 0 -15 2 -16 10 -3 7 11 10 11 10 2 0 -7 5
-10 10 -7 6 4 17 1 25 -5 8 -6 19 -9 24 -6 5 4 14 -2 20 -11 5 -10 12 -17 15
-15 15 6 20 1 7 -7 -12 -8 -12 -12 2 -26 10 -9 17 -24 18 -33 2 -42 11 -76 31
-110 54 -98 72 -123 107 -154 21 -18 45 -47 54 -63 22 -43 38 -135 43 -242 5
-96 -1 -115 -59 -208 -22 -36 -108 -116 -118 -110 -5 4 -9 2 -9 -2 0 -5 -9 -9
-21 -10 -12 -1 -28 -10 -36 -20 -8 -10 -11 -11 -7 -3 7 12 5 13 -8 3 -8 -7
-18 -10 -21 -6 -4 3 -7 1 -7 -5 0 -9 161 -12 665 -12 659 1 665 1 655 20 -6
11 -15 20 -21 20 -6 0 -7 5 -4 10 3 6 1 10 -5 10 -8 0 -10 10 -6 27 3 16 3 22
0 16 -7 -16 -24 -17 -24 -2 0 6 -9 24 -21 40 -11 16 -18 37 -15 45 3 8 2 13
-3 10 -5 -3 -11 7 -14 22 -3 15 -11 41 -17 57 -6 17 -11 31 -11 32 0 2 -8 27
-19 55 -23 64 -48 161 -60 243 -5 33 -15 80 -21 105 -15 59 -20 247 -7 280 6
14 11 32 12 40 6 40 21 77 43 100 13 14 21 31 18 38 -3 8 0 10 7 6 8 -5 9 -2
5 10 -4 10 -3 15 3 11 6 -3 10 -1 10 5 0 7 20 32 45 56 25 24 42 44 38 44 -17
0 34 29 52 30 17 0 17 2 5 10 -13 8 -12 10 4 10 11 0 31 10 44 23 14 12 22 16
18 9 -4 -7 -1 -15 8 -18 9 -3 13 -11 9 -17 -3 -6 -1 -7 6 -3 6 4 9 11 6 16 -3
4 1 12 8 18 11 10 18 12 33 12 4 0 1 6 -5 13 -8 10 -7 14 4 14 8 0 12 -4 9 -8
-2 -4 0 -10 6 -14 6 -4 7 -11 4 -17 -4 -7 -2 -8 4 -4 7 4 12 3 12 -3 0 -19
-19 -21 -29 -4 -8 14 -10 15 -11 3 0 -13 -1 -13 -11 0 -9 13 -10 13 -6 0 2 -8
8 -15 13 -15 5 0 14 -4 20 -8 7 -4 16 -1 22 6 11 15 12 48 0 41 -11 -7 -10 3
2 26 9 16 7 18 -10 15 -13 -2 -18 0 -14 6 3 6 17 9 29 7 18 -4 22 -1 18 11 -5
13 -3 14 8 4 23 -23 29 -14 6 10 -14 14 -25 19 -30 12 -5 -6 -7 -1 -4 11 2 11
-1 21 -7 22 -20 1 -56 11 -68 18 -7 5 -9 2 -4 -7 4 -8 0 -5 -8 5 -10 13 -16
15 -16 7 0 -11 -3 -11 -17 0 -14 12 -16 12 -9 -1 4 -8 1 -7 -7 3 -11 14 -16
15 -20 5 -3 -8 -6 -6 -6 5 -1 10 -5 16 -10 13 -4 -3 -13 6 -20 20 -6 15 -16
22 -23 18 -7 -5 -8 -3 -3 5 5 8 -5 23 -28 42 -26 21 -34 35 -31 54 1 16 -3 28
-12 32 -8 3 -11 9 -8 14 3 5 0 9 -6 9 -12 0 -74 58 -76 72 -1 4 -3 11 -4 16
-1 4 -2 10 -1 15 0 4 -4 7 -9 7 -6 0 -8 12 -5 28 3 15 2 20 -1 12 -10 -21 -34
72 -38 146 -2 33 -9 71 -15 82 -7 12 -9 22 -5 22 3 0 2 6 -3 13 -5 6 -10 23
-11 37 -4 48 -8 60 -30 83 -18 19 -19 26 -9 37 10 10 9 11 -2 5 -11 -6 -13 -4
-8 9 4 9 3 15 -2 12 -5 -3 -12 1 -15 10 -4 10 -2 13 7 9 6 -4 3 0 -7 9 -10 8
-23 13 -27 10 -4 -2 -6 4 -4 16 2 11 -1 23 -7 26 -7 5 -8 2 -3 -7 4 -8 -7 3
-24 23 -27 32 -36 36 -52 28 -14 -8 -19 -7 -19 3 0 7 -9 13 -20 14 -11 1 -18
-2 -15 -8 4 -5 1 -9 -4 -9 -6 0 -11 7 -11 15 0 8 -5 15 -11 15 -5 0 -8 -4 -4
-10z m116 -37 c13 -16 12 -17 -3 -4 -10 7 -18 15 -18 17 0 8 8 3 21 -13z m175
-409 c-4 -9 -9 -15 -11 -12 -3 3 -3 13 1 22 4 9 9 15 11 12 3 -3 3 -13 -1 -22z
m-1478 -11 c-13 -16 -15 -16 -21 1 -4 10 0 14 13 13 14 -1 16 -4 8 -14z m56
10 c-5 -5 -12 -12 -16 -18 -4 -6 -8 -2 -8 8 0 9 7 17 17 17 9 0 12 -3 7 -7z
m-14 -105 c0 -18 -2 -20 -9 -8 -6 8 -7 18 -5 22 9 14 14 9 14 -14z m1600 -222
c0 -2 -7 -7 -16 -10 -8 -3 -12 -2 -9 4 6 10 25 14 25 6z m271 -253 c13 -16 12
-17 -3 -4 -17 13 -22 21 -14 21 2 0 10 -8 17 -17z m-1589 -341 c3 -11 0 -19
-7 -19 -7 0 -10 8 -7 19 2 10 6 18 7 18 1 0 5 -8 7 -18z"/>
<path d="M105 2339 c-4 -6 -5 -12 -2 -15 2 -3 7 2 10 11 7 17 1 20 -8 4z"/>
<path d="M1030 2139 c0 -5 5 -7 10 -4 6 3 10 8 10 11 0 2 -4 4 -10 4 -5 0 -10
-5 -10 -11z"/>
<path d="M951 2090 c-5 -16 -6 -30 -1 -30 5 0 12 9 15 20 3 11 13 20 21 20 8
0 14 5 14 10 0 24 -39 8 -49 -20z"/>
<path d="M910 2090 c0 -5 5 -10 11 -10 5 0 7 5 4 10 -3 6 -8 10 -11 10 -2 0
-4 -4 -4 -10z"/>
<path d="M916 2026 c7 -17 44 -22 44 -6 0 6 -4 10 -9 10 -5 0 -17 3 -25 6 -12
5 -15 2 -10 -10z"/>
<path d="M970 2034 c0 -10 31 -36 37 -31 3 3 -2 13 -10 22 -16 15 -27 19 -27
9z"/>
<path d="M940 1990 c0 -5 5 -10 10 -10 6 0 10 5 10 10 0 6 -4 10 -10 10 -5 0
-10 -4 -10 -10z"/>
<path d="M1070 1969 c0 -5 5 -7 10 -4 6 3 10 8 10 11 0 2 -4 4 -10 4 -5 0 -10
-5 -10 -11z"/>
<path d="M4914 1855 c-18 -32 -32 -45 -48 -45 -12 0 -27 -5 -34 -12 -6 -6 -22
-13 -34 -15 -28 -4 -48 -29 -48 -59 0 -24 -45 -84 -62 -84 -6 0 -3 11 6 25 9
13 16 28 16 33 0 13 -77 9 -91 -5 -8 -8 -16 -9 -28 -1 -13 8 -27 5 -58 -11
-29 -14 -59 -20 -101 -20 -33 1 -65 -2 -71 -5 -6 -4 -34 -9 -63 -10 -89 -6
-124 -28 -134 -83 -5 -24 -11 -33 -23 -31 -10 3 -23 -10 -36 -37 -17 -33 -25
-40 -50 -40 -17 0 -36 -8 -43 -17 -7 -10 -22 -18 -32 -18 -26 0 -73 -42 -95
-87 -11 -21 -27 -49 -36 -63 -25 -38 -53 -177 -37 -186 4 -3 19 19 33 48 37
79 120 183 159 202 38 18 56 20 56 7 0 -25 -16 -43 -48 -57 -35 -14 -91 -61
-92 -76 0 -4 15 1 33 12 36 22 58 27 39 8 -19 -19 -14 -31 11 -25 21 5 21 5 2
-6 -11 -7 -37 -30 -58 -52 -21 -22 -35 -32 -31 -22 3 10 1 17 -5 17 -7 0 -11
-14 -10 -32 2 -18 -3 -43 -10 -56 -7 -13 -9 -36 -5 -57 l6 -36 32 24 c27 21
33 22 45 10 15 -17 9 -26 -19 -28 -43 -3 -83 -75 -47 -88 8 -3 7 -10 -7 -26
-14 -15 -21 -40 -23 -84 -3 -52 -2 -59 9 -46 7 8 23 18 35 21 20 5 21 4 10
-19 -9 -21 -8 -27 7 -39 13 -9 24 -10 37 -3 40 21 6 -21 -66 -81 -79 -66 -149
-160 -165 -221 -11 -42 -1 -134 15 -134 5 0 14 17 20 37 12 43 30 66 20 25 -9
-35 9 -35 25 1 12 28 103 112 121 112 6 0 1 -12 -10 -26 -12 -15 -21 -31 -21
-36 0 -5 -10 -22 -22 -38 -17 -24 -19 -32 -8 -44 10 -13 9 -17 -6 -23 -29 -10
-43 -34 -45 -73 l-1 -35 -11 28 c-15 37 -37 35 -39 -5 -2 -57 3 -83 18 -94 11
-9 12 -18 4 -38 -5 -15 -10 -29 -10 -32 0 -2 249 -4 553 -4 l553 0 27 188 c45
311 54 363 77 452 12 47 23 90 24 95 5 28 38 176 49 220 8 34 11 132 10 303
-3 268 -3 269 -68 501 -18 64 -53 141 -65 141 -5 0 -21 -20 -36 -45z m-820
-551 c-13 -29 -18 -35 -21 -21 -6 25 17 81 29 69 6 -6 3 -24 -8 -48z m69 -71
c-7 -2 -19 -2 -25 0 -7 3 -2 5 12 5 14 0 19 -2 13 -5z m-123 -121 c0 -5 -7
-17 -15 -28 -14 -18 -14 -17 -4 9 12 27 19 34 19 19z m88 -117 c-11 -24 -58
-63 -58 -48 0 7 61 73 67 73 1 0 -3 -11 -9 -25z m-93 -689 c-33 -13 -71 -27
-85 -30 l-25 -7 25 20 c27 21 79 39 120 39 16 0 3 -8 -35 -22z"/>
<path d="M5560 1734 c0 -8 5 -12 10 -9 6 4 8 11 5 16 -9 14 -15 11 -15 -7z"/>
<path d="M7042 1534 c-7 -8 -9 -14 -3 -14 5 0 7 -8 4 -19 -6 -24 15 -38 23
-14 3 10 10 26 15 37 8 13 7 16 -1 11 -7 -4 -15 -3 -19 3 -4 6 -11 5 -19 -4z"/>
<path d="M4042 1507 c-26 -27 -28 -37 -7 -37 8 0 21 14 30 30 18 36 7 39 -23
7z"/>
<path d="M6410 1473 c0 -16 61 -113 70 -113 17 0 11 17 -21 64 -30 45 -49 64
-49 49z"/>
<path d="M7579 1468 c0 -2 -2 -12 -4 -23 -3 -19 -3 -19 9 -3 7 10 17 14 21 10
5 -4 5 -1 1 6 -6 10 -24 17 -27 10z"/>
<path d="M3067 1423 c6 -15 4 -16 -9 -5 -19 15 -31 3 -17 -18 6 -10 9 -11 9
-2 0 6 5 11 12 10 6 -2 14 5 16 15 2 9 -1 17 -7 17 -6 0 -7 -8 -4 -17z"/>
<path d="M3126 1398 c3 -5 10 -6 15 -3 13 9 11 12 -6 12 -8 0 -12 -4 -9 -9z"/>
<path d="M2896 1361 c-4 -5 -2 -12 3 -15 5 -4 12 -2 15 3 4 5 2 12 -3 15 -5 4
-12 2 -15 -3z"/>
<path d="M3307 1311 c-3 -13 -1 -18 9 -14 7 2 10 11 7 19 -7 19 -10 18 -16 -5z"/>
<path d="M3345 1290 c3 -5 10 -10 16 -10 5 0 9 5 9 10 0 6 -7 10 -16 10 -8 0
-12 -4 -9 -10z"/>
<path d="M185 1280 c-3 -5 -1 -10 4 -10 6 0 11 5 11 10 0 6 -2 10 -4 10 -3 0
-8 -4 -11 -10z"/>
<path d="M3802 1220 c0 -14 2 -19 5 -12 2 6 2 18 0 25 -3 6 -5 1 -5 -13z"/>
<path d="M1100 1165 c-7 -9 -8 -15 -2 -15 5 0 12 7 16 15 3 8 4 15 2 15 -2 0
-9 -7 -16 -15z"/>
<path d="M1143 1165 c-7 -7 -8 -17 -2 -26 7 -12 9 -12 9 0 0 11 3 11 15 1 18
-15 19 -1 2 21 -10 13 -15 14 -24 4z"/>
<path d="M7680 1131 c0 -5 9 -7 20 -4 11 3 20 7 20 9 0 2 -9 4 -20 4 -11 0
-20 -4 -20 -9z"/>
<path d="M388 1113 c7 -3 16 -2 19 1 4 3 -2 6 -13 5 -11 0 -14 -3 -6 -6z"/>
<path d="M3850 1029 c0 -5 5 -7 10 -4 6 3 10 8 10 11 0 2 -4 4 -10 4 -5 0 -10
-5 -10 -11z"/>
<path d="M7720 859 c0 -14 -5 -19 -14 -16 -7 3 -19 0 -25 -6 -18 -18 -12 -28
10 -16 21 11 21 11 3 -14 -11 -14 -22 -23 -26 -20 -17 10 -7 -23 18 -59 23
-32 33 -39 75 -44 27 -4 49 -11 49 -17 0 -6 3 -7 7 -4 3 4 15 0 25 -10 22 -20
37 -9 20 17 -8 13 -8 20 -1 22 7 2 6 16 -4 38 -10 22 -15 27 -15 15 2 -38 -2
-65 -9 -65 -5 0 -7 22 -6 50 1 38 -2 50 -13 50 -8 0 -18 8 -21 18 -9 25 -54
82 -64 82 -5 0 -9 -9 -9 -21z"/>
<path d="M3830 780 c0 -22 5 -40 10 -40 6 0 10 18 10 40 0 22 -4 40 -10 40 -5
0 -10 -18 -10 -40z"/>
<path d="M3782 680 c0 -14 2 -19 5 -12 2 6 2 18 0 25 -3 6 -5 1 -5 -13z"/>
<path d="M7893 693 c-17 -6 -16 -30 1 -36 9 -4 14 2 14 19 0 13 -1 24 -2 23 0
0 -7 -3 -13 -6z"/>
<path d="M3831 674 c0 -11 3 -14 6 -6 3 7 2 16 -1 19 -3 4 -6 -2 -5 -13z"/>
<path d="M7833 614 c-18 -19 -16 -29 2 -14 12 10 15 10 15 0 0 -8 3 -11 6 -7
3 3 2 12 -3 20 -7 13 -10 13 -20 1z"/>
<path d="M5750 520 c0 -5 5 -10 11 -10 5 0 7 5 4 10 -3 6 -8 10 -11 10 -2 0
-4 -4 -4 -10z"/>
<path d="M7960 493 c0 -5 12 -16 25 -26 29 -21 36 -2 8 19 -20 15 -33 18 -33
7z"/>
<path d="M8246 385 c-3 -9 -6 -24 -5 -33 0 -9 5 -4 10 12 9 32 6 48 -5 21z"/>
<path d="M8047 343 c-4 -3 -7 -11 -7 -17 0 -6 5 -5 12 2 6 6 9 14 7 17 -3 3
-9 2 -12 -2z"/>
<path d="M8220 330 c0 -5 5 -10 11 -10 5 0 7 5 4 10 -3 6 -8 10 -11 10 -2 0
-4 -4 -4 -10z"/>
<path d="M8040 306 c0 -2 8 -10 18 -17 15 -13 16 -12 3 4 -13 16 -21 21 -21
13z"/>
<path d="M8130 280 c0 -5 5 -10 11 -10 5 0 7 5 4 10 -3 6 -8 10 -11 10 -2 0
-4 -4 -4 -10z"/>
<path d="M5666 184 c-8 -21 -8 -24 5 -24 5 0 7 5 4 10 -3 6 -1 10 4 10 6 0 11
5 11 10 0 16 -17 12 -24 -6z"/>
<path d="M2790 150 c6 -11 13 -20 16 -20 2 0 0 9 -6 20 -6 11 -13 20 -16 20
-2 0 0 -9 6 -20z"/>
<path d="M5280 123 c0 -18 2 -33 4 -33 9 0 13 39 5 51 -6 10 -9 4 -9 -18z"/>
<path d="M5610 140 c-8 -5 -7 -9 3 -13 9 -3 20 0 26 7 8 9 7 13 -4 13 -8 0
-19 -3 -25 -7z"/>
<path d="M5243 94 c0 -7 5 -11 10 -7 5 3 6 -4 2 -18 -4 -13 -4 -21 0 -17 13
13 14 55 1 55 -7 0 -13 -6 -13 -13z"/>
<path d="M5490 83 c0 -6 8 -17 18 -24 16 -13 16 -13 2 6 -8 11 -16 22 -17 24
-2 2 -3 0 -3 -6z"/>
<path d="M1460 10 c0 -6 7 -10 15 -10 8 0 15 2 15 4 0 2 -7 6 -15 10 -8 3 -15
1 -15 -4z"/>
</g>
</svg>
